<svg width="31" height="31" viewBox="0 0 31 31" fill="none" xmlns="http://www.w3.org/2000/svg">
<g clip-path="url(#clip0_340_1055)">
<path d="M28.25 0.75H3.25C1.86929 0.75 0.75 1.86929 0.75 3.25V28.25C0.75 29.6307 1.86929 30.75 3.25 30.75H28.25C29.6307 30.75 30.75 29.6307 30.75 28.25V3.25C30.75 1.86929 29.6307 0.75 28.25 0.75Z" fill="url(#paint0_linear_340_1055)"/>
<path d="M13.2501 9.91675H6.5835V21.5835H12.8335M6.5835 15.7501H12.8335M17.4168 11.5835V21.5835V16.1668C17.4168 15.1722 17.8119 14.2184 18.5152 13.5151C19.2184 12.8119 20.1722 12.4168 21.1668 12.4168C22.1614 12.4168 23.1152 12.8119 23.8185 13.5151C24.5217 14.2184 24.9168 15.1722 24.9168 16.1668V21.5835" stroke="white" stroke-width="2" stroke-linecap="round" stroke-linejoin="round"/>
</g>
<defs>
<linearGradient id="paint0_linear_340_1055" x1="16" y1="16" x2="16" y2="53" gradientUnits="userSpaceOnUse">
<stop stop-color="#6E83D9"/>
<stop offset="1" stop-color="#8B51B8"/>
</linearGradient>
<clipPath id="clip0_340_1055">
<rect width="31" height="31" fill="white"/>
</clipPath>
</defs>
</svg>
