<svg width="31" height="31" viewBox="0 0 31 31" fill="none" xmlns="http://www.w3.org/2000/svg">
<path d="M28.25 0.75H3.25C1.86929 0.75 0.75 1.86929 0.75 3.25V28.25C0.75 29.6307 1.86929 30.75 3.25 30.75H28.25C29.6307 30.75 30.75 29.6307 30.75 28.25V3.25C30.75 1.86929 29.6307 0.75 28.25 0.75Z" fill="white"/>
<path d="M13.25 9.91669H6.58337V21.5834H12.8334M6.58337 15.75H12.8334M17.4167 11.5834V21.5834V16.1667C17.4167 15.1721 17.8118 14.2183 18.5151 13.515C19.2183 12.8118 20.1721 12.4167 21.1667 12.4167C22.1613 12.4167 23.1151 12.8118 23.8184 13.515C24.5216 14.2183 24.9167 15.1721 24.9167 16.1667V21.5834" stroke="#202020" stroke-width="2" stroke-linecap="round" stroke-linejoin="round"/>
</svg>
