<svg width="30" height="30" viewBox="0 0 30 30" fill="none" xmlns="http://www.w3.org/2000/svg">
<g clip-path="url(#clip0_2022_37)">
<path d="M0 7.5C0 3.35789 3.35789 0 7.5 0H22.5C26.6421 0 30 3.35789 30 7.5V22.5C30 26.6421 26.6421 30 22.5 30H7.5C3.35789 30 0 26.6421 0 22.5V7.5Z" fill="#FFDD33"/>
<path d="M19.9447 5.71875H17.2214L19.4909 9.70617L14.4981 5.71875H11.7748L14.2712 10.5923L9.05145 5.71875H6.32812L9.05145 11.9223L6.32812 24.3281H9.05145L14.2712 11.036L11.7748 24.3281H14.4981L19.4909 10.1498L17.2214 24.3281H19.9447L24.9375 8.81988L19.9447 5.71875Z" fill="black"/>
</g>
<defs>
<clipPath id="clip0_2022_37">
<rect width="30" height="30" fill="white"/>
</clipPath>
</defs>
</svg>
