<svg width="30" height="30" viewBox="0 0 30 30" fill="none" xmlns="http://www.w3.org/2000/svg">
<g clip-path="url(#clip0_2022_53)">
<path d="M5.31258 0.375H24.6874C27.6251 0.375 30 2.74992 30 5.68758V24.3124C30 27.2501 27.6251 29.625 24.6874 29.625H5.31258C2.37492 29.625 0 27.2501 0 24.3124V5.68758C0 2.74992 2.37492 0.375 5.31258 0.375Z" fill="#001E36"/>
<path d="M10.7501 7.81244C10.3751 7.81244 10.0001 7.81244 9.61266 7.8251C9.225 7.83752 8.86242 7.83752 8.52492 7.85017C8.18742 7.8626 7.875 7.86259 7.575 7.87502C7.28742 7.88744 7.0875 7.88744 6.87492 7.88744C6.7875 7.88744 6.75 7.93736 6.75 8.02502V20.8875C6.75 21 6.79992 21.0502 6.9 21.0502H9.32508C9.4125 21.0375 9.47508 20.9625 9.46242 20.8751V16.8626C9.69984 16.8626 9.87492 16.8626 10.0001 16.875C10.125 16.8874 10.3249 16.8874 10.6249 16.8874C11.6501 16.8874 12.5876 16.7749 13.4374 16.4625C14.25 16.1625 14.9501 15.6375 15.45 14.9374C15.95 14.2374 16.2 13.3499 16.2 12.2749C16.2 11.7124 16.1002 11.175 15.9127 10.65C15.714 10.1151 15.4027 9.62919 15 9.22502C14.5246 8.76321 13.9524 8.41302 13.3249 8.19986C12.6248 7.93736 11.775 7.81244 10.7501 7.81244ZM11.029 10.2745C11.4743 10.283 11.9079 10.3608 12.3124 10.5249C12.675 10.6624 12.975 10.9125 13.1876 11.2374C13.3869 11.5736 13.4867 11.9595 13.4752 12.3502C13.4752 12.9 13.35 13.3252 13.0875 13.6376C12.8123 13.95 12.4624 14.1877 12.0626 14.3002C11.5999 14.4502 11.1124 14.5249 10.6249 14.5249H9.96234C9.81234 14.5249 9.65016 14.5125 9.47508 14.5001V10.3001C9.5625 10.2874 9.73758 10.275 9.98766 10.2877C10.2251 10.275 10.5124 10.275 10.8375 10.275C10.9016 10.2735 10.9654 10.2733 11.029 10.2745ZM21.5126 10.9128C20.625 10.9128 19.8874 11.0501 19.3001 11.3501C18.7627 11.6002 18.3 12 17.9876 12.4999C17.7127 12.9626 17.5624 13.4749 17.5624 14.0126C17.5517 14.4548 17.6505 14.8928 17.85 15.2876C18.0838 15.708 18.4084 16.0709 18.8002 16.35C19.35 16.7261 19.9467 17.0287 20.5751 17.25C21.1875 17.4874 21.6 17.6749 21.8002 17.8374C22.0001 18 22.1002 18.1624 22.1002 18.3375C22.1002 18.5625 21.9626 18.7751 21.7627 18.8625C21.5377 18.975 21.2002 19.0376 20.7251 19.0376C20.2252 19.0376 19.725 18.975 19.2499 18.8501C18.7044 18.7283 18.1814 18.5216 17.7 18.2377C17.6625 18.2126 17.625 18.2002 17.5875 18.2253C17.55 18.2501 17.5376 18.3 17.5376 18.3375V20.5125C17.5252 20.6126 17.5875 20.7 17.6752 20.7499C18.0805 20.9393 18.5093 21.0739 18.9502 21.15C19.5127 21.2625 20.0749 21.3124 20.6498 21.3124C21.5498 21.3124 22.3001 21.1751 22.9125 20.9126C23.475 20.6876 23.9625 20.3002 24.3124 19.8C24.6401 19.3083 24.8102 18.7284 24.7999 18.1376C24.8123 17.6913 24.7135 17.2489 24.5126 16.8502C24.2749 16.425 23.9374 16.0751 23.5249 15.8126C22.9215 15.4336 22.2753 15.1273 21.6 14.8999C21.2984 14.7751 21.0023 14.6375 20.7124 14.4874C20.55 14.4 20.4 14.2875 20.2875 14.1499C20.2125 14.0499 20.1626 13.9376 20.1626 13.8251C20.1626 13.7126 20.2001 13.5877 20.2624 13.4876C20.3501 13.3627 20.4874 13.275 20.6498 13.2375C20.8875 13.1752 21.15 13.1374 21.3998 13.1499C21.8749 13.1499 22.3373 13.2124 22.8 13.3125C23.2252 13.3999 23.625 13.5375 24 13.7377C24.0499 13.7625 24.1125 13.7625 24.225 13.7377C24.2445 13.7232 24.2604 13.7043 24.2713 13.6826C24.2821 13.6608 24.2877 13.6368 24.2876 13.6125V11.5751C24.2876 11.5249 24.2749 11.475 24.2625 11.4251C24.2374 11.3752 24.1875 11.325 24.1376 11.3126C23.7928 11.1717 23.4316 11.0751 23.0625 11.025C22.5492 10.9503 22.0313 10.9129 21.5126 10.9128Z" fill="#31A8FF"/>
</g>
<defs>
<clipPath id="clip0_2022_53">
<rect width="30" height="30" fill="white"/>
</clipPath>
</defs>
</svg>
