<svg width="30" height="30" viewBox="0 0 30 30" fill="none" xmlns="http://www.w3.org/2000/svg">
<rect width="30" height="30" rx="3" fill="url(#paint0_linear_339_1020)"/>
<path d="M11.8565 8.90909H13.8381V17.5192C13.8381 18.4354 13.6229 19.2472 13.1925 19.9545C12.7621 20.6577 12.157 21.2116 11.3771 21.6165C10.5973 22.017 9.68324 22.2173 8.63494 22.2173C7.59091 22.2173 6.67898 22.017 5.89915 21.6165C5.11932 21.2116 4.5142 20.6577 4.08381 19.9545C3.65341 19.2472 3.43821 18.4354 3.43821 17.5192V8.90909H5.41335V17.3594C5.41335 17.9517 5.54332 18.478 5.80327 18.9382C6.06747 19.3984 6.44034 19.7607 6.92188 20.0249C7.40341 20.2848 7.97443 20.4148 8.63494 20.4148C9.29972 20.4148 9.87287 20.2848 10.3544 20.0249C10.8402 19.7607 11.2109 19.3984 11.4666 18.9382C11.7266 18.478 11.8565 17.9517 11.8565 17.3594V8.90909ZM18.084 8.90909L21.2161 14.0291H21.3184L24.4505 8.90909H26.7388L22.6607 15.4545L26.7644 22H24.4632L21.3184 16.9503H21.2161L18.0712 22H15.7701L19.9441 15.4545L15.7956 8.90909H18.084Z" fill="white"/>
<defs>
<linearGradient id="paint0_linear_339_1020" x1="15.25" y1="15.25" x2="15.25" y2="52.25" gradientUnits="userSpaceOnUse">
<stop stop-color="#D96E6F"/>
<stop offset="1" stop-color="#B89D51"/>
</linearGradient>
</defs>
</svg>
