<svg width="30" height="30" viewBox="0 0 30 30" fill="none" xmlns="http://www.w3.org/2000/svg">
<rect width="30" height="30" rx="7" fill="url(#paint0_linear_317_5)"/>
<path d="M13.071 10.7727H14.392V16.5128C14.392 17.1236 14.2486 17.6648 13.9616 18.1364C13.6747 18.6051 13.2713 18.9744 12.7514 19.2443C12.2315 19.5114 11.6222 19.6449 10.9233 19.6449C10.2273 19.6449 9.61932 19.5114 9.09943 19.2443C8.57955 18.9744 8.17614 18.6051 7.8892 18.1364C7.60227 17.6648 7.45881 17.1236 7.45881 16.5128V10.7727H8.77557V16.4062C8.77557 16.8011 8.86222 17.152 9.03551 17.4588C9.21165 17.7656 9.46023 18.0071 9.78125 18.1832C10.1023 18.3565 10.483 18.4432 10.9233 18.4432C11.3665 18.4432 11.7486 18.3565 12.0696 18.1832C12.3935 18.0071 12.6406 17.7656 12.8111 17.4588C12.9844 17.152 13.071 16.8011 13.071 16.4062V10.7727ZM17.2227 10.7727L19.3107 14.1861H19.3789L21.467 10.7727H22.9925L20.2738 15.1364L23.0096 19.5H21.4755L19.3789 16.1335H19.3107L17.2141 19.5H15.68L18.4627 15.1364L15.6971 10.7727H17.2227Z" fill="white"/>
<defs>
<linearGradient id="paint0_linear_317_5" x1="15.25" y1="15.25" x2="15.25" y2="52.25" gradientUnits="userSpaceOnUse">
<stop stop-color="#6E83D9"/>
<stop offset="1" stop-color="#8B51B8"/>
</linearGradient>
</defs>
</svg>
