<svg width="50" height="50" viewBox="0 0 50 50" fill="none" xmlns="http://www.w3.org/2000/svg">
<g clip-path="url(#clip0_2071_24)">
<mask id="mask0_2071_24" style="mask-type:luminance" maskUnits="userSpaceOnUse" x="0" y="0" width="50" height="50">
<path d="M0 0H50V50H0V0Z" fill="white"/>
</mask>
<g mask="url(#mask0_2071_24)">
<path fill-rule="evenodd" clip-rule="evenodd" d="M50 25C50 38.8062 38.8062 50 25 50C11.1937 50 0 38.8062 0 25C0 11.1937 11.1937 0 25 0C38.8062 0 50 11.1937 50 25ZM25.8958 18.4562C23.4653 19.4674 18.6056 21.5604 11.3167 24.7354C10.1333 25.2062 9.51319 25.6667 9.45625 26.1167C9.36042 26.8792 10.3146 27.1792 11.6104 27.5854L12.1583 27.7604C13.4354 28.175 15.1521 28.6604 16.0438 28.6792C16.8535 28.6958 17.7576 28.3625 18.7563 27.6792C25.5646 23.0819 29.0792 20.7583 29.3 20.7083C29.4562 20.6729 29.6729 20.6271 29.8187 20.7583C29.9646 20.8875 29.95 21.1333 29.9354 21.2C29.8396 21.6021 26.1021 25.0792 24.1646 26.8792C23.5604 27.4396 23.1333 27.8375 23.0458 27.9292C22.8472 28.1306 22.6514 28.3243 22.4583 28.5104C21.2708 29.6521 20.3833 30.5104 22.5083 31.9104C23.5292 32.5833 24.3458 33.1396 25.1604 33.6937C26.05 34.3 26.9375 34.9042 28.0875 35.6583C28.3792 35.8528 28.6604 36.0472 28.9312 36.2417C29.9667 36.9812 30.8979 37.6437 32.0479 37.5396C32.7146 37.4771 33.4062 36.85 33.7562 34.9771C34.5833 30.5479 36.2125 20.9562 36.5896 17.0021C36.6146 16.6738 36.6006 16.3437 36.5479 16.0187C36.5188 15.7557 36.3907 15.5137 36.1896 15.3417C35.8917 15.0979 35.4292 15.0458 35.2208 15.05C34.2812 15.0667 32.8396 15.5687 25.8958 18.4562Z" fill="white"/>
</g>
</g>
<defs>
<clipPath id="clip0_2071_24">
<rect width="50" height="50" fill="white"/>
</clipPath>
</defs>
</svg>
