<svg width="21" height="21" viewBox="0 0 21 21" fill="none" xmlns="http://www.w3.org/2000/svg">
<g clip-path="url(#clip0_2034_295)">
<path d="M10.5 0C7.71586 0 5.04328 1.10693 3.07617 3.07535C1.10705 5.04456 0.00056347 7.71518 0 10.5C0 13.2836 1.10742 15.9562 3.07617 17.9246C5.04328 19.8931 7.71586 21 10.5 21C13.2841 21 15.9567 19.8931 17.9238 17.9246C19.8926 15.9562 21 13.2836 21 10.5C21 7.71635 19.8926 5.04377 17.9238 3.07535C15.9567 1.10693 13.2841 0 10.5 0Z" fill="url(#paint0_linear_2034_295)"/>
<path d="M4.75286 10.3891C7.81427 9.0556 9.85521 8.17644 10.8757 7.75163C13.7927 6.53872 14.3981 6.32806 14.7935 6.32092C14.8804 6.31953 15.074 6.34102 15.2004 6.44315C15.3054 6.52928 15.3349 6.64577 15.3497 6.72755C15.3628 6.80926 15.3808 6.99547 15.3661 7.14083C15.2086 8.80114 14.5244 12.8302 14.1766 14.6898C14.0306 15.4767 13.7402 15.7405 13.4597 15.7662C12.8493 15.8224 12.3867 15.3633 11.7961 14.9763C10.8724 14.3704 10.3507 13.9934 9.45325 13.4023C8.41638 12.7191 9.08904 12.3436 9.67966 11.73C9.83388 11.5694 12.5212 9.12565 12.5721 8.90401C12.5786 8.87628 12.5852 8.77292 12.5229 8.71845C12.4622 8.66382 12.3719 8.68252 12.3063 8.69729C12.2128 8.71829 10.7379 9.69413 7.87661 11.6247C7.45825 11.9124 7.07927 12.0527 6.73802 12.0453C6.36396 12.0373 5.64208 11.8333 5.1056 11.6591C4.44935 11.4453 3.92599 11.3323 3.97193 10.9692C3.99489 10.7802 4.25575 10.5868 4.75286 10.3891Z" fill="white"/>
</g>
<defs>
<linearGradient id="paint0_linear_2034_295" x1="1050" y1="0" x2="1050" y2="2100" gradientUnits="userSpaceOnUse">
<stop stop-color="#2AABEE"/>
<stop offset="1" stop-color="#229ED9"/>
</linearGradient>
<clipPath id="clip0_2034_295">
<rect width="21" height="21" fill="white"/>
</clipPath>
</defs>
</svg>
