<svg width="428" height="507" viewBox="0 0 428 507" fill="none" xmlns="http://www.w3.org/2000/svg">
<rect width="428" height="507" rx="10" fill="#222222"/>
<g filter="url(#filter0_dddd_91_973)">
<rect x="96" y="48" width="223" height="40" rx="10" fill="url(#paint0_linear_91_973)"/>
<path d="M153.729 74V72.384C153.985 72.4 154.201 72.3813 154.377 72.328C154.553 72.2693 154.7 72.16 154.817 72C154.94 71.8347 155.046 71.6027 155.137 71.304C155.228 71 155.316 70.6187 155.401 70.16C155.524 69.504 155.625 68.8213 155.705 68.112C155.79 67.3973 155.862 66.696 155.921 66.008C155.98 65.3147 156.025 64.664 156.057 64.056C156.089 63.448 156.116 62.9227 156.137 62.48H163.849V74H161.921V64.288H157.921C157.894 64.6453 157.862 65.0773 157.825 65.584C157.793 66.0853 157.748 66.6293 157.689 67.216C157.636 67.8027 157.566 68.4107 157.481 69.04C157.401 69.6693 157.302 70.288 157.185 70.896C157.078 71.4507 156.95 71.9493 156.801 72.392C156.652 72.8293 156.452 73.192 156.201 73.48C155.956 73.7627 155.633 73.952 155.233 74.048C154.838 74.144 154.337 74.128 153.729 74ZM167.868 74.24C167.244 74.24 166.716 74.1227 166.284 73.888C165.852 73.648 165.524 73.3307 165.3 72.936C165.081 72.5413 164.972 72.1067 164.972 71.632C164.972 71.216 165.041 70.8427 165.18 70.512C165.318 70.176 165.532 69.888 165.82 69.648C166.108 69.4027 166.481 69.2027 166.94 69.048C167.286 68.936 167.692 68.8347 168.156 68.744C168.625 68.6533 169.132 68.5707 169.676 68.496C170.225 68.416 170.798 68.3307 171.396 68.24L170.708 68.632C170.713 68.0347 170.58 67.5947 170.308 67.312C170.036 67.0293 169.577 66.888 168.932 66.888C168.542 66.888 168.166 66.9787 167.804 67.16C167.441 67.3413 167.188 67.6533 167.044 68.096L165.284 67.544C165.497 66.8133 165.902 66.2267 166.5 65.784C167.102 65.3413 167.913 65.12 168.932 65.12C169.7 65.12 170.374 65.2453 170.956 65.496C171.542 65.7467 171.977 66.1573 172.26 66.728C172.414 67.032 172.508 67.344 172.54 67.664C172.572 67.9787 172.588 68.3227 172.588 68.696V74H170.9V72.128L171.18 72.432C170.79 73.056 170.334 73.5147 169.812 73.808C169.294 74.096 168.646 74.24 167.868 74.24ZM168.252 72.704C168.689 72.704 169.062 72.6267 169.372 72.472C169.681 72.3173 169.926 72.128 170.108 71.904C170.294 71.68 170.42 71.4693 170.484 71.272C170.585 71.0267 170.641 70.7467 170.652 70.432C170.668 70.112 170.676 69.8533 170.676 69.656L171.268 69.832C170.686 69.9227 170.188 70.0027 169.772 70.072C169.356 70.1413 168.998 70.208 168.7 70.272C168.401 70.3307 168.137 70.3973 167.908 70.472C167.684 70.552 167.494 70.6453 167.34 70.752C167.185 70.8587 167.065 70.9813 166.98 71.12C166.9 71.2587 166.86 71.4213 166.86 71.608C166.86 71.8213 166.913 72.0107 167.02 72.176C167.126 72.336 167.281 72.464 167.484 72.56C167.692 72.656 167.948 72.704 168.252 72.704ZM174.014 74L174.03 65.36H175.982V69.52L179.142 65.36H181.55L178.198 69.68L181.838 74H179.286L175.982 69.84V74H174.014ZM184.168 74V67.072H181.28V65.36H188.984V67.072H186.096V74H184.168ZM193.519 74.24C192.655 74.24 191.901 74.0453 191.255 73.656C190.61 73.2667 190.109 72.7307 189.751 72.048C189.399 71.36 189.223 70.5707 189.223 69.68C189.223 68.7733 189.405 67.9787 189.767 67.296C190.13 66.6133 190.634 66.08 191.279 65.696C191.925 65.312 192.671 65.12 193.519 65.12C194.389 65.12 195.146 65.3147 195.791 65.704C196.437 66.0933 196.938 66.632 197.295 67.32C197.653 68.0027 197.831 68.7893 197.831 69.68C197.831 70.576 197.65 71.368 197.287 72.056C196.93 72.7387 196.429 73.2747 195.783 73.664C195.138 74.048 194.383 74.24 193.519 74.24ZM193.519 72.432C194.287 72.432 194.858 72.176 195.231 71.664C195.605 71.152 195.791 70.4907 195.791 69.68C195.791 68.8427 195.602 68.176 195.223 67.68C194.845 67.1787 194.277 66.928 193.519 66.928C193.002 66.928 192.575 67.0453 192.239 67.28C191.909 67.5093 191.663 67.832 191.503 68.248C191.343 68.6587 191.263 69.136 191.263 69.68C191.263 70.5173 191.453 71.1867 191.831 71.688C192.215 72.184 192.778 72.432 193.519 72.432ZM201.745 74.24C200.923 74.24 200.174 74.0667 199.497 73.72C198.819 73.3733 198.286 72.8987 197.897 72.296L199.417 71.28C199.726 71.648 200.07 71.9333 200.449 72.136C200.827 72.3333 201.249 72.432 201.713 72.432C202.198 72.432 202.579 72.3253 202.857 72.112C203.134 71.8987 203.273 71.6133 203.273 71.256C203.273 70.9413 203.179 70.72 202.993 70.592C202.806 70.4587 202.561 70.3787 202.257 70.352C201.953 70.3253 201.627 70.312 201.281 70.312H200.641V68.784H201.273C201.758 68.784 202.163 68.728 202.489 68.616C202.819 68.504 202.985 68.256 202.985 67.872C202.985 67.5253 202.857 67.28 202.601 67.136C202.345 66.9867 202.046 66.912 201.705 66.912C201.289 66.912 200.878 67 200.473 67.176C200.067 67.352 199.705 67.5653 199.385 67.816L198.297 66.504C198.777 66.0773 199.313 65.7413 199.905 65.496C200.497 65.2453 201.129 65.12 201.801 65.12C202.355 65.12 202.873 65.216 203.353 65.408C203.838 65.6 204.227 65.888 204.521 66.272C204.819 66.656 204.969 67.1307 204.969 67.696C204.969 68.1013 204.881 68.4827 204.705 68.84C204.534 69.1973 204.259 69.536 203.881 69.856L203.857 69.232C204.15 69.3547 204.398 69.5253 204.601 69.744C204.809 69.9627 204.966 70.2187 205.073 70.512C205.185 70.8053 205.241 71.1173 205.241 71.448C205.241 72.0507 205.081 72.56 204.761 72.976C204.441 73.392 204.014 73.7067 203.481 73.92C202.953 74.1333 202.374 74.24 201.745 74.24ZM208.777 74.24C208.153 74.24 207.625 74.1227 207.193 73.888C206.761 73.648 206.433 73.3307 206.209 72.936C205.99 72.5413 205.881 72.1067 205.881 71.632C205.881 71.216 205.95 70.8427 206.089 70.512C206.228 70.176 206.441 69.888 206.729 69.648C207.017 69.4027 207.39 69.2027 207.849 69.048C208.196 68.936 208.601 68.8347 209.065 68.744C209.534 68.6533 210.041 68.5707 210.585 68.496C211.134 68.416 211.708 68.3307 212.305 68.24L211.617 68.632C211.622 68.0347 211.489 67.5947 211.217 67.312C210.945 67.0293 210.486 66.888 209.841 66.888C209.452 66.888 209.076 66.9787 208.713 67.16C208.35 67.3413 208.097 67.6533 207.953 68.096L206.193 67.544C206.406 66.8133 206.812 66.2267 207.409 65.784C208.012 65.3413 208.822 65.12 209.841 65.12C210.609 65.12 211.284 65.2453 211.865 65.496C212.452 65.7467 212.886 66.1573 213.169 66.728C213.324 67.032 213.417 67.344 213.449 67.664C213.481 67.9787 213.497 68.3227 213.497 68.696V74H211.809V72.128L212.089 72.432C211.7 73.056 211.244 73.5147 210.721 73.808C210.204 74.096 209.556 74.24 208.777 74.24ZM209.161 72.704C209.598 72.704 209.972 72.6267 210.281 72.472C210.59 72.3173 210.836 72.128 211.017 71.904C211.204 71.68 211.329 71.4693 211.393 71.272C211.494 71.0267 211.55 70.7467 211.561 70.432C211.577 70.112 211.585 69.8533 211.585 69.656L212.177 69.832C211.596 69.9227 211.097 70.0027 210.681 70.072C210.265 70.1413 209.908 70.208 209.609 70.272C209.31 70.3307 209.046 70.3973 208.817 70.472C208.593 70.552 208.404 70.6453 208.249 70.752C208.094 70.8587 207.974 70.9813 207.889 71.12C207.809 71.2587 207.769 71.4213 207.769 71.608C207.769 71.8213 207.822 72.0107 207.929 72.176C208.036 72.336 208.19 72.464 208.393 72.56C208.601 72.656 208.857 72.704 209.161 72.704ZM219.613 75.905C219.223 75.4517 218.889 74.9383 218.613 74.365C218.336 73.795 218.126 73.1967 217.983 72.57C217.839 71.9433 217.773 71.32 217.783 70.7C217.773 70.08 217.839 69.4567 217.983 68.83C218.126 68.2 218.336 67.6 218.613 67.03C218.889 66.46 219.223 65.9483 219.613 65.495L220.503 66.155C220.103 66.6383 219.783 67.1267 219.543 67.62C219.306 68.1133 219.136 68.6167 219.033 69.13C218.929 69.64 218.876 70.1633 218.873 70.7C218.876 71.2367 218.929 71.7617 219.033 72.275C219.139 72.785 219.311 73.2883 219.548 73.785C219.784 74.2783 220.103 74.7633 220.503 75.24L219.613 75.905ZM222.569 74V69.67H220.764V68.6H225.579V69.67H223.774V74H222.569ZM228.722 74.15C228.195 74.15 227.753 74.025 227.397 73.775C227.04 73.525 226.772 73.185 226.592 72.755C226.412 72.3217 226.322 71.8367 226.322 71.3C226.322 70.7567 226.412 70.27 226.592 69.84C226.772 69.41 227.035 69.0717 227.382 68.825C227.732 68.575 228.163 68.45 228.677 68.45C229.187 68.45 229.628 68.575 230.002 68.825C230.378 69.0717 230.67 69.41 230.877 69.84C231.083 70.2667 231.187 70.7533 231.187 71.3C231.187 71.84 231.085 72.325 230.882 72.755C230.678 73.185 230.392 73.525 230.022 73.775C229.652 74.025 229.218 74.15 228.722 74.15ZM226.117 76.4V68.6H227.182V72.39H227.332V76.4H226.117ZM228.537 73.07C228.85 73.07 229.108 72.9917 229.312 72.835C229.515 72.6783 229.665 72.4667 229.762 72.2C229.862 71.93 229.912 71.63 229.912 71.3C229.912 70.9733 229.862 70.6767 229.762 70.41C229.662 70.14 229.507 69.9267 229.297 69.77C229.087 69.61 228.82 69.53 228.497 69.53C228.19 69.53 227.94 69.605 227.747 69.755C227.553 69.9017 227.41 70.1083 227.317 70.375C227.227 70.6383 227.182 70.9467 227.182 71.3C227.182 71.65 227.227 71.9583 227.317 72.225C227.41 72.4917 227.555 72.7 227.752 72.85C227.952 72.9967 228.213 73.07 228.537 73.07ZM236.569 68.6V74H235.414V70.475L232.844 74H231.879V68.6H233.034V72.035L235.614 68.6H236.569ZM237.573 74V68.6H241.423V69.73H238.778V74H237.573ZM241.977 74V68.6H245.827V69.73H243.182V74H241.977ZM248.837 74.15C248.29 74.15 247.81 74.0317 247.397 73.795C246.984 73.5583 246.66 73.23 246.427 72.81C246.197 72.39 246.082 71.9067 246.082 71.36C246.082 70.77 246.195 70.2583 246.422 69.825C246.649 69.3883 246.964 69.05 247.367 68.81C247.77 68.57 248.237 68.45 248.767 68.45C249.327 68.45 249.802 68.5817 250.192 68.845C250.585 69.105 250.877 69.4733 251.067 69.95C251.257 70.4267 251.329 70.9883 251.282 71.635H250.087V71.195C250.084 70.6083 249.98 70.18 249.777 69.91C249.574 69.64 249.254 69.505 248.817 69.505C248.324 69.505 247.957 69.6583 247.717 69.965C247.477 70.2683 247.357 70.7133 247.357 71.3C247.357 71.8467 247.477 72.27 247.717 72.57C247.957 72.87 248.307 73.02 248.767 73.02C249.064 73.02 249.319 72.955 249.532 72.825C249.749 72.6917 249.915 72.5 250.032 72.25L251.222 72.61C251.015 73.0967 250.695 73.475 250.262 73.745C249.832 74.015 249.357 74.15 248.837 74.15ZM246.977 71.635V70.725H250.692V71.635H246.977ZM254.593 74.15C254.066 74.15 253.624 74.025 253.268 73.775C252.911 73.525 252.643 73.185 252.463 72.755C252.283 72.3217 252.193 71.8367 252.193 71.3C252.193 70.7567 252.283 70.27 252.463 69.84C252.643 69.41 252.906 69.0717 253.253 68.825C253.603 68.575 254.034 68.45 254.548 68.45C255.058 68.45 255.499 68.575 255.873 68.825C256.249 69.0717 256.541 69.41 256.748 69.84C256.954 70.2667 257.058 70.7533 257.058 71.3C257.058 71.84 256.956 72.325 256.753 72.755C256.549 73.185 256.263 73.525 255.893 73.775C255.523 74.025 255.089 74.15 254.593 74.15ZM251.988 76.4V68.6H253.053V72.39H253.203V76.4H251.988ZM254.408 73.07C254.721 73.07 254.979 72.9917 255.183 72.835C255.386 72.6783 255.536 72.4667 255.633 72.2C255.733 71.93 255.783 71.63 255.783 71.3C255.783 70.9733 255.733 70.6767 255.633 70.41C255.533 70.14 255.378 69.9267 255.168 69.77C254.958 69.61 254.691 69.53 254.368 69.53C254.061 69.53 253.811 69.605 253.618 69.755C253.424 69.9017 253.281 70.1083 253.188 70.375C253.098 70.6383 253.053 70.9467 253.053 71.3C253.053 71.65 253.098 71.9583 253.188 72.225C253.281 72.4917 253.426 72.7 253.623 72.85C253.823 72.9967 254.084 73.07 254.408 73.07ZM258.36 75.905L257.47 75.24C257.87 74.7633 258.188 74.2783 258.425 73.785C258.661 73.2883 258.831 72.785 258.935 72.275C259.041 71.7617 259.096 71.2367 259.1 70.7C259.096 70.1633 259.043 69.64 258.94 69.13C258.836 68.6167 258.665 68.1133 258.425 67.62C258.188 67.1267 257.87 66.6383 257.47 66.155L258.36 65.495C258.75 65.9483 259.083 66.46 259.36 67.03C259.636 67.6 259.846 68.2 259.99 68.83C260.133 69.4567 260.2 70.08 260.19 70.7C260.2 71.32 260.133 71.9433 259.99 72.57C259.846 73.1967 259.636 73.795 259.36 74.365C259.083 74.9383 258.75 75.4517 258.36 75.905Z" fill="black"/>
</g>
<rect x="46" y="48" width="40" height="40" rx="10" fill="url(#paint1_linear_91_973)"/>
<path d="M68.503 68.641L73.2685 73.4065L70.4065 76.2685L65.641 71.503L60.862 76.282L58 73.42L62.779 68.641L58 63.862L60.862 61L65.641 65.779L70.42 61.0135L73.282 63.8755L68.503 68.641Z" fill="black"/>
<g filter="url(#filter1_dddd_91_973)">
<rect x="96" y="103" width="223" height="40" rx="10" fill="#323232"/>
<path d="M179.25 129V127.472C178.658 127.573 178.085 127.547 177.53 127.392C176.981 127.232 176.487 126.957 176.05 126.568C175.618 126.173 175.274 125.669 175.018 125.056C174.762 124.437 174.634 123.715 174.634 122.888C174.634 122.061 174.762 121.339 175.018 120.72C175.274 120.101 175.618 119.595 176.05 119.2C176.487 118.8 176.981 118.523 177.53 118.368C178.085 118.208 178.658 118.179 179.25 118.28V117.48H180.418V118.28C181.01 118.179 181.583 118.208 182.138 118.368C182.693 118.523 183.186 118.8 183.618 119.2C184.055 119.595 184.402 120.101 184.658 120.72C184.914 121.339 185.042 122.061 185.042 122.888C185.042 123.715 184.914 124.437 184.658 125.056C184.402 125.669 184.055 126.173 183.618 126.568C183.186 126.957 182.693 127.232 182.138 127.392C181.583 127.547 181.01 127.573 180.418 127.472V129H179.25ZM179.25 126.352V119.376C178.743 119.301 178.279 119.339 177.858 119.488C177.442 119.632 177.085 119.864 176.786 120.184C176.487 120.504 176.255 120.896 176.09 121.36C175.93 121.819 175.85 122.328 175.85 122.888C175.85 123.448 175.93 123.957 176.09 124.416C176.255 124.869 176.487 125.253 176.786 125.568C177.085 125.883 177.442 126.109 177.858 126.248C178.279 126.387 178.743 126.421 179.25 126.352ZM180.418 126.352C180.93 126.421 181.394 126.387 181.81 126.248C182.226 126.104 182.583 125.877 182.882 125.568C183.186 125.253 183.418 124.869 183.578 124.416C183.743 123.963 183.826 123.461 183.826 122.912C183.826 122.357 183.743 121.851 183.578 121.392C183.418 120.928 183.186 120.533 182.882 120.208C182.583 119.883 182.226 119.645 181.81 119.496C181.394 119.341 180.93 119.301 180.418 119.376V126.352ZM189.889 129.24C189.094 129.24 188.422 129.04 187.873 128.64C187.324 128.235 186.908 127.688 186.625 127C186.342 126.307 186.201 125.531 186.201 124.672C186.201 123.797 186.342 123.019 186.625 122.336C186.913 121.648 187.334 121.107 187.889 120.712C188.444 120.317 189.126 120.12 189.937 120.12C190.726 120.12 191.404 120.32 191.969 120.72C192.534 121.12 192.966 121.664 193.265 122.352C193.569 123.04 193.721 123.813 193.721 124.672C193.721 125.536 193.569 126.312 193.265 127C192.961 127.688 192.524 128.235 191.953 128.64C191.382 129.04 190.694 129.24 189.889 129.24ZM186.001 132.84V120.36H187.057V126.864H187.185V132.84H186.001ZM189.769 128.144C190.372 128.144 190.873 127.992 191.273 127.688C191.673 127.384 191.972 126.971 192.169 126.448C192.372 125.92 192.473 125.328 192.473 124.672C192.473 124.021 192.374 123.435 192.177 122.912C191.98 122.389 191.678 121.976 191.273 121.672C190.873 121.368 190.364 121.216 189.745 121.216C189.142 121.216 188.641 121.363 188.241 121.656C187.846 121.949 187.55 122.357 187.353 122.88C187.156 123.397 187.057 123.995 187.057 124.672C187.057 125.339 187.156 125.936 187.353 126.464C187.55 126.987 187.849 127.397 188.249 127.696C188.649 127.995 189.156 128.144 189.769 128.144ZM195.757 132.84L197.429 128.304L197.453 129.648L193.669 120.36H194.917L198.021 128.128H197.509L200.373 120.36H201.573L196.933 132.84H195.757ZM202.315 129L202.323 120.36H203.507V124.52L207.363 120.36H208.931L204.883 124.68L209.459 129H207.747L203.507 124.84V129H202.315ZM211.964 129V121.448H208.9V120.36H216.204V121.448H213.14V129H211.964ZM220.541 129.24C219.683 129.24 218.949 129.045 218.341 128.656C217.733 128.267 217.267 127.728 216.941 127.04C216.616 126.352 216.453 125.563 216.453 124.672C216.453 123.765 216.619 122.971 216.949 122.288C217.28 121.605 217.749 121.075 218.357 120.696C218.971 120.312 219.699 120.12 220.541 120.12C221.405 120.12 222.141 120.315 222.749 120.704C223.363 121.088 223.829 121.624 224.149 122.312C224.475 122.995 224.637 123.781 224.637 124.672C224.637 125.579 224.475 126.376 224.149 127.064C223.824 127.747 223.355 128.28 222.741 128.664C222.128 129.048 221.395 129.24 220.541 129.24ZM220.541 128.112C221.501 128.112 222.216 127.795 222.685 127.16C223.155 126.52 223.389 125.691 223.389 124.672C223.389 123.627 223.152 122.795 222.677 122.176C222.208 121.557 221.496 121.248 220.541 121.248C219.896 121.248 219.363 121.395 218.941 121.688C218.525 121.976 218.213 122.379 218.005 122.896C217.803 123.408 217.701 124 217.701 124.672C217.701 125.712 217.941 126.547 218.421 127.176C218.901 127.8 219.608 128.112 220.541 128.112ZM228.718 129.24C227.849 129.24 227.089 129.051 226.438 128.672C225.793 128.288 225.283 127.757 224.91 127.08L225.854 126.48C226.169 127.013 226.561 127.419 227.03 127.696C227.499 127.973 228.038 128.112 228.646 128.112C229.281 128.112 229.79 127.965 230.174 127.672C230.558 127.379 230.75 126.976 230.75 126.464C230.75 126.112 230.667 125.832 230.502 125.624C230.342 125.416 230.097 125.267 229.766 125.176C229.441 125.085 229.033 125.04 228.542 125.04H227.518V124.032H228.526C229.123 124.032 229.603 123.925 229.966 123.712C230.334 123.493 230.518 123.152 230.518 122.688C230.518 122.197 230.334 121.835 229.966 121.6C229.603 121.36 229.169 121.24 228.662 121.24C228.15 121.24 227.665 121.347 227.206 121.56C226.753 121.768 226.371 122.037 226.062 122.368L225.31 121.576C225.742 121.101 226.246 120.741 226.822 120.496C227.403 120.245 228.046 120.12 228.75 120.12C229.305 120.12 229.806 120.219 230.254 120.416C230.707 120.608 231.065 120.891 231.326 121.264C231.593 121.637 231.726 122.085 231.726 122.608C231.726 123.099 231.606 123.523 231.366 123.88C231.131 124.237 230.798 124.533 230.366 124.768L230.302 124.328C230.675 124.397 230.985 124.547 231.23 124.776C231.475 125.005 231.657 125.28 231.774 125.6C231.891 125.92 231.95 126.245 231.95 126.576C231.95 127.125 231.806 127.6 231.518 128C231.235 128.395 230.849 128.701 230.358 128.92C229.873 129.133 229.326 129.24 228.718 129.24ZM235.547 129.24C234.897 129.24 234.35 129.123 233.907 128.888C233.47 128.653 233.142 128.341 232.923 127.952C232.705 127.563 232.595 127.139 232.595 126.68C232.595 126.211 232.689 125.811 232.875 125.48C233.067 125.144 233.326 124.869 233.651 124.656C233.982 124.443 234.363 124.28 234.795 124.168C235.233 124.061 235.715 123.968 236.243 123.888C236.777 123.803 237.297 123.731 237.803 123.672C238.315 123.608 238.763 123.547 239.147 123.488L238.731 123.744C238.747 122.891 238.582 122.259 238.235 121.848C237.889 121.437 237.286 121.232 236.427 121.232C235.835 121.232 235.334 121.365 234.923 121.632C234.518 121.899 234.233 122.32 234.067 122.896L232.923 122.56C233.121 121.787 233.518 121.187 234.115 120.76C234.713 120.333 235.489 120.12 236.443 120.12C237.233 120.12 237.902 120.269 238.451 120.568C239.006 120.861 239.398 121.288 239.627 121.848C239.734 122.099 239.803 122.379 239.835 122.688C239.867 122.997 239.883 123.312 239.883 123.632V129H238.835V126.832L239.139 126.96C238.846 127.701 238.39 128.267 237.771 128.656C237.153 129.045 236.411 129.24 235.547 129.24ZM235.683 128.224C236.233 128.224 236.713 128.125 237.123 127.928C237.534 127.731 237.865 127.461 238.115 127.12C238.366 126.773 238.529 126.384 238.603 125.952C238.667 125.675 238.702 125.371 238.707 125.04C238.713 124.704 238.715 124.453 238.715 124.288L239.163 124.52C238.763 124.573 238.329 124.627 237.859 124.68C237.395 124.733 236.937 124.795 236.483 124.864C236.035 124.933 235.63 125.016 235.267 125.112C235.022 125.181 234.785 125.28 234.555 125.408C234.326 125.531 234.137 125.696 233.987 125.904C233.843 126.112 233.771 126.371 233.771 126.68C233.771 126.931 233.833 127.173 233.955 127.408C234.083 127.643 234.286 127.837 234.563 127.992C234.846 128.147 235.219 128.224 235.683 128.224Z" fill="#C4C4C4"/>
</g>
<rect x="46" y="103" width="40" height="40" rx="10" fill="#4E4E4E"/>
<g filter="url(#filter2_dddd_91_973)">
<rect x="96" y="158" width="223" height="40" rx="10" fill="url(#paint2_linear_91_973)"/>
<path d="M172.368 184V172.48H173.448L177.976 182.168L182.48 172.48H183.576V183.992H182.456V175.104L178.352 184H177.592L173.496 175.104V184H172.368ZM187.653 184.24C187.002 184.24 186.456 184.123 186.013 183.888C185.576 183.653 185.248 183.341 185.029 182.952C184.81 182.563 184.701 182.139 184.701 181.68C184.701 181.211 184.794 180.811 184.981 180.48C185.173 180.144 185.432 179.869 185.757 179.656C186.088 179.443 186.469 179.28 186.901 179.168C187.338 179.061 187.821 178.968 188.349 178.888C188.882 178.803 189.402 178.731 189.909 178.672C190.421 178.608 190.869 178.547 191.253 178.488L190.837 178.744C190.853 177.891 190.688 177.259 190.341 176.848C189.994 176.437 189.392 176.232 188.533 176.232C187.941 176.232 187.44 176.365 187.029 176.632C186.624 176.899 186.338 177.32 186.173 177.896L185.029 177.56C185.226 176.787 185.624 176.187 186.221 175.76C186.818 175.333 187.594 175.12 188.549 175.12C189.338 175.12 190.008 175.269 190.557 175.568C191.112 175.861 191.504 176.288 191.733 176.848C191.84 177.099 191.909 177.379 191.941 177.688C191.973 177.997 191.989 178.312 191.989 178.632V184H190.941V181.832L191.245 181.96C190.952 182.701 190.496 183.267 189.877 183.656C189.258 184.045 188.517 184.24 187.653 184.24ZM187.789 183.224C188.338 183.224 188.818 183.125 189.229 182.928C189.64 182.731 189.97 182.461 190.221 182.12C190.472 181.773 190.634 181.384 190.709 180.952C190.773 180.675 190.808 180.371 190.813 180.04C190.818 179.704 190.821 179.453 190.821 179.288L191.269 179.52C190.869 179.573 190.434 179.627 189.965 179.68C189.501 179.733 189.042 179.795 188.589 179.864C188.141 179.933 187.736 180.016 187.373 180.112C187.128 180.181 186.89 180.28 186.661 180.408C186.432 180.531 186.242 180.696 186.093 180.904C185.949 181.112 185.877 181.371 185.877 181.68C185.877 181.931 185.938 182.173 186.061 182.408C186.189 182.643 186.392 182.837 186.669 182.992C186.952 183.147 187.325 183.224 187.789 183.224ZM193.424 184V175.36H194.6V179.112H199.472V175.36H200.648V184H199.472V180.24H194.6V184H193.424ZM202.237 184V175.36H203.413V179.112H208.285V175.36H209.461V184H208.285V180.24H203.413V184H202.237ZM217.922 175.36V184H216.778V177.272L212.042 184H211.05V175.36H212.194V182.032L216.938 175.36H217.922ZM221.871 184V176.448H218.807V175.36H226.111V176.448H223.047V184H221.871ZM230.448 184.24C229.59 184.24 228.856 184.045 228.248 183.656C227.64 183.267 227.174 182.728 226.848 182.04C226.523 181.352 226.36 180.563 226.36 179.672C226.36 178.765 226.526 177.971 226.856 177.288C227.187 176.605 227.656 176.075 228.264 175.696C228.878 175.312 229.606 175.12 230.448 175.12C231.312 175.12 232.048 175.315 232.656 175.704C233.27 176.088 233.736 176.624 234.056 177.312C234.382 177.995 234.544 178.781 234.544 179.672C234.544 180.579 234.382 181.376 234.056 182.064C233.731 182.747 233.262 183.28 232.648 183.664C232.035 184.048 231.302 184.24 230.448 184.24ZM230.448 183.112C231.408 183.112 232.123 182.795 232.592 182.16C233.062 181.52 233.296 180.691 233.296 179.672C233.296 178.627 233.059 177.795 232.584 177.176C232.115 176.557 231.403 176.248 230.448 176.248C229.803 176.248 229.27 176.395 228.848 176.688C228.432 176.976 228.12 177.379 227.912 177.896C227.71 178.408 227.608 179 227.608 179.672C227.608 180.712 227.848 181.547 228.328 182.176C228.808 182.8 229.515 183.112 230.448 183.112ZM234.869 184V182.968C235.189 183.027 235.432 183.013 235.597 182.928C235.768 182.837 235.893 182.688 235.973 182.48C236.053 182.267 236.12 182.003 236.173 181.688C236.258 181.165 236.336 180.589 236.405 179.96C236.474 179.331 236.536 178.637 236.589 177.88C236.648 177.117 236.706 176.277 236.765 175.36H242.637V184H241.469V176.488H237.853C237.816 177.053 237.773 177.616 237.725 178.176C237.677 178.736 237.626 179.275 237.573 179.792C237.525 180.304 237.472 180.776 237.413 181.208C237.354 181.64 237.293 182.013 237.229 182.328C237.133 182.803 237.005 183.181 236.845 183.464C236.69 183.747 236.458 183.933 236.149 184.024C235.84 184.115 235.413 184.107 234.869 184Z" fill="white"/>
</g>
<rect x="46" y="158" width="40" height="40" rx="10" fill="#325D45"/>
<rect x="46" y="158" width="40" height="40" rx="10" fill="url(#paint3_linear_91_973)"/>
<circle cx="66" cy="178" r="5" fill="white"/>
<g filter="url(#filter3_dddd_91_973)">
<rect x="96" y="213" width="223" height="40" rx="10" fill="#323232"/>
<path d="M177.797 239.24C176.651 239.24 175.683 238.987 174.893 238.48C174.104 237.968 173.507 237.261 173.101 236.36C172.696 235.459 172.493 234.419 172.493 233.24C172.493 232.061 172.696 231.021 173.101 230.12C173.507 229.219 174.104 228.515 174.893 228.008C175.683 227.496 176.651 227.24 177.797 227.24C179.136 227.24 180.229 227.584 181.077 228.272C181.925 228.955 182.507 229.872 182.821 231.024L181.621 231.336C181.376 230.424 180.936 229.701 180.301 229.168C179.667 228.635 178.832 228.368 177.797 228.368C176.896 228.368 176.147 228.573 175.549 228.984C174.952 229.395 174.501 229.968 174.197 230.704C173.899 231.435 173.744 232.28 173.733 233.24C173.728 234.2 173.875 235.045 174.173 235.776C174.477 236.507 174.931 237.08 175.533 237.496C176.141 237.907 176.896 238.112 177.797 238.112C178.832 238.112 179.667 237.845 180.301 237.312C180.936 236.773 181.376 236.051 181.621 235.144L182.821 235.456C182.507 236.608 181.925 237.528 181.077 238.216C180.229 238.899 179.136 239.24 177.797 239.24ZM187.555 239.24C186.696 239.24 185.963 239.045 185.355 238.656C184.747 238.267 184.28 237.728 183.955 237.04C183.629 236.352 183.467 235.563 183.467 234.672C183.467 233.765 183.632 232.971 183.963 232.288C184.293 231.605 184.763 231.075 185.371 230.696C185.984 230.312 186.712 230.12 187.555 230.12C188.419 230.12 189.155 230.315 189.763 230.704C190.376 231.088 190.843 231.624 191.163 232.312C191.488 232.995 191.651 233.781 191.651 234.672C191.651 235.579 191.488 236.376 191.163 237.064C190.837 237.747 190.368 238.28 189.755 238.664C189.141 239.048 188.408 239.24 187.555 239.24ZM187.555 238.112C188.515 238.112 189.229 237.795 189.699 237.16C190.168 236.52 190.403 235.691 190.403 234.672C190.403 233.627 190.165 232.795 189.691 232.176C189.221 231.557 188.509 231.248 187.555 231.248C186.909 231.248 186.376 231.395 185.955 231.688C185.539 231.976 185.227 232.379 185.019 232.896C184.816 233.408 184.715 234 184.715 234.672C184.715 235.712 184.955 236.547 185.435 237.176C185.915 237.8 186.621 238.112 187.555 238.112ZM196.655 239.24C195.861 239.24 195.189 239.04 194.639 238.64C194.09 238.235 193.674 237.688 193.391 237C193.109 236.307 192.967 235.531 192.967 234.672C192.967 233.797 193.109 233.019 193.391 232.336C193.679 231.648 194.101 231.107 194.655 230.712C195.21 230.317 195.893 230.12 196.703 230.12C197.493 230.12 198.17 230.32 198.735 230.72C199.301 231.12 199.733 231.664 200.031 232.352C200.335 233.04 200.487 233.813 200.487 234.672C200.487 235.536 200.335 236.312 200.031 237C199.727 237.688 199.29 238.235 198.719 238.64C198.149 239.04 197.461 239.24 196.655 239.24ZM192.767 242.84V230.36H193.823V236.864H193.951V242.84H192.767ZM196.535 238.144C197.138 238.144 197.639 237.992 198.039 237.688C198.439 237.384 198.738 236.971 198.935 236.448C199.138 235.92 199.239 235.328 199.239 234.672C199.239 234.021 199.141 233.435 198.943 232.912C198.746 232.389 198.445 231.976 198.039 231.672C197.639 231.368 197.13 231.216 196.511 231.216C195.909 231.216 195.407 231.363 195.007 231.656C194.613 231.949 194.317 232.357 194.119 232.88C193.922 233.397 193.823 233.995 193.823 234.672C193.823 235.339 193.922 235.936 194.119 236.464C194.317 236.987 194.615 237.397 195.015 237.696C195.415 237.995 195.922 238.144 196.535 238.144ZM205.068 239.248C204.263 239.243 203.572 239.067 202.996 238.72C202.42 238.373 201.972 237.856 201.652 237.168C201.337 236.48 201.167 235.621 201.14 234.592C201.124 234.139 201.135 233.645 201.172 233.112C201.209 232.573 201.268 232.061 201.348 231.576C201.428 231.091 201.524 230.696 201.636 230.392C201.775 229.997 201.972 229.629 202.228 229.288C202.489 228.941 202.791 228.659 203.132 228.44C203.463 228.216 203.836 228.043 204.252 227.92C204.673 227.792 205.111 227.693 205.564 227.624C206.023 227.555 206.476 227.493 206.924 227.44C207.377 227.387 207.796 227.32 208.18 227.24L208.308 228.304C208.015 228.363 207.668 228.416 207.268 228.464C206.868 228.512 206.449 228.571 206.012 228.64C205.575 228.704 205.156 228.792 204.756 228.904C204.356 229.016 204.015 229.163 203.732 229.344C203.3 229.605 202.967 230 202.732 230.528C202.503 231.056 202.361 231.661 202.308 232.344C202.639 231.827 203.076 231.437 203.62 231.176C204.169 230.915 204.764 230.784 205.404 230.784C206.183 230.784 206.852 230.963 207.412 231.32C207.977 231.677 208.412 232.173 208.716 232.808C209.02 233.443 209.172 234.171 209.172 234.992C209.172 235.851 209.004 236.6 208.668 237.24C208.337 237.88 207.865 238.376 207.252 238.728C206.639 239.075 205.911 239.248 205.068 239.248ZM205.156 238.12C206.063 238.12 206.751 237.837 207.22 237.272C207.695 236.707 207.932 235.955 207.932 235.016C207.932 234.056 207.687 233.299 207.196 232.744C206.711 232.189 206.025 231.912 205.14 231.912C204.255 231.912 203.575 232.189 203.1 232.744C202.625 233.299 202.388 234.056 202.388 235.016C202.388 235.976 202.625 236.733 203.1 237.288C203.575 237.843 204.26 238.12 205.156 238.12ZM217.156 230.36V239H216.012V232.272L211.276 239H210.284V230.36H211.428V237.032L216.172 230.36H217.156ZM221.106 239V231.448H218.042V230.36H225.346V231.448H222.282V239H221.106ZM229.683 239.24C228.824 239.24 228.091 239.045 227.483 238.656C226.875 238.267 226.408 237.728 226.083 237.04C225.757 236.352 225.595 235.563 225.595 234.672C225.595 233.765 225.76 232.971 226.091 232.288C226.421 231.605 226.891 231.075 227.499 230.696C228.112 230.312 228.84 230.12 229.683 230.12C230.547 230.12 231.283 230.315 231.891 230.704C232.504 231.088 232.971 231.624 233.291 232.312C233.616 232.995 233.779 233.781 233.779 234.672C233.779 235.579 233.616 236.376 233.291 237.064C232.965 237.747 232.496 238.28 231.883 238.664C231.269 239.048 230.536 239.24 229.683 239.24ZM229.683 238.112C230.643 238.112 231.357 237.795 231.827 237.16C232.296 236.52 232.531 235.691 232.531 234.672C232.531 233.627 232.293 232.795 231.819 232.176C231.349 231.557 230.637 231.248 229.683 231.248C229.037 231.248 228.504 231.395 228.083 231.688C227.667 231.976 227.355 232.379 227.147 232.896C226.944 233.408 226.843 234 226.843 234.672C226.843 235.712 227.083 236.547 227.563 237.176C228.043 237.8 228.749 238.112 229.683 238.112ZM234.103 239V237.968C234.423 238.027 234.666 238.013 234.831 237.928C235.002 237.837 235.127 237.688 235.207 237.48C235.287 237.267 235.354 237.003 235.407 236.688C235.493 236.165 235.57 235.589 235.639 234.96C235.709 234.331 235.77 233.637 235.823 232.88C235.882 232.117 235.941 231.277 235.999 230.36H241.871V239H240.703V231.488H237.087C237.05 232.053 237.007 232.616 236.959 233.176C236.911 233.736 236.861 234.275 236.807 234.792C236.759 235.304 236.706 235.776 236.647 236.208C236.589 236.64 236.527 237.013 236.463 237.328C236.367 237.803 236.239 238.181 236.079 238.464C235.925 238.747 235.693 238.933 235.383 239.024C235.074 239.115 234.647 239.107 234.103 239Z" fill="#C4C4C4"/>
</g>
<rect x="46" y="213" width="40" height="40" rx="10" fill="#4E4E4E"/>
<g filter="url(#filter4_dddd_91_973)">
<rect x="96" y="268" width="223" height="40" rx="10" fill="url(#paint4_linear_91_973)"/>
<path d="M134.478 294V282.48H141.918V284.288H136.406V294H134.478ZM147.428 294.24C146.276 294.24 145.29 293.989 144.468 293.488C143.647 292.981 143.015 292.277 142.572 291.376C142.135 290.475 141.916 289.429 141.916 288.24C141.916 287.051 142.135 286.005 142.572 285.104C143.015 284.203 143.647 283.501 144.468 283C145.29 282.493 146.276 282.24 147.428 282.24C148.58 282.24 149.567 282.493 150.388 283C151.215 283.501 151.847 284.203 152.284 285.104C152.727 286.005 152.948 287.051 152.948 288.24C152.948 289.429 152.727 290.475 152.284 291.376C151.847 292.277 151.215 292.981 150.388 293.488C149.567 293.989 148.58 294.24 147.428 294.24ZM147.428 292.424C148.202 292.429 148.844 292.259 149.356 291.912C149.874 291.565 150.26 291.077 150.516 290.448C150.778 289.819 150.908 289.083 150.908 288.24C150.908 287.397 150.778 286.667 150.516 286.048C150.26 285.424 149.874 284.939 149.356 284.592C148.844 284.245 148.202 284.067 147.428 284.056C146.655 284.051 146.012 284.221 145.5 284.568C144.988 284.915 144.602 285.403 144.34 286.032C144.084 286.661 143.956 287.397 143.956 288.24C143.956 289.083 144.084 289.816 144.34 290.44C144.596 291.059 144.98 291.541 145.492 291.888C146.01 292.235 146.655 292.413 147.428 292.424ZM158.773 294.24C157.621 294.24 156.634 293.989 155.813 293.488C154.992 292.981 154.36 292.277 153.917 291.376C153.48 290.475 153.261 289.429 153.261 288.24C153.261 287.051 153.48 286.005 153.917 285.104C154.36 284.203 154.992 283.501 155.813 283C156.634 282.493 157.621 282.24 158.773 282.24C160.101 282.24 161.208 282.573 162.093 283.24C162.978 283.901 163.6 284.795 163.957 285.92L162.013 286.456C161.789 285.704 161.408 285.117 160.869 284.696C160.33 284.269 159.632 284.056 158.773 284.056C158 284.056 157.354 284.229 156.837 284.576C156.325 284.923 155.938 285.411 155.677 286.04C155.421 286.664 155.29 287.397 155.285 288.24C155.285 289.083 155.413 289.819 155.669 290.448C155.93 291.072 156.32 291.557 156.837 291.904C157.354 292.251 158 292.424 158.773 292.424C159.632 292.424 160.33 292.211 160.869 291.784C161.408 291.357 161.789 290.771 162.013 290.024L163.957 290.56C163.6 291.685 162.978 292.581 162.093 293.248C161.208 293.909 160.101 294.24 158.773 294.24ZM169.746 295.905C169.356 295.452 169.023 294.938 168.746 294.365C168.47 293.795 168.26 293.197 168.116 292.57C167.973 291.943 167.906 291.32 167.916 290.7C167.906 290.08 167.973 289.457 168.116 288.83C168.26 288.2 168.47 287.6 168.746 287.03C169.023 286.46 169.356 285.948 169.746 285.495L170.636 286.155C170.236 286.638 169.916 287.127 169.676 287.62C169.44 288.113 169.27 288.617 169.166 289.13C169.063 289.64 169.01 290.163 169.006 290.7C169.01 291.237 169.063 291.762 169.166 292.275C169.273 292.785 169.445 293.288 169.681 293.785C169.918 294.278 170.236 294.763 170.636 295.24L169.746 295.905ZM171.338 294V288.6H172.543V290.73H174.968V288.6H176.173V294H174.968V291.86H172.543V294H171.338ZM179.623 294.15C179.077 294.15 178.597 294.032 178.183 293.795C177.77 293.558 177.447 293.23 177.213 292.81C176.983 292.39 176.868 291.907 176.868 291.36C176.868 290.77 176.982 290.258 177.208 289.825C177.435 289.388 177.75 289.05 178.153 288.81C178.557 288.57 179.023 288.45 179.553 288.45C180.113 288.45 180.588 288.582 180.978 288.845C181.372 289.105 181.663 289.473 181.853 289.95C182.043 290.427 182.115 290.988 182.068 291.635H180.873V291.195C180.87 290.608 180.767 290.18 180.563 289.91C180.36 289.64 180.04 289.505 179.603 289.505C179.11 289.505 178.743 289.658 178.503 289.965C178.263 290.268 178.143 290.713 178.143 291.3C178.143 291.847 178.263 292.27 178.503 292.57C178.743 292.87 179.093 293.02 179.553 293.02C179.85 293.02 180.105 292.955 180.318 292.825C180.535 292.692 180.702 292.5 180.818 292.25L182.008 292.61C181.802 293.097 181.482 293.475 181.048 293.745C180.618 294.015 180.143 294.15 179.623 294.15ZM177.763 291.635V290.725H181.478V291.635H177.763ZM187.616 294V292.2H186.651C186.528 292.2 186.373 292.197 186.186 292.19C186.003 292.183 185.831 292.167 185.671 292.14C185.254 292.063 184.909 291.882 184.636 291.595C184.363 291.305 184.226 290.912 184.226 290.415C184.226 289.928 184.356 289.537 184.616 289.24C184.876 288.943 185.214 288.753 185.631 288.67C185.804 288.633 185.983 288.613 186.166 288.61C186.353 288.603 186.508 288.6 186.631 288.6H188.821V294H187.616ZM184.086 294L185.376 291.935H186.631L185.351 294H184.086ZM186.526 291.255H187.616V289.545H186.526C186.463 289.545 186.386 289.548 186.296 289.555C186.206 289.562 186.116 289.577 186.026 289.6C185.929 289.63 185.838 289.682 185.751 289.755C185.664 289.828 185.593 289.92 185.536 290.03C185.479 290.14 185.451 290.265 185.451 290.405C185.451 290.615 185.511 290.79 185.631 290.93C185.754 291.067 185.898 291.158 186.061 291.205C186.141 291.225 186.223 291.238 186.306 291.245C186.393 291.252 186.466 291.255 186.526 291.255ZM189.806 294V288.6H192.261C192.438 288.6 192.603 288.61 192.756 288.63C192.909 288.65 193.041 288.675 193.151 288.705C193.411 288.782 193.641 288.932 193.841 289.155C194.041 289.375 194.141 289.68 194.141 290.07C194.141 290.3 194.104 290.49 194.031 290.64C193.958 290.787 193.861 290.91 193.741 291.01C193.684 291.057 193.626 291.097 193.566 291.13C193.506 291.163 193.446 291.19 193.386 291.21C193.516 291.23 193.639 291.268 193.756 291.325C193.939 291.415 194.093 291.548 194.216 291.725C194.343 291.902 194.406 292.15 194.406 292.47C194.406 292.833 194.318 293.14 194.141 293.39C193.968 293.637 193.713 293.808 193.376 293.905C193.253 293.938 193.111 293.963 192.951 293.98C192.791 293.993 192.628 294 192.461 294H189.806ZM191.026 293.07H192.376C192.446 293.07 192.523 293.063 192.606 293.05C192.689 293.037 192.764 293.018 192.831 292.995C192.951 292.952 193.038 292.875 193.091 292.765C193.148 292.655 193.176 292.54 193.176 292.42C193.176 292.257 193.134 292.127 193.051 292.03C192.971 291.93 192.874 291.863 192.761 291.83C192.694 291.803 192.621 291.788 192.541 291.785C192.464 291.778 192.401 291.775 192.351 291.775H191.026V293.07ZM191.026 290.83H192.026C192.129 290.83 192.229 290.825 192.326 290.815C192.426 290.802 192.509 290.78 192.576 290.75C192.686 290.707 192.766 290.633 192.816 290.53C192.869 290.427 192.896 290.312 192.896 290.185C192.896 290.052 192.866 289.932 192.806 289.825C192.749 289.715 192.658 289.642 192.531 289.605C192.448 289.572 192.346 289.553 192.226 289.55C192.109 289.547 192.034 289.545 192.001 289.545H191.026V290.83ZM194.502 294V292.99C194.699 293.027 194.85 293.023 194.957 292.98C195.064 292.933 195.144 292.847 195.197 292.72C195.25 292.593 195.297 292.425 195.337 292.215C195.39 291.918 195.437 291.577 195.477 291.19C195.52 290.803 195.557 290.39 195.587 289.95C195.62 289.51 195.65 289.06 195.677 288.6H199.652V294H198.452V289.73H196.737C196.72 289.947 196.7 290.19 196.677 290.46C196.654 290.727 196.629 290.997 196.602 291.27C196.575 291.543 196.545 291.803 196.512 292.05C196.482 292.293 196.45 292.502 196.417 292.675C196.34 293.065 196.23 293.373 196.087 293.6C195.947 293.827 195.75 293.972 195.497 294.035C195.244 294.102 194.912 294.09 194.502 294ZM203.887 294V292.2H202.922C202.798 292.2 202.643 292.197 202.457 292.19C202.273 292.183 202.102 292.167 201.942 292.14C201.525 292.063 201.18 291.882 200.907 291.595C200.633 291.305 200.497 290.912 200.497 290.415C200.497 289.928 200.627 289.537 200.887 289.24C201.147 288.943 201.485 288.753 201.902 288.67C202.075 288.633 202.253 288.613 202.437 288.61C202.623 288.603 202.778 288.6 202.902 288.6H205.092V294H203.887ZM200.357 294L201.647 291.935H202.902L201.622 294H200.357ZM202.797 291.255H203.887V289.545H202.797C202.733 289.545 202.657 289.548 202.567 289.555C202.477 289.562 202.387 289.577 202.297 289.6C202.2 289.63 202.108 289.682 202.022 289.755C201.935 289.828 201.863 289.92 201.807 290.03C201.75 290.14 201.722 290.265 201.722 290.405C201.722 290.615 201.782 290.79 201.902 290.93C202.025 291.067 202.168 291.158 202.332 291.205C202.412 291.225 202.493 291.238 202.577 291.245C202.663 291.252 202.737 291.255 202.797 291.255ZM208.542 294.15C207.995 294.15 207.515 294.032 207.102 293.795C206.688 293.558 206.365 293.23 206.132 292.81C205.902 292.39 205.787 291.907 205.787 291.36C205.787 290.77 205.9 290.258 206.127 289.825C206.353 289.388 206.668 289.05 207.072 288.81C207.475 288.57 207.942 288.45 208.472 288.45C209.032 288.45 209.507 288.582 209.897 288.845C210.29 289.105 210.582 289.473 210.772 289.95C210.962 290.427 211.033 290.988 210.987 291.635H209.792V291.195C209.788 290.608 209.685 290.18 209.482 289.91C209.278 289.64 208.958 289.505 208.522 289.505C208.028 289.505 207.662 289.658 207.422 289.965C207.182 290.268 207.062 290.713 207.062 291.3C207.062 291.847 207.182 292.27 207.422 292.57C207.662 292.87 208.012 293.02 208.472 293.02C208.768 293.02 209.023 292.955 209.237 292.825C209.453 292.692 209.62 292.5 209.737 292.25L210.927 292.61C210.72 293.097 210.4 293.475 209.967 293.745C209.537 294.015 209.062 294.15 208.542 294.15ZM206.682 291.635V290.725H210.397V291.635H206.682ZM212.891 294V289.67H211.086V288.6H215.901V289.67H214.096V294H212.891ZM218.696 294.15C218.14 294.15 217.665 294.027 217.271 293.78C216.878 293.53 216.576 293.19 216.366 292.76C216.16 292.33 216.055 291.843 216.051 291.3C216.055 290.747 216.163 290.257 216.376 289.83C216.593 289.4 216.9 289.063 217.296 288.82C217.693 288.573 218.165 288.45 218.711 288.45C219.325 288.45 219.843 288.605 220.266 288.915C220.693 289.222 220.971 289.642 221.101 290.175L219.901 290.5C219.808 290.21 219.653 289.985 219.436 289.825C219.22 289.662 218.973 289.58 218.696 289.58C218.383 289.58 218.125 289.655 217.921 289.805C217.718 289.952 217.568 290.155 217.471 290.415C217.375 290.675 217.326 290.97 217.326 291.3C217.326 291.813 217.441 292.228 217.671 292.545C217.901 292.862 218.243 293.02 218.696 293.02C219.016 293.02 219.268 292.947 219.451 292.8C219.638 292.653 219.778 292.442 219.871 292.165L221.101 292.44C220.935 292.99 220.643 293.413 220.226 293.71C219.81 294.003 219.3 294.15 218.696 294.15ZM224.845 294V292.2H223.88C223.757 292.2 223.602 292.197 223.415 292.19C223.232 292.183 223.06 292.167 222.9 292.14C222.484 292.063 222.139 291.882 221.865 291.595C221.592 291.305 221.455 290.912 221.455 290.415C221.455 289.928 221.585 289.537 221.845 289.24C222.105 288.943 222.444 288.753 222.86 288.67C223.034 288.633 223.212 288.613 223.395 288.61C223.582 288.603 223.737 288.6 223.86 288.6H226.05V294H224.845ZM221.315 294L222.605 291.935H223.86L222.58 294H221.315ZM223.755 291.255H224.845V289.545H223.755C223.692 289.545 223.615 289.548 223.525 289.555C223.435 289.562 223.345 289.577 223.255 289.6C223.159 289.63 223.067 289.682 222.98 289.755C222.894 289.828 222.822 289.92 222.765 290.03C222.709 290.14 222.68 290.265 222.68 290.405C222.68 290.615 222.74 290.79 222.86 290.93C222.984 291.067 223.127 291.158 223.29 291.205C223.37 291.225 223.452 291.238 223.535 291.245C223.622 291.252 223.695 291.255 223.755 291.255ZM230.002 294V289.67H228.197V288.6H233.012V289.67H231.207V294H230.002ZM236.155 294.15C235.628 294.15 235.187 294.025 234.83 293.775C234.473 293.525 234.205 293.185 234.025 292.755C233.845 292.322 233.755 291.837 233.755 291.3C233.755 290.757 233.845 290.27 234.025 289.84C234.205 289.41 234.468 289.072 234.815 288.825C235.165 288.575 235.597 288.45 236.11 288.45C236.62 288.45 237.062 288.575 237.435 288.825C237.812 289.072 238.103 289.41 238.31 289.84C238.517 290.267 238.62 290.753 238.62 291.3C238.62 291.84 238.518 292.325 238.315 292.755C238.112 293.185 237.825 293.525 237.455 293.775C237.085 294.025 236.652 294.15 236.155 294.15ZM233.55 296.4V288.6H234.615V292.39H234.765V296.4H233.55ZM235.97 293.07C236.283 293.07 236.542 292.992 236.745 292.835C236.948 292.678 237.098 292.467 237.195 292.2C237.295 291.93 237.345 291.63 237.345 291.3C237.345 290.973 237.295 290.677 237.195 290.41C237.095 290.14 236.94 289.927 236.73 289.77C236.52 289.61 236.253 289.53 235.93 289.53C235.623 289.53 235.373 289.605 235.18 289.755C234.987 289.902 234.843 290.108 234.75 290.375C234.66 290.638 234.615 290.947 234.615 291.3C234.615 291.65 234.66 291.958 234.75 292.225C234.843 292.492 234.988 292.7 235.185 292.85C235.385 292.997 235.647 293.07 235.97 293.07ZM244.002 288.6V294H242.847V290.475L240.277 294H239.312V288.6H240.467V292.035L243.047 288.6H244.002ZM245.006 294V288.6H248.856V289.73H246.211V294H245.006ZM249.411 294V288.6H253.261V289.73H250.616V294H249.411ZM256.27 294.15C255.724 294.15 255.244 294.032 254.83 293.795C254.417 293.558 254.094 293.23 253.86 292.81C253.63 292.39 253.515 291.907 253.515 291.36C253.515 290.77 253.629 290.258 253.855 289.825C254.082 289.388 254.397 289.05 254.8 288.81C255.204 288.57 255.67 288.45 256.2 288.45C256.76 288.45 257.235 288.582 257.625 288.845C258.019 289.105 258.31 289.473 258.5 289.95C258.69 290.427 258.762 290.988 258.715 291.635H257.52V291.195C257.517 290.608 257.414 290.18 257.21 289.91C257.007 289.64 256.687 289.505 256.25 289.505C255.757 289.505 255.39 289.658 255.15 289.965C254.91 290.268 254.79 290.713 254.79 291.3C254.79 291.847 254.91 292.27 255.15 292.57C255.39 292.87 255.74 293.02 256.2 293.02C256.497 293.02 256.752 292.955 256.965 292.825C257.182 292.692 257.349 292.5 257.465 292.25L258.655 292.61C258.449 293.097 258.129 293.475 257.695 293.745C257.265 294.015 256.79 294.15 256.27 294.15ZM254.41 291.635V290.725H258.125V291.635H254.41ZM262.026 294.15C261.499 294.15 261.058 294.025 260.701 293.775C260.344 293.525 260.076 293.185 259.896 292.755C259.716 292.322 259.626 291.837 259.626 291.3C259.626 290.757 259.716 290.27 259.896 289.84C260.076 289.41 260.339 289.072 260.686 288.825C261.036 288.575 261.468 288.45 261.981 288.45C262.491 288.45 262.933 288.575 263.306 288.825C263.683 289.072 263.974 289.41 264.181 289.84C264.388 290.267 264.491 290.753 264.491 291.3C264.491 291.84 264.389 292.325 264.186 292.755C263.983 293.185 263.696 293.525 263.326 293.775C262.956 294.025 262.523 294.15 262.026 294.15ZM259.421 296.4V288.6H260.486V292.39H260.636V296.4H259.421ZM261.841 293.07C262.154 293.07 262.413 292.992 262.616 292.835C262.819 292.678 262.969 292.467 263.066 292.2C263.166 291.93 263.216 291.63 263.216 291.3C263.216 290.973 263.166 290.677 263.066 290.41C262.966 290.14 262.811 289.927 262.601 289.77C262.391 289.61 262.124 289.53 261.801 289.53C261.494 289.53 261.244 289.605 261.051 289.755C260.858 289.902 260.714 290.108 260.621 290.375C260.531 290.638 260.486 290.947 260.486 291.3C260.486 291.65 260.531 291.958 260.621 292.225C260.714 292.492 260.859 292.7 261.056 292.85C261.256 292.997 261.518 293.07 261.841 293.07ZM267.578 294.15C267.038 294.15 266.566 294.028 266.163 293.785C265.76 293.542 265.446 293.207 265.223 292.78C265.003 292.35 264.893 291.857 264.893 291.3C264.893 290.733 265.006 290.237 265.233 289.81C265.46 289.383 265.775 289.05 266.178 288.81C266.581 288.57 267.048 288.45 267.578 288.45C268.121 288.45 268.595 288.572 268.998 288.815C269.401 289.058 269.715 289.395 269.938 289.825C270.161 290.252 270.273 290.743 270.273 291.3C270.273 291.86 270.16 292.355 269.933 292.785C269.71 293.212 269.396 293.547 268.993 293.79C268.59 294.03 268.118 294.15 267.578 294.15ZM267.578 293.02C268.058 293.02 268.415 292.86 268.648 292.54C268.881 292.22 268.998 291.807 268.998 291.3C268.998 290.777 268.88 290.36 268.643 290.05C268.406 289.737 268.051 289.58 267.578 289.58C267.255 289.58 266.988 289.653 266.778 289.8C266.571 289.943 266.418 290.145 266.318 290.405C266.218 290.662 266.168 290.96 266.168 291.3C266.168 291.823 266.286 292.242 266.523 292.555C266.763 292.865 267.115 293.02 267.578 293.02ZM270.965 294V288.6H271.955L273.89 292.33L275.83 288.6H276.815V294H275.665V291.025L274.13 294H273.655L272.12 291.025V294H270.965ZM278.411 295.905L277.521 295.24C277.921 294.763 278.239 294.278 278.476 293.785C278.713 293.288 278.883 292.785 278.986 292.275C279.093 291.762 279.148 291.237 279.151 290.7C279.148 290.163 279.094 289.64 278.991 289.13C278.888 288.617 278.716 288.113 278.476 287.62C278.239 287.127 277.921 286.638 277.521 286.155L278.411 285.495C278.801 285.948 279.134 286.46 279.411 287.03C279.688 287.6 279.898 288.2 280.041 288.83C280.184 289.457 280.251 290.08 280.241 290.7C280.251 291.32 280.184 291.943 280.041 292.57C279.898 293.197 279.688 293.795 279.411 294.365C279.134 294.938 278.801 295.452 278.411 295.905Z" fill="black"/>
</g>
<rect x="46" y="268" width="40" height="40" rx="10" fill="url(#paint5_linear_91_973)"/>
<path d="M62.3636 291.866L57.5909 287.164L56 288.731L62.3636 295L76 281.567L74.4091 280L62.3636 291.866Z" fill="black"/>
<g filter="url(#filter5_dddd_91_973)">
<rect x="96" y="323" width="223" height="40" rx="10" fill="#323232"/>
<path d="M177.461 349V347.472C176.869 347.573 176.296 347.547 175.741 347.392C175.192 347.232 174.698 346.957 174.261 346.568C173.829 346.173 173.485 345.669 173.229 345.056C172.973 344.437 172.845 343.715 172.845 342.888C172.845 342.061 172.973 341.339 173.229 340.72C173.485 340.101 173.829 339.595 174.261 339.2C174.698 338.8 175.192 338.523 175.741 338.368C176.296 338.208 176.869 338.179 177.461 338.28V337.48H178.629V338.28C179.221 338.179 179.794 338.208 180.349 338.368C180.904 338.523 181.397 338.8 181.829 339.2C182.266 339.595 182.613 340.101 182.869 340.72C183.125 341.339 183.253 342.061 183.253 342.888C183.253 343.715 183.125 344.437 182.869 345.056C182.613 345.669 182.266 346.173 181.829 346.568C181.397 346.957 180.904 347.232 180.349 347.392C179.794 347.547 179.221 347.573 178.629 347.472V349H177.461ZM177.461 346.352V339.376C176.954 339.301 176.49 339.339 176.069 339.488C175.653 339.632 175.296 339.864 174.997 340.184C174.698 340.504 174.466 340.896 174.301 341.36C174.141 341.819 174.061 342.328 174.061 342.888C174.061 343.448 174.141 343.957 174.301 344.416C174.466 344.869 174.698 345.253 174.997 345.568C175.296 345.883 175.653 346.109 176.069 346.248C176.49 346.387 176.954 346.421 177.461 346.352ZM178.629 346.352C179.141 346.421 179.605 346.387 180.021 346.248C180.437 346.104 180.794 345.877 181.093 345.568C181.397 345.253 181.629 344.869 181.789 344.416C181.954 343.963 182.037 343.461 182.037 342.912C182.037 342.357 181.954 341.851 181.789 341.392C181.629 340.928 181.397 340.533 181.093 340.208C180.794 339.883 180.437 339.645 180.021 339.496C179.605 339.341 179.141 339.301 178.629 339.376V346.352ZM188.1 349.24C187.305 349.24 186.633 349.04 186.084 348.64C185.535 348.235 185.119 347.688 184.836 347C184.553 346.307 184.412 345.531 184.412 344.672C184.412 343.797 184.553 343.019 184.836 342.336C185.124 341.648 185.545 341.107 186.1 340.712C186.655 340.317 187.337 340.12 188.148 340.12C188.937 340.12 189.615 340.32 190.18 340.72C190.745 341.12 191.177 341.664 191.476 342.352C191.78 343.04 191.932 343.813 191.932 344.672C191.932 345.536 191.78 346.312 191.476 347C191.172 347.688 190.735 348.235 190.164 348.64C189.593 349.04 188.905 349.24 188.1 349.24ZM184.212 352.84V340.36H185.268V346.864H185.396V352.84H184.212ZM187.98 348.144C188.583 348.144 189.084 347.992 189.484 347.688C189.884 347.384 190.183 346.971 190.38 346.448C190.583 345.92 190.684 345.328 190.684 344.672C190.684 344.021 190.585 343.435 190.388 342.912C190.191 342.389 189.889 341.976 189.484 341.672C189.084 341.368 188.575 341.216 187.956 341.216C187.353 341.216 186.852 341.363 186.452 341.656C186.057 341.949 185.761 342.357 185.564 342.88C185.367 343.397 185.268 343.995 185.268 344.672C185.268 345.339 185.367 345.936 185.564 346.464C185.761 346.987 186.06 347.397 186.46 347.696C186.86 347.995 187.367 348.144 187.98 348.144ZM193.968 352.84L195.64 348.304L195.664 349.648L191.88 340.36H193.128L196.232 348.128H195.72L198.584 340.36H199.784L195.144 352.84H193.968ZM200.526 349L200.534 340.36H201.718V344.52L205.574 340.36H207.142L203.094 344.68L207.67 349H205.958L201.718 344.84V349H200.526ZM210.175 349V341.448H207.111V340.36H214.415V341.448H211.351V349H210.175ZM217.445 349.24C216.794 349.24 216.247 349.123 215.805 348.888C215.367 348.653 215.039 348.341 214.821 347.952C214.602 347.563 214.493 347.139 214.493 346.68C214.493 346.211 214.586 345.811 214.773 345.48C214.965 345.144 215.223 344.869 215.549 344.656C215.879 344.443 216.261 344.28 216.693 344.168C217.13 344.061 217.613 343.968 218.141 343.888C218.674 343.803 219.194 343.731 219.701 343.672C220.213 343.608 220.661 343.547 221.045 343.488L220.629 343.744C220.645 342.891 220.479 342.259 220.133 341.848C219.786 341.437 219.183 341.232 218.325 341.232C217.733 341.232 217.231 341.365 216.821 341.632C216.415 341.899 216.13 342.32 215.965 342.896L214.821 342.56C215.018 341.787 215.415 341.187 216.013 340.76C216.61 340.333 217.386 340.12 218.341 340.12C219.13 340.12 219.799 340.269 220.349 340.568C220.903 340.861 221.295 341.288 221.525 341.848C221.631 342.099 221.701 342.379 221.733 342.688C221.765 342.997 221.781 343.312 221.781 343.632V349H220.733V346.832L221.037 346.96C220.743 347.701 220.287 348.267 219.669 348.656C219.05 349.045 218.309 349.24 217.445 349.24ZM217.581 348.224C218.13 348.224 218.61 348.125 219.021 347.928C219.431 347.731 219.762 347.461 220.013 347.12C220.263 346.773 220.426 346.384 220.501 345.952C220.565 345.675 220.599 345.371 220.605 345.04C220.61 344.704 220.613 344.453 220.613 344.288L221.061 344.52C220.661 344.573 220.226 344.627 219.757 344.68C219.293 344.733 218.834 344.795 218.381 344.864C217.933 344.933 217.527 345.016 217.165 345.112C216.919 345.181 216.682 345.28 216.453 345.408C216.223 345.531 216.034 345.696 215.885 345.904C215.741 346.112 215.669 346.371 215.669 346.68C215.669 346.931 215.73 347.173 215.853 347.408C215.981 347.643 216.183 347.837 216.461 347.992C216.743 348.147 217.117 348.224 217.581 348.224ZM223.215 349V340.36H224.391V344.112H229.263V340.36H230.439V349H229.263V345.24H224.391V349H223.215ZM232.044 349L232.028 340.36H233.212V343.616H234.716C234.967 343.616 235.212 343.621 235.452 343.632C235.692 343.643 235.908 343.664 236.1 343.696C236.527 343.781 236.906 343.925 237.236 344.128C237.567 344.331 237.828 344.611 238.02 344.968C238.212 345.32 238.308 345.765 238.308 346.304C238.308 347.045 238.116 347.629 237.732 348.056C237.348 348.483 236.866 348.76 236.284 348.888C236.066 348.936 235.828 348.968 235.572 348.984C235.316 348.995 235.066 349 234.82 349H232.044ZM233.212 347.992H234.772C234.948 347.992 235.148 347.987 235.372 347.976C235.596 347.965 235.794 347.936 235.964 347.888C236.252 347.808 236.511 347.648 236.74 347.408C236.975 347.163 237.092 346.795 237.092 346.304C237.092 345.819 236.98 345.453 236.756 345.208C236.532 344.957 236.234 344.792 235.86 344.712C235.69 344.675 235.508 344.651 235.316 344.64C235.13 344.629 234.948 344.624 234.772 344.624H233.212V347.992ZM239.34 349V340.36H240.516V349H239.34Z" fill="#C4C4C4"/>
</g>
<rect x="46" y="323" width="40" height="40" rx="10" fill="#4E4E4E"/>
<g filter="url(#filter6_dddd_91_973)">
<rect x="46" y="391" width="163" height="45" rx="10" fill="#4E4E4E"/>
<path d="M106.389 419.225C105.309 419.225 104.389 418.99 103.629 418.52C102.869 418.045 102.286 417.385 101.881 416.54C101.481 415.695 101.281 414.715 101.281 413.6C101.281 412.485 101.481 411.505 101.881 410.66C102.286 409.815 102.869 409.157 103.629 408.687C104.389 408.212 105.309 407.975 106.389 407.975C107.464 407.975 108.381 408.212 109.141 408.687C109.906 409.157 110.489 409.815 110.889 410.66C111.289 411.505 111.489 412.485 111.489 413.6C111.489 414.715 111.289 415.695 110.889 416.54C110.489 417.385 109.906 418.045 109.141 418.52C108.381 418.99 107.464 419.225 106.389 419.225ZM106.389 417.732C107.154 417.742 107.789 417.575 108.294 417.23C108.804 416.88 109.186 416.395 109.441 415.775C109.696 415.15 109.824 414.425 109.824 413.6C109.824 412.775 109.696 412.055 109.441 411.44C109.186 410.82 108.804 410.337 108.294 409.992C107.789 409.647 107.154 409.472 106.389 409.467C105.624 409.457 104.986 409.625 104.476 409.97C103.971 410.315 103.591 410.8 103.336 411.425C103.081 412.05 102.951 412.775 102.946 413.6C102.941 414.425 103.066 415.147 103.321 415.767C103.576 416.382 103.959 416.862 104.469 417.207C104.984 417.552 105.624 417.727 106.389 417.732ZM114.477 419V412.31H111.71V410.9H118.812V412.31H116.045V419H114.477ZM119.629 419V410.9H120.941L123.934 416.84L126.919 410.9H128.239V419H126.724V414.11L124.286 419H123.574L121.136 414.11V419H119.629ZM133.337 419.225C132.532 419.225 131.824 419.05 131.214 418.7C130.609 418.345 130.137 417.852 129.797 417.222C129.462 416.587 129.294 415.852 129.294 415.017C129.294 414.132 129.459 413.365 129.789 412.715C130.124 412.065 130.589 411.562 131.184 411.207C131.779 410.852 132.472 410.675 133.262 410.675C134.087 410.675 134.789 410.867 135.369 411.253C135.949 411.632 136.382 412.175 136.667 412.88C136.957 413.585 137.072 414.422 137.012 415.392H135.444V414.822C135.434 413.882 135.254 413.187 134.904 412.737C134.559 412.287 134.032 412.062 133.322 412.062C132.537 412.062 131.947 412.31 131.552 412.805C131.157 413.3 130.959 414.015 130.959 414.95C130.959 415.84 131.157 416.53 131.552 417.02C131.947 417.505 132.517 417.747 133.262 417.747C133.752 417.747 134.174 417.637 134.529 417.417C134.889 417.192 135.169 416.872 135.369 416.457L136.907 416.945C136.592 417.67 136.114 418.232 135.474 418.632C134.834 419.027 134.122 419.225 133.337 419.225ZM130.449 415.392V414.17H136.232V415.392H130.449ZM138.087 419V410.9H139.654V414.207H143.607V410.9H145.174V419H143.607V415.685H139.654V419H138.087ZM148.966 419.225C148.366 419.225 147.864 419.115 147.459 418.895C147.054 418.67 146.746 418.375 146.536 418.01C146.331 417.64 146.229 417.235 146.229 416.795C146.229 416.385 146.301 416.025 146.446 415.715C146.591 415.405 146.806 415.142 147.091 414.927C147.376 414.707 147.726 414.53 148.141 414.395C148.501 414.29 148.909 414.197 149.364 414.117C149.819 414.037 150.296 413.962 150.796 413.892C151.301 413.822 151.801 413.752 152.296 413.682L151.726 413.997C151.736 413.362 151.601 412.892 151.321 412.587C151.046 412.277 150.571 412.122 149.896 412.122C149.471 412.122 149.081 412.222 148.726 412.422C148.371 412.617 148.124 412.942 147.984 413.397L146.521 412.947C146.721 412.252 147.101 411.7 147.661 411.29C148.226 410.88 148.976 410.675 149.911 410.675C150.636 410.675 151.266 410.8 151.801 411.05C152.341 411.295 152.736 411.685 152.986 412.22C153.116 412.485 153.196 412.765 153.226 413.06C153.256 413.355 153.271 413.672 153.271 414.012V419H151.884V417.147L152.154 417.387C151.819 418.007 151.391 418.47 150.871 418.775C150.356 419.075 149.721 419.225 148.966 419.225ZM149.244 417.942C149.689 417.942 150.071 417.865 150.391 417.71C150.711 417.55 150.969 417.347 151.164 417.102C151.359 416.857 151.486 416.602 151.546 416.337C151.631 416.097 151.679 415.827 151.689 415.527C151.704 415.227 151.711 414.987 151.711 414.807L152.221 414.995C151.726 415.07 151.276 415.137 150.871 415.197C150.466 415.257 150.099 415.317 149.769 415.377C149.444 415.432 149.154 415.5 148.899 415.58C148.684 415.655 148.491 415.745 148.321 415.85C148.156 415.955 148.024 416.082 147.924 416.232C147.829 416.382 147.781 416.565 147.781 416.78C147.781 416.99 147.834 417.185 147.939 417.365C148.044 417.54 148.204 417.68 148.419 417.785C148.634 417.89 148.909 417.942 149.244 417.942Z" fill="white"/>
</g>
<g filter="url(#filter7_dddd_91_973)">
<rect x="219" y="391" width="163" height="45" rx="10" fill="#323E5D"/>
<path d="M268.438 419.225C267.358 419.225 266.438 418.99 265.678 418.52C264.918 418.045 264.335 417.385 263.93 416.54C263.53 415.695 263.33 414.715 263.33 413.6C263.33 412.485 263.53 411.505 263.93 410.66C264.335 409.815 264.918 409.157 265.678 408.687C266.438 408.212 267.358 407.975 268.438 407.975C269.683 407.975 270.713 408.29 271.528 408.92C272.348 409.55 272.918 410.397 273.238 411.463L271.648 411.89C271.438 411.135 271.063 410.542 270.523 410.112C269.988 409.682 269.293 409.467 268.438 409.467C267.673 409.467 267.035 409.64 266.525 409.985C266.015 410.33 265.63 410.812 265.37 411.432C265.115 412.052 264.988 412.775 264.988 413.6C264.983 414.425 265.108 415.147 265.363 415.767C265.623 416.387 266.008 416.87 266.518 417.215C267.033 417.56 267.673 417.732 268.438 417.732C269.293 417.732 269.988 417.517 270.523 417.087C271.063 416.652 271.438 416.06 271.648 415.31L273.238 415.737C272.918 416.802 272.348 417.65 271.528 418.28C270.713 418.91 269.683 419.225 268.438 419.225ZM277.805 419.225C276.995 419.225 276.293 419.043 275.698 418.677C275.103 418.312 274.643 417.81 274.318 417.17C273.998 416.525 273.838 415.782 273.838 414.942C273.838 414.097 274.003 413.355 274.333 412.715C274.663 412.07 275.125 411.57 275.72 411.215C276.315 410.855 277.01 410.675 277.805 410.675C278.615 410.675 279.318 410.857 279.913 411.222C280.508 411.587 280.968 412.09 281.293 412.73C281.618 413.37 281.78 414.107 281.78 414.942C281.78 415.787 281.615 416.532 281.285 417.177C280.96 417.817 280.5 418.32 279.905 418.685C279.31 419.045 278.61 419.225 277.805 419.225ZM277.805 417.747C278.58 417.747 279.158 417.487 279.538 416.967C279.923 416.442 280.115 415.767 280.115 414.942C280.115 414.097 279.92 413.422 279.53 412.917C279.145 412.407 278.57 412.152 277.805 412.152C277.28 412.152 276.848 412.272 276.508 412.512C276.168 412.747 275.915 413.075 275.75 413.495C275.585 413.91 275.503 414.392 275.503 414.942C275.503 415.792 275.698 416.472 276.088 416.982C276.478 417.492 277.05 417.747 277.805 417.747ZM281.708 419L284.738 414.905L281.776 410.9H283.636L285.653 413.682L287.648 410.9H289.508L286.546 414.905L289.583 419H287.716L285.653 416.127L283.576 419H281.708ZM293.985 419.225C293.21 419.225 292.56 419.038 292.035 418.662C291.51 418.282 291.112 417.77 290.842 417.125C290.572 416.48 290.437 415.752 290.437 414.942C290.437 414.132 290.57 413.405 290.835 412.76C291.105 412.115 291.5 411.607 292.02 411.237C292.545 410.862 293.19 410.675 293.955 410.675C294.715 410.675 295.37 410.862 295.92 411.237C296.475 411.607 296.902 412.115 297.202 412.76C297.502 413.4 297.652 414.127 297.652 414.942C297.652 415.752 297.502 416.482 297.202 417.132C296.907 417.777 296.485 418.287 295.935 418.662C295.39 419.038 294.74 419.225 293.985 419.225ZM290.175 422.6V410.9H291.57V416.727H291.75V422.6H290.175ZM293.767 417.807C294.267 417.807 294.68 417.68 295.005 417.425C295.335 417.17 295.58 416.827 295.74 416.397C295.905 415.962 295.987 415.477 295.987 414.942C295.987 414.412 295.905 413.932 295.74 413.502C295.58 413.072 295.332 412.73 294.997 412.475C294.662 412.22 294.235 412.092 293.715 412.092C293.225 412.092 292.82 412.212 292.5 412.452C292.185 412.692 291.95 413.027 291.795 413.457C291.645 413.887 291.57 414.382 291.57 414.942C291.57 415.502 291.645 415.997 291.795 416.427C291.945 416.857 292.182 417.195 292.507 417.44C292.832 417.685 293.252 417.807 293.767 417.807ZM300.996 419.225C300.396 419.225 299.893 419.115 299.488 418.895C299.083 418.67 298.776 418.375 298.566 418.01C298.361 417.64 298.258 417.235 298.258 416.795C298.258 416.385 298.331 416.025 298.476 415.715C298.621 415.405 298.836 415.142 299.121 414.927C299.406 414.707 299.756 414.53 300.171 414.395C300.531 414.29 300.938 414.197 301.393 414.117C301.848 414.037 302.326 413.962 302.826 413.892C303.331 413.822 303.831 413.752 304.326 413.682L303.756 413.997C303.766 413.362 303.631 412.892 303.351 412.587C303.076 412.277 302.601 412.122 301.926 412.122C301.501 412.122 301.111 412.222 300.756 412.422C300.401 412.617 300.153 412.942 300.013 413.397L298.551 412.947C298.751 412.252 299.131 411.7 299.691 411.29C300.256 410.88 301.006 410.675 301.941 410.675C302.666 410.675 303.296 410.8 303.831 411.05C304.371 411.295 304.766 411.685 305.016 412.22C305.146 412.485 305.226 412.765 305.256 413.06C305.286 413.355 305.301 413.672 305.301 414.012V419H303.913V417.147L304.183 417.387C303.848 418.007 303.421 418.47 302.901 418.775C302.386 419.075 301.751 419.225 300.996 419.225ZM301.273 417.942C301.718 417.942 302.101 417.865 302.421 417.71C302.741 417.55 302.998 417.347 303.193 417.102C303.388 416.857 303.516 416.602 303.576 416.337C303.661 416.097 303.708 415.827 303.718 415.527C303.733 415.227 303.741 414.987 303.741 414.807L304.251 414.995C303.756 415.07 303.306 415.137 302.901 415.197C302.496 415.257 302.128 415.317 301.798 415.377C301.473 415.432 301.183 415.5 300.928 415.58C300.713 415.655 300.521 415.745 300.351 415.85C300.186 415.955 300.053 416.082 299.953 416.232C299.858 416.382 299.811 416.565 299.811 416.78C299.811 416.99 299.863 417.185 299.968 417.365C300.073 417.54 300.233 417.68 300.448 417.785C300.663 417.89 300.938 417.942 301.273 417.942ZM306.641 419V410.9H308.208V414.207H312.161V410.9H313.728V419H312.161V415.685H308.208V419H306.641ZM322.058 410.9V419H320.55V413.367L316.5 419H315.225V410.9H316.733V416.42L320.79 410.9H322.058ZM325.646 419V412.31H322.879V410.9H329.981V412.31H327.214V419H325.646ZM330.798 419V410.9H332.373V413.712H333.97C334.2 413.712 334.445 413.717 334.705 413.727C334.97 413.737 335.198 413.762 335.388 413.802C335.823 413.892 336.198 414.042 336.513 414.252C336.833 414.462 337.08 414.742 337.255 415.092C337.43 415.437 337.518 415.862 337.518 416.367C337.518 417.072 337.333 417.635 336.963 418.055C336.598 418.47 336.103 418.75 335.478 418.895C335.278 418.94 335.04 418.97 334.765 418.985C334.495 418.995 334.248 419 334.023 419H330.798ZM332.373 417.74H334.113C334.238 417.74 334.38 417.735 334.54 417.725C334.7 417.715 334.848 417.692 334.983 417.657C335.223 417.587 335.438 417.445 335.628 417.23C335.818 417.015 335.913 416.727 335.913 416.367C335.913 415.997 335.818 415.702 335.628 415.482C335.443 415.262 335.208 415.12 334.923 415.055C334.788 415.02 334.65 414.997 334.51 414.987C334.37 414.977 334.238 414.972 334.113 414.972H332.373V417.74Z" fill="white"/>
</g>
<defs>
<filter id="filter0_dddd_91_973" x="76" y="44" width="263" height="114" filterUnits="userSpaceOnUse" color-interpolation-filters="sRGB">
<feFlood flood-opacity="0" result="BackgroundImageFix"/>
<feColorMatrix in="SourceAlpha" type="matrix" values="0 0 0 0 0 0 0 0 0 0 0 0 0 0 0 0 0 0 127 0" result="hardAlpha"/>
<feOffset dy="3"/>
<feGaussianBlur stdDeviation="3.5"/>
<feColorMatrix type="matrix" values="0 0 0 0 0 0 0 0 0 0 0 0 0 0 0 0 0 0 0.1 0"/>
<feBlend mode="normal" in2="BackgroundImageFix" result="effect1_dropShadow_91_973"/>
<feColorMatrix in="SourceAlpha" type="matrix" values="0 0 0 0 0 0 0 0 0 0 0 0 0 0 0 0 0 0 127 0" result="hardAlpha"/>
<feOffset dy="13"/>
<feGaussianBlur stdDeviation="6.5"/>
<feColorMatrix type="matrix" values="0 0 0 0 0 0 0 0 0 0 0 0 0 0 0 0 0 0 0.09 0"/>
<feBlend mode="normal" in2="effect1_dropShadow_91_973" result="effect2_dropShadow_91_973"/>
<feColorMatrix in="SourceAlpha" type="matrix" values="0 0 0 0 0 0 0 0 0 0 0 0 0 0 0 0 0 0 127 0" result="hardAlpha"/>
<feOffset dy="28"/>
<feGaussianBlur stdDeviation="8.5"/>
<feColorMatrix type="matrix" values="0 0 0 0 0 0 0 0 0 0 0 0 0 0 0 0 0 0 0.05 0"/>
<feBlend mode="normal" in2="effect2_dropShadow_91_973" result="effect3_dropShadow_91_973"/>
<feColorMatrix in="SourceAlpha" type="matrix" values="0 0 0 0 0 0 0 0 0 0 0 0 0 0 0 0 0 0 127 0" result="hardAlpha"/>
<feOffset dy="50"/>
<feGaussianBlur stdDeviation="10"/>
<feColorMatrix type="matrix" values="0 0 0 0 0 0 0 0 0 0 0 0 0 0 0 0 0 0 0.01 0"/>
<feBlend mode="normal" in2="effect3_dropShadow_91_973" result="effect4_dropShadow_91_973"/>
<feBlend mode="normal" in="SourceGraphic" in2="effect4_dropShadow_91_973" result="shape"/>
</filter>
<filter id="filter1_dddd_91_973" x="76" y="99" width="263" height="114" filterUnits="userSpaceOnUse" color-interpolation-filters="sRGB">
<feFlood flood-opacity="0" result="BackgroundImageFix"/>
<feColorMatrix in="SourceAlpha" type="matrix" values="0 0 0 0 0 0 0 0 0 0 0 0 0 0 0 0 0 0 127 0" result="hardAlpha"/>
<feOffset dy="3"/>
<feGaussianBlur stdDeviation="3.5"/>
<feColorMatrix type="matrix" values="0 0 0 0 0 0 0 0 0 0 0 0 0 0 0 0 0 0 0.1 0"/>
<feBlend mode="normal" in2="BackgroundImageFix" result="effect1_dropShadow_91_973"/>
<feColorMatrix in="SourceAlpha" type="matrix" values="0 0 0 0 0 0 0 0 0 0 0 0 0 0 0 0 0 0 127 0" result="hardAlpha"/>
<feOffset dy="13"/>
<feGaussianBlur stdDeviation="6.5"/>
<feColorMatrix type="matrix" values="0 0 0 0 0 0 0 0 0 0 0 0 0 0 0 0 0 0 0.09 0"/>
<feBlend mode="normal" in2="effect1_dropShadow_91_973" result="effect2_dropShadow_91_973"/>
<feColorMatrix in="SourceAlpha" type="matrix" values="0 0 0 0 0 0 0 0 0 0 0 0 0 0 0 0 0 0 127 0" result="hardAlpha"/>
<feOffset dy="28"/>
<feGaussianBlur stdDeviation="8.5"/>
<feColorMatrix type="matrix" values="0 0 0 0 0 0 0 0 0 0 0 0 0 0 0 0 0 0 0.05 0"/>
<feBlend mode="normal" in2="effect2_dropShadow_91_973" result="effect3_dropShadow_91_973"/>
<feColorMatrix in="SourceAlpha" type="matrix" values="0 0 0 0 0 0 0 0 0 0 0 0 0 0 0 0 0 0 127 0" result="hardAlpha"/>
<feOffset dy="50"/>
<feGaussianBlur stdDeviation="10"/>
<feColorMatrix type="matrix" values="0 0 0 0 0 0 0 0 0 0 0 0 0 0 0 0 0 0 0.01 0"/>
<feBlend mode="normal" in2="effect3_dropShadow_91_973" result="effect4_dropShadow_91_973"/>
<feBlend mode="normal" in="SourceGraphic" in2="effect4_dropShadow_91_973" result="shape"/>
</filter>
<filter id="filter2_dddd_91_973" x="76" y="154" width="263" height="114" filterUnits="userSpaceOnUse" color-interpolation-filters="sRGB">
<feFlood flood-opacity="0" result="BackgroundImageFix"/>
<feColorMatrix in="SourceAlpha" type="matrix" values="0 0 0 0 0 0 0 0 0 0 0 0 0 0 0 0 0 0 127 0" result="hardAlpha"/>
<feOffset dy="3"/>
<feGaussianBlur stdDeviation="3.5"/>
<feColorMatrix type="matrix" values="0 0 0 0 0 0 0 0 0 0 0 0 0 0 0 0 0 0 0.1 0"/>
<feBlend mode="normal" in2="BackgroundImageFix" result="effect1_dropShadow_91_973"/>
<feColorMatrix in="SourceAlpha" type="matrix" values="0 0 0 0 0 0 0 0 0 0 0 0 0 0 0 0 0 0 127 0" result="hardAlpha"/>
<feOffset dy="13"/>
<feGaussianBlur stdDeviation="6.5"/>
<feColorMatrix type="matrix" values="0 0 0 0 0 0 0 0 0 0 0 0 0 0 0 0 0 0 0.09 0"/>
<feBlend mode="normal" in2="effect1_dropShadow_91_973" result="effect2_dropShadow_91_973"/>
<feColorMatrix in="SourceAlpha" type="matrix" values="0 0 0 0 0 0 0 0 0 0 0 0 0 0 0 0 0 0 127 0" result="hardAlpha"/>
<feOffset dy="28"/>
<feGaussianBlur stdDeviation="8.5"/>
<feColorMatrix type="matrix" values="0 0 0 0 0 0 0 0 0 0 0 0 0 0 0 0 0 0 0.05 0"/>
<feBlend mode="normal" in2="effect2_dropShadow_91_973" result="effect3_dropShadow_91_973"/>
<feColorMatrix in="SourceAlpha" type="matrix" values="0 0 0 0 0 0 0 0 0 0 0 0 0 0 0 0 0 0 127 0" result="hardAlpha"/>
<feOffset dy="50"/>
<feGaussianBlur stdDeviation="10"/>
<feColorMatrix type="matrix" values="0 0 0 0 0 0 0 0 0 0 0 0 0 0 0 0 0 0 0.01 0"/>
<feBlend mode="normal" in2="effect3_dropShadow_91_973" result="effect4_dropShadow_91_973"/>
<feBlend mode="normal" in="SourceGraphic" in2="effect4_dropShadow_91_973" result="shape"/>
</filter>
<filter id="filter3_dddd_91_973" x="76" y="209" width="263" height="114" filterUnits="userSpaceOnUse" color-interpolation-filters="sRGB">
<feFlood flood-opacity="0" result="BackgroundImageFix"/>
<feColorMatrix in="SourceAlpha" type="matrix" values="0 0 0 0 0 0 0 0 0 0 0 0 0 0 0 0 0 0 127 0" result="hardAlpha"/>
<feOffset dy="3"/>
<feGaussianBlur stdDeviation="3.5"/>
<feColorMatrix type="matrix" values="0 0 0 0 0 0 0 0 0 0 0 0 0 0 0 0 0 0 0.1 0"/>
<feBlend mode="normal" in2="BackgroundImageFix" result="effect1_dropShadow_91_973"/>
<feColorMatrix in="SourceAlpha" type="matrix" values="0 0 0 0 0 0 0 0 0 0 0 0 0 0 0 0 0 0 127 0" result="hardAlpha"/>
<feOffset dy="13"/>
<feGaussianBlur stdDeviation="6.5"/>
<feColorMatrix type="matrix" values="0 0 0 0 0 0 0 0 0 0 0 0 0 0 0 0 0 0 0.09 0"/>
<feBlend mode="normal" in2="effect1_dropShadow_91_973" result="effect2_dropShadow_91_973"/>
<feColorMatrix in="SourceAlpha" type="matrix" values="0 0 0 0 0 0 0 0 0 0 0 0 0 0 0 0 0 0 127 0" result="hardAlpha"/>
<feOffset dy="28"/>
<feGaussianBlur stdDeviation="8.5"/>
<feColorMatrix type="matrix" values="0 0 0 0 0 0 0 0 0 0 0 0 0 0 0 0 0 0 0.05 0"/>
<feBlend mode="normal" in2="effect2_dropShadow_91_973" result="effect3_dropShadow_91_973"/>
<feColorMatrix in="SourceAlpha" type="matrix" values="0 0 0 0 0 0 0 0 0 0 0 0 0 0 0 0 0 0 127 0" result="hardAlpha"/>
<feOffset dy="50"/>
<feGaussianBlur stdDeviation="10"/>
<feColorMatrix type="matrix" values="0 0 0 0 0 0 0 0 0 0 0 0 0 0 0 0 0 0 0.01 0"/>
<feBlend mode="normal" in2="effect3_dropShadow_91_973" result="effect4_dropShadow_91_973"/>
<feBlend mode="normal" in="SourceGraphic" in2="effect4_dropShadow_91_973" result="shape"/>
</filter>
<filter id="filter4_dddd_91_973" x="76" y="264" width="263" height="114" filterUnits="userSpaceOnUse" color-interpolation-filters="sRGB">
<feFlood flood-opacity="0" result="BackgroundImageFix"/>
<feColorMatrix in="SourceAlpha" type="matrix" values="0 0 0 0 0 0 0 0 0 0 0 0 0 0 0 0 0 0 127 0" result="hardAlpha"/>
<feOffset dy="3"/>
<feGaussianBlur stdDeviation="3.5"/>
<feColorMatrix type="matrix" values="0 0 0 0 0 0 0 0 0 0 0 0 0 0 0 0 0 0 0.1 0"/>
<feBlend mode="normal" in2="BackgroundImageFix" result="effect1_dropShadow_91_973"/>
<feColorMatrix in="SourceAlpha" type="matrix" values="0 0 0 0 0 0 0 0 0 0 0 0 0 0 0 0 0 0 127 0" result="hardAlpha"/>
<feOffset dy="13"/>
<feGaussianBlur stdDeviation="6.5"/>
<feColorMatrix type="matrix" values="0 0 0 0 0 0 0 0 0 0 0 0 0 0 0 0 0 0 0.09 0"/>
<feBlend mode="normal" in2="effect1_dropShadow_91_973" result="effect2_dropShadow_91_973"/>
<feColorMatrix in="SourceAlpha" type="matrix" values="0 0 0 0 0 0 0 0 0 0 0 0 0 0 0 0 0 0 127 0" result="hardAlpha"/>
<feOffset dy="28"/>
<feGaussianBlur stdDeviation="8.5"/>
<feColorMatrix type="matrix" values="0 0 0 0 0 0 0 0 0 0 0 0 0 0 0 0 0 0 0.05 0"/>
<feBlend mode="normal" in2="effect2_dropShadow_91_973" result="effect3_dropShadow_91_973"/>
<feColorMatrix in="SourceAlpha" type="matrix" values="0 0 0 0 0 0 0 0 0 0 0 0 0 0 0 0 0 0 127 0" result="hardAlpha"/>
<feOffset dy="50"/>
<feGaussianBlur stdDeviation="10"/>
<feColorMatrix type="matrix" values="0 0 0 0 0 0 0 0 0 0 0 0 0 0 0 0 0 0 0.01 0"/>
<feBlend mode="normal" in2="effect3_dropShadow_91_973" result="effect4_dropShadow_91_973"/>
<feBlend mode="normal" in="SourceGraphic" in2="effect4_dropShadow_91_973" result="shape"/>
</filter>
<filter id="filter5_dddd_91_973" x="76" y="319" width="263" height="114" filterUnits="userSpaceOnUse" color-interpolation-filters="sRGB">
<feFlood flood-opacity="0" result="BackgroundImageFix"/>
<feColorMatrix in="SourceAlpha" type="matrix" values="0 0 0 0 0 0 0 0 0 0 0 0 0 0 0 0 0 0 127 0" result="hardAlpha"/>
<feOffset dy="3"/>
<feGaussianBlur stdDeviation="3.5"/>
<feColorMatrix type="matrix" values="0 0 0 0 0 0 0 0 0 0 0 0 0 0 0 0 0 0 0.1 0"/>
<feBlend mode="normal" in2="BackgroundImageFix" result="effect1_dropShadow_91_973"/>
<feColorMatrix in="SourceAlpha" type="matrix" values="0 0 0 0 0 0 0 0 0 0 0 0 0 0 0 0 0 0 127 0" result="hardAlpha"/>
<feOffset dy="13"/>
<feGaussianBlur stdDeviation="6.5"/>
<feColorMatrix type="matrix" values="0 0 0 0 0 0 0 0 0 0 0 0 0 0 0 0 0 0 0.09 0"/>
<feBlend mode="normal" in2="effect1_dropShadow_91_973" result="effect2_dropShadow_91_973"/>
<feColorMatrix in="SourceAlpha" type="matrix" values="0 0 0 0 0 0 0 0 0 0 0 0 0 0 0 0 0 0 127 0" result="hardAlpha"/>
<feOffset dy="28"/>
<feGaussianBlur stdDeviation="8.5"/>
<feColorMatrix type="matrix" values="0 0 0 0 0 0 0 0 0 0 0 0 0 0 0 0 0 0 0.05 0"/>
<feBlend mode="normal" in2="effect2_dropShadow_91_973" result="effect3_dropShadow_91_973"/>
<feColorMatrix in="SourceAlpha" type="matrix" values="0 0 0 0 0 0 0 0 0 0 0 0 0 0 0 0 0 0 127 0" result="hardAlpha"/>
<feOffset dy="50"/>
<feGaussianBlur stdDeviation="10"/>
<feColorMatrix type="matrix" values="0 0 0 0 0 0 0 0 0 0 0 0 0 0 0 0 0 0 0.01 0"/>
<feBlend mode="normal" in2="effect3_dropShadow_91_973" result="effect4_dropShadow_91_973"/>
<feBlend mode="normal" in="SourceGraphic" in2="effect4_dropShadow_91_973" result="shape"/>
</filter>
<filter id="filter6_dddd_91_973" x="26" y="387" width="203" height="119" filterUnits="userSpaceOnUse" color-interpolation-filters="sRGB">
<feFlood flood-opacity="0" result="BackgroundImageFix"/>
<feColorMatrix in="SourceAlpha" type="matrix" values="0 0 0 0 0 0 0 0 0 0 0 0 0 0 0 0 0 0 127 0" result="hardAlpha"/>
<feOffset dy="3"/>
<feGaussianBlur stdDeviation="3.5"/>
<feColorMatrix type="matrix" values="0 0 0 0 0 0 0 0 0 0 0 0 0 0 0 0 0 0 0.1 0"/>
<feBlend mode="normal" in2="BackgroundImageFix" result="effect1_dropShadow_91_973"/>
<feColorMatrix in="SourceAlpha" type="matrix" values="0 0 0 0 0 0 0 0 0 0 0 0 0 0 0 0 0 0 127 0" result="hardAlpha"/>
<feOffset dy="13"/>
<feGaussianBlur stdDeviation="6.5"/>
<feColorMatrix type="matrix" values="0 0 0 0 0 0 0 0 0 0 0 0 0 0 0 0 0 0 0.09 0"/>
<feBlend mode="normal" in2="effect1_dropShadow_91_973" result="effect2_dropShadow_91_973"/>
<feColorMatrix in="SourceAlpha" type="matrix" values="0 0 0 0 0 0 0 0 0 0 0 0 0 0 0 0 0 0 127 0" result="hardAlpha"/>
<feOffset dy="28"/>
<feGaussianBlur stdDeviation="8.5"/>
<feColorMatrix type="matrix" values="0 0 0 0 0 0 0 0 0 0 0 0 0 0 0 0 0 0 0.05 0"/>
<feBlend mode="normal" in2="effect2_dropShadow_91_973" result="effect3_dropShadow_91_973"/>
<feColorMatrix in="SourceAlpha" type="matrix" values="0 0 0 0 0 0 0 0 0 0 0 0 0 0 0 0 0 0 127 0" result="hardAlpha"/>
<feOffset dy="50"/>
<feGaussianBlur stdDeviation="10"/>
<feColorMatrix type="matrix" values="0 0 0 0 0 0 0 0 0 0 0 0 0 0 0 0 0 0 0.01 0"/>
<feBlend mode="normal" in2="effect3_dropShadow_91_973" result="effect4_dropShadow_91_973"/>
<feBlend mode="normal" in="SourceGraphic" in2="effect4_dropShadow_91_973" result="shape"/>
</filter>
<filter id="filter7_dddd_91_973" x="199" y="387" width="203" height="119" filterUnits="userSpaceOnUse" color-interpolation-filters="sRGB">
<feFlood flood-opacity="0" result="BackgroundImageFix"/>
<feColorMatrix in="SourceAlpha" type="matrix" values="0 0 0 0 0 0 0 0 0 0 0 0 0 0 0 0 0 0 127 0" result="hardAlpha"/>
<feOffset dy="3"/>
<feGaussianBlur stdDeviation="3.5"/>
<feColorMatrix type="matrix" values="0 0 0 0 0 0 0 0 0 0 0 0 0 0 0 0 0 0 0.1 0"/>
<feBlend mode="normal" in2="BackgroundImageFix" result="effect1_dropShadow_91_973"/>
<feColorMatrix in="SourceAlpha" type="matrix" values="0 0 0 0 0 0 0 0 0 0 0 0 0 0 0 0 0 0 127 0" result="hardAlpha"/>
<feOffset dy="13"/>
<feGaussianBlur stdDeviation="6.5"/>
<feColorMatrix type="matrix" values="0 0 0 0 0 0 0 0 0 0 0 0 0 0 0 0 0 0 0.09 0"/>
<feBlend mode="normal" in2="effect1_dropShadow_91_973" result="effect2_dropShadow_91_973"/>
<feColorMatrix in="SourceAlpha" type="matrix" values="0 0 0 0 0 0 0 0 0 0 0 0 0 0 0 0 0 0 127 0" result="hardAlpha"/>
<feOffset dy="28"/>
<feGaussianBlur stdDeviation="8.5"/>
<feColorMatrix type="matrix" values="0 0 0 0 0 0 0 0 0 0 0 0 0 0 0 0 0 0 0.05 0"/>
<feBlend mode="normal" in2="effect2_dropShadow_91_973" result="effect3_dropShadow_91_973"/>
<feColorMatrix in="SourceAlpha" type="matrix" values="0 0 0 0 0 0 0 0 0 0 0 0 0 0 0 0 0 0 127 0" result="hardAlpha"/>
<feOffset dy="50"/>
<feGaussianBlur stdDeviation="10"/>
<feColorMatrix type="matrix" values="0 0 0 0 0 0 0 0 0 0 0 0 0 0 0 0 0 0 0.01 0"/>
<feBlend mode="normal" in2="effect3_dropShadow_91_973" result="effect4_dropShadow_91_973"/>
<feBlend mode="normal" in="SourceGraphic" in2="effect4_dropShadow_91_973" result="shape"/>
</filter>
<linearGradient id="paint0_linear_91_973" x1="96" y1="48" x2="319" y2="48" gradientUnits="userSpaceOnUse">
<stop stop-color="#FF0000"/>
<stop offset="0.142857" stop-color="#F80624"/>
<stop offset="0.285714" stop-color="#F10B44"/>
<stop offset="0.428571" stop-color="#EA1061"/>
<stop offset="0.571429" stop-color="#E3147B"/>
<stop offset="0.714286" stop-color="#DC1892"/>
<stop offset="0.857143" stop-color="#D51CA6"/>
<stop offset="1" stop-color="#CE20B7"/>
</linearGradient>
<linearGradient id="paint1_linear_91_973" x1="46" y1="48" x2="86" y2="48" gradientUnits="userSpaceOnUse">
<stop stop-color="#FF0000"/>
<stop offset="0.142857" stop-color="#F80624"/>
<stop offset="0.285714" stop-color="#F10B44"/>
<stop offset="0.428571" stop-color="#EA1061"/>
<stop offset="0.571429" stop-color="#E3147B"/>
<stop offset="0.714286" stop-color="#DC1892"/>
<stop offset="0.857143" stop-color="#D51CA6"/>
<stop offset="1" stop-color="#CE20B7"/>
</linearGradient>
<linearGradient id="paint2_linear_91_973" x1="96" y1="158" x2="319" y2="158" gradientUnits="userSpaceOnUse">
<stop stop-color="#325D45"/>
<stop offset="0.142857" stop-color="#2D594D"/>
<stop offset="0.285714" stop-color="#2A5552"/>
<stop offset="0.428571" stop-color="#295156"/>
<stop offset="0.571429" stop-color="#294D58"/>
<stop offset="0.714286" stop-color="#2A495B"/>
<stop offset="0.857143" stop-color="#2D445D"/>
<stop offset="1" stop-color="#323E5D"/>
</linearGradient>
<linearGradient id="paint3_linear_91_973" x1="46" y1="158" x2="86" y2="158" gradientUnits="userSpaceOnUse">
<stop stop-color="#325D45"/>
<stop offset="0.142857" stop-color="#2D594D"/>
<stop offset="0.285714" stop-color="#2A5552"/>
<stop offset="0.428571" stop-color="#295156"/>
<stop offset="0.571429" stop-color="#294D58"/>
<stop offset="0.714286" stop-color="#2A495B"/>
<stop offset="0.857143" stop-color="#2D445D"/>
<stop offset="1" stop-color="#323E5D"/>
</linearGradient>
<linearGradient id="paint4_linear_91_973" x1="96" y1="268" x2="319" y2="268" gradientUnits="userSpaceOnUse">
<stop stop-color="#00FF09"/>
<stop offset="0.142857" stop-color="#06F825"/>
<stop offset="0.285714" stop-color="#0BF13E"/>
<stop offset="0.428571" stop-color="#10EA54"/>
<stop offset="0.571429" stop-color="#14E368"/>
<stop offset="0.714286" stop-color="#18DC7A"/>
<stop offset="0.857143" stop-color="#1CD58A"/>
<stop offset="1" stop-color="#20CE97"/>
</linearGradient>
<linearGradient id="paint5_linear_91_973" x1="46" y1="268" x2="86" y2="268" gradientUnits="userSpaceOnUse">
<stop stop-color="#00FF09"/>
<stop offset="0.142857" stop-color="#06F825"/>
<stop offset="0.285714" stop-color="#0BF13E"/>
<stop offset="0.428571" stop-color="#10EA54"/>
<stop offset="0.571429" stop-color="#14E368"/>
<stop offset="0.714286" stop-color="#18DC7A"/>
<stop offset="0.857143" stop-color="#1CD58A"/>
<stop offset="1" stop-color="#20CE97"/>
</linearGradient>
</defs>
</svg>
