<svg width="336" height="272" viewBox="0 0 336 272" fill="none" xmlns="http://www.w3.org/2000/svg">
<rect width="336" height="272" rx="10" fill="#323232"/>
<path d="M19.12 86V74.48H27.944V86H26.768V75.608H20.296V86H19.12ZM33.1505 86.24C32.2918 86.24 31.5585 86.0453 30.9505 85.656C30.3425 85.2667 29.8758 84.728 29.5505 84.04C29.2252 83.352 29.0625 82.5627 29.0625 81.672C29.0625 80.7653 29.2278 79.9707 29.5585 79.288C29.8892 78.6053 30.3585 78.0747 30.9665 77.696C31.5798 77.312 32.3078 77.12 33.1505 77.12C34.0145 77.12 34.7505 77.3147 35.3585 77.704C35.9718 78.088 36.4385 78.624 36.7585 79.312C37.0838 79.9947 37.2465 80.7813 37.2465 81.672C37.2465 82.5787 37.0838 83.376 36.7585 84.064C36.4332 84.7467 35.9638 85.28 35.3505 85.664C34.7372 86.048 34.0038 86.24 33.1505 86.24ZM33.1505 85.112C34.1105 85.112 34.8252 84.7947 35.2945 84.16C35.7638 83.52 35.9985 82.6907 35.9985 81.672C35.9985 80.6267 35.7612 79.7947 35.2865 79.176C34.8172 78.5573 34.1052 78.248 33.1505 78.248C32.5052 78.248 31.9718 78.3947 31.5505 78.688C31.1345 78.976 30.8225 79.3787 30.6145 79.896C30.4118 80.408 30.3105 81 30.3105 81.672C30.3105 82.712 30.5505 83.5467 31.0305 84.176C31.5105 84.8 32.2172 85.112 33.1505 85.112ZM38.3632 86V77.36H41.9232C42.1046 77.36 42.3232 77.3707 42.5792 77.392C42.8406 77.4133 43.0832 77.4533 43.3072 77.512C43.7926 77.64 44.1819 77.9013 44.4752 78.296C44.7739 78.6907 44.9232 79.1653 44.9232 79.72C44.9232 80.0293 44.8752 80.3067 44.7792 80.552C44.6886 80.792 44.5579 81 44.3872 81.176C44.3072 81.2667 44.2192 81.3467 44.1232 81.416C44.0272 81.48 43.9339 81.5333 43.8432 81.576C44.0139 81.608 44.1979 81.6827 44.3952 81.8C44.7046 81.9813 44.9392 82.2267 45.0992 82.536C45.2592 82.84 45.3392 83.2107 45.3392 83.648C45.3392 84.24 45.1979 84.7227 44.9152 85.096C44.6326 85.4693 44.2539 85.7253 43.7792 85.864C43.5659 85.9227 43.3339 85.96 43.0832 85.976C42.8379 85.992 42.6059 86 42.3872 86H38.3632ZM39.5472 85H42.3312C42.4432 85 42.5846 84.992 42.7552 84.976C42.9259 84.9547 43.0779 84.928 43.2112 84.896C43.5259 84.816 43.7552 84.656 43.8992 84.416C44.0486 84.1707 44.1232 83.904 44.1232 83.616C44.1232 83.2373 44.0112 82.928 43.7872 82.688C43.5686 82.4427 43.2752 82.2933 42.9072 82.24C42.7846 82.2133 42.6566 82.1973 42.5232 82.192C42.3899 82.1867 42.2699 82.184 42.1632 82.184H39.5472V85ZM39.5472 81.176H41.9632C42.1019 81.176 42.2566 81.168 42.4272 81.152C42.6032 81.1307 42.7552 81.096 42.8832 81.048C43.1606 80.952 43.3632 80.7867 43.4912 80.552C43.6246 80.3173 43.6912 80.0613 43.6912 79.784C43.6912 79.48 43.6192 79.2133 43.4752 78.984C43.3366 78.7547 43.1259 78.5947 42.8432 78.504C42.6512 78.4347 42.4432 78.3947 42.2192 78.384C42.0006 78.3733 41.8619 78.368 41.8032 78.368H39.5472V81.176ZM48.6378 86V78.448H45.5737V77.36H52.8778V78.448H49.8138V86H48.6378ZM57.2149 86.24C56.3562 86.24 55.6229 86.0453 55.0149 85.656C54.4069 85.2667 53.9402 84.728 53.6149 84.04C53.2895 83.352 53.1269 82.5627 53.1269 81.672C53.1269 80.7653 53.2922 79.9707 53.6229 79.288C53.9535 78.6053 54.4229 78.0747 55.0309 77.696C55.6442 77.312 56.3722 77.12 57.2149 77.12C58.0789 77.12 58.8149 77.3147 59.4229 77.704C60.0362 78.088 60.5029 78.624 60.8229 79.312C61.1482 79.9947 61.3109 80.7813 61.3109 81.672C61.3109 82.5787 61.1482 83.376 60.8229 84.064C60.4975 84.7467 60.0282 85.28 59.4149 85.664C58.8015 86.048 58.0682 86.24 57.2149 86.24ZM57.2149 85.112C58.1749 85.112 58.8895 84.7947 59.3589 84.16C59.8282 83.52 60.0629 82.6907 60.0629 81.672C60.0629 80.6267 59.8255 79.7947 59.3509 79.176C58.8815 78.5573 58.1695 78.248 57.2149 78.248C56.5695 78.248 56.0362 78.3947 55.6149 78.688C55.1989 78.976 54.8869 79.3787 54.6789 79.896C54.4762 80.408 54.3749 81 54.3749 81.672C54.3749 82.712 54.6149 83.5467 55.0949 84.176C55.5749 84.8 56.2815 85.112 57.2149 85.112ZM66.3156 86.24C65.521 86.24 64.849 86.04 64.2996 85.64C63.7503 85.2347 63.3343 84.688 63.0516 84C62.769 83.3067 62.6276 82.5307 62.6276 81.672C62.6276 80.7973 62.769 80.0187 63.0516 79.336C63.3396 78.648 63.761 78.1067 64.3156 77.712C64.8703 77.3173 65.553 77.12 66.3636 77.12C67.153 77.12 67.8303 77.32 68.3956 77.72C68.961 78.12 69.393 78.664 69.6916 79.352C69.9956 80.04 70.1476 80.8133 70.1476 81.672C70.1476 82.536 69.9956 83.312 69.6916 84C69.3876 84.688 68.9503 85.2347 68.3796 85.64C67.809 86.04 67.121 86.24 66.3156 86.24ZM62.4276 89.84V77.36H63.4836V83.864H63.6116V89.84H62.4276ZM66.1956 85.144C66.7983 85.144 67.2996 84.992 67.6996 84.688C68.0996 84.384 68.3983 83.9707 68.5956 83.448C68.7983 82.92 68.8996 82.328 68.8996 81.672C68.8996 81.0213 68.801 80.4347 68.6036 79.912C68.4063 79.3893 68.105 78.976 67.6996 78.672C67.2996 78.368 66.7903 78.216 66.1716 78.216C65.569 78.216 65.0676 78.3627 64.6676 78.656C64.273 78.9493 63.977 79.3573 63.7796 79.88C63.5823 80.3973 63.4836 80.9947 63.4836 81.672C63.4836 82.3387 63.5823 82.936 63.7796 83.464C63.977 83.9867 64.2756 84.3973 64.6756 84.696C65.0756 84.9947 65.5823 85.144 66.1956 85.144ZM71.2564 86V77.36H72.4324V81.112H77.3044V77.36H78.4804V86H77.3044V82.24H72.4324V86H71.2564ZM83.6855 86.24C82.8268 86.24 82.0935 86.0453 81.4855 85.656C80.8775 85.2667 80.4108 84.728 80.0855 84.04C79.7602 83.352 79.5975 82.5627 79.5975 81.672C79.5975 80.7653 79.7628 79.9707 80.0935 79.288C80.4242 78.6053 80.8935 78.0747 81.5015 77.696C82.1148 77.312 82.8428 77.12 83.6855 77.12C84.5495 77.12 85.2855 77.3147 85.8935 77.704C86.5068 78.088 86.9735 78.624 87.2935 79.312C87.6188 79.9947 87.7815 80.7813 87.7815 81.672C87.7815 82.5787 87.6188 83.376 87.2935 84.064C86.9682 84.7467 86.4988 85.28 85.8855 85.664C85.2722 86.048 84.5388 86.24 83.6855 86.24ZM83.6855 85.112C84.6455 85.112 85.3602 84.7947 85.8295 84.16C86.2988 83.52 86.5335 82.6907 86.5335 81.672C86.5335 80.6267 86.2962 79.7947 85.8215 79.176C85.3522 78.5573 84.6402 78.248 83.6855 78.248C83.0402 78.248 82.5068 78.3947 82.0855 78.688C81.6695 78.976 81.3575 79.3787 81.1495 79.896C80.9468 80.408 80.8455 81 80.8455 81.672C80.8455 82.712 81.0855 83.5467 81.5655 84.176C82.0455 84.8 82.7522 85.112 83.6855 85.112ZM92.5622 86.24C91.7196 86.24 90.9889 86.0533 90.3702 85.68C89.7569 85.3067 89.2796 84.7813 88.9382 84.104C88.5969 83.4267 88.4262 82.632 88.4262 81.72C88.4262 80.776 88.5942 79.96 88.9302 79.272C89.2662 78.584 89.7382 78.0533 90.3462 77.68C90.9596 77.3067 91.6822 77.12 92.5142 77.12C93.3676 77.12 94.0956 77.3173 94.6982 77.712C95.3009 78.1013 95.7569 78.6613 96.0662 79.392C96.3756 80.1227 96.5169 80.9947 96.4902 82.008H95.2902V81.592C95.2689 80.472 95.0262 79.6267 94.5622 79.056C94.1036 78.4853 93.4316 78.2 92.5462 78.2C91.6182 78.2 90.9062 78.5013 90.4102 79.104C89.9196 79.7067 89.6742 80.5653 89.6742 81.68C89.6742 82.768 89.9196 83.6133 90.4102 84.216C90.9062 84.8133 91.6076 85.112 92.5142 85.112C93.1329 85.112 93.6716 84.9707 94.1302 84.688C94.5942 84.4 94.9596 83.9867 95.2262 83.448L96.3222 83.872C95.9809 84.624 95.4769 85.208 94.8102 85.624C94.1489 86.0347 93.3996 86.24 92.5622 86.24ZM89.2582 82.008V81.024H95.8582V82.008H89.2582ZM100.181 86V77.36H103.741C103.922 77.36 104.141 77.3707 104.397 77.392C104.658 77.4133 104.901 77.4533 105.125 77.512C105.61 77.64 105.999 77.9013 106.293 78.296C106.591 78.6907 106.741 79.1653 106.741 79.72C106.741 80.0293 106.693 80.3067 106.597 80.552C106.506 80.792 106.375 81 106.205 81.176C106.125 81.2667 106.037 81.3467 105.941 81.416C105.845 81.48 105.751 81.5333 105.661 81.576C105.831 81.608 106.015 81.6827 106.213 81.8C106.522 81.9813 106.757 82.2267 106.917 82.536C107.077 82.84 107.157 83.2107 107.157 83.648C107.157 84.24 107.015 84.7227 106.733 85.096C106.45 85.4693 106.071 85.7253 105.597 85.864C105.383 85.9227 105.151 85.96 104.901 85.976C104.655 85.992 104.423 86 104.205 86H100.181ZM101.365 85H104.149C104.261 85 104.402 84.992 104.573 84.976C104.743 84.9547 104.895 84.928 105.029 84.896C105.343 84.816 105.573 84.656 105.717 84.416C105.866 84.1707 105.941 83.904 105.941 83.616C105.941 83.2373 105.829 82.928 105.605 82.688C105.386 82.4427 105.093 82.2933 104.725 82.24C104.602 82.2133 104.474 82.1973 104.341 82.192C104.207 82.1867 104.087 82.184 103.981 82.184H101.365V85ZM101.365 81.176H103.781C103.919 81.176 104.074 81.168 104.245 81.152C104.421 81.1307 104.573 81.096 104.701 81.048C104.978 80.952 105.181 80.7867 105.309 80.552C105.442 80.3173 105.509 80.0613 105.509 79.784C105.509 79.48 105.437 79.2133 105.293 78.984C105.154 78.7547 104.943 78.5947 104.661 78.504C104.469 78.4347 104.261 78.3947 104.037 78.384C103.818 78.3733 103.679 78.368 103.621 78.368H101.365V81.176ZM108.103 86V77.36H111.663C111.845 77.36 112.063 77.3707 112.319 77.392C112.581 77.4133 112.823 77.4533 113.047 77.512C113.533 77.64 113.922 77.9013 114.215 78.296C114.514 78.6907 114.663 79.1653 114.663 79.72C114.663 80.0293 114.615 80.3067 114.519 80.552C114.429 80.792 114.298 81 114.127 81.176C114.047 81.2667 113.959 81.3467 113.863 81.416C113.767 81.48 113.674 81.5333 113.583 81.576C113.754 81.608 113.938 81.6827 114.135 81.8C114.445 81.9813 114.679 82.2267 114.839 82.536C114.999 82.84 115.079 83.2107 115.079 83.648C115.079 84.24 114.938 84.7227 114.655 85.096C114.373 85.4693 113.994 85.7253 113.519 85.864C113.306 85.9227 113.074 85.96 112.823 85.976C112.578 85.992 112.346 86 112.127 86H108.103ZM109.287 85H112.071C112.183 85 112.325 84.992 112.495 84.976C112.666 84.9547 112.818 84.928 112.951 84.896C113.266 84.816 113.495 84.656 113.639 84.416C113.789 84.1707 113.863 83.904 113.863 83.616C113.863 83.2373 113.751 82.928 113.527 82.688C113.309 82.4427 113.015 82.2933 112.647 82.24C112.525 82.2133 112.397 82.1973 112.263 82.192C112.13 82.1867 112.01 82.184 111.903 82.184H109.287V85ZM109.287 81.176H111.703C111.842 81.176 111.997 81.168 112.167 81.152C112.343 81.1307 112.495 81.096 112.623 81.048C112.901 80.952 113.103 80.7867 113.231 80.552C113.365 80.3173 113.431 80.0613 113.431 79.784C113.431 79.48 113.359 79.2133 113.215 78.984C113.077 78.7547 112.866 78.5947 112.583 78.504C112.391 78.4347 112.183 78.3947 111.959 78.384C111.741 78.3733 111.602 78.368 111.543 78.368H109.287V81.176ZM119.69 86.24C118.847 86.24 118.116 86.0533 117.498 85.68C116.884 85.3067 116.407 84.7813 116.066 84.104C115.724 83.4267 115.554 82.632 115.554 81.72C115.554 80.776 115.722 79.96 116.058 79.272C116.394 78.584 116.866 78.0533 117.474 77.68C118.087 77.3067 118.81 77.12 119.642 77.12C120.495 77.12 121.223 77.3173 121.826 77.712C122.428 78.1013 122.884 78.6613 123.194 79.392C123.503 80.1227 123.644 80.9947 123.618 82.008H122.418V81.592C122.396 80.472 122.154 79.6267 121.69 79.056C121.231 78.4853 120.559 78.2 119.674 78.2C118.746 78.2 118.034 78.5013 117.538 79.104C117.047 79.7067 116.802 80.5653 116.802 81.68C116.802 82.768 117.047 83.6133 117.538 84.216C118.034 84.8133 118.735 85.112 119.642 85.112C120.26 85.112 120.799 84.9707 121.258 84.688C121.722 84.4 122.087 83.9867 122.354 83.448L123.45 83.872C123.108 84.624 122.604 85.208 121.938 85.624C121.276 86.0347 120.527 86.24 119.69 86.24ZM116.386 82.008V81.024H122.986V82.008H116.386ZM124.113 87.92V84.992C124.604 84.992 124.956 84.8347 125.169 84.52C125.382 84.2 125.556 83.6907 125.689 82.992C125.78 82.5387 125.854 82.0507 125.913 81.528C125.972 81.0053 126.022 80.408 126.065 79.736C126.108 79.0587 126.148 78.2667 126.185 77.36H131.897V84.992H132.729V87.92H131.593V86H125.241V87.92H124.113ZM126.105 84.992H130.729V78.368H127.273C127.257 78.7733 127.233 79.2027 127.201 79.656C127.174 80.1093 127.14 80.5627 127.097 81.016C127.06 81.4693 127.014 81.896 126.961 82.296C126.913 82.6907 126.854 83.0373 126.785 83.336C126.705 83.72 126.617 84.048 126.521 84.32C126.43 84.592 126.292 84.816 126.105 84.992ZM137.347 86.24C136.505 86.24 135.774 86.0533 135.155 85.68C134.542 85.3067 134.065 84.7813 133.723 84.104C133.382 83.4267 133.211 82.632 133.211 81.72C133.211 80.776 133.379 79.96 133.715 79.272C134.051 78.584 134.523 78.0533 135.131 77.68C135.745 77.3067 136.467 77.12 137.299 77.12C138.153 77.12 138.881 77.3173 139.483 77.712C140.086 78.1013 140.542 78.6613 140.851 79.392C141.161 80.1227 141.302 80.9947 141.275 82.008H140.075V81.592C140.054 80.472 139.811 79.6267 139.347 79.056C138.889 78.4853 138.217 78.2 137.331 78.2C136.403 78.2 135.691 78.5013 135.195 79.104C134.705 79.7067 134.459 80.5653 134.459 81.68C134.459 82.768 134.705 83.6133 135.195 84.216C135.691 84.8133 136.393 85.112 137.299 85.112C137.918 85.112 138.457 84.9707 138.915 84.688C139.379 84.4 139.745 83.9867 140.011 83.448L141.107 83.872C140.766 84.624 140.262 85.208 139.595 85.624C138.934 86.0347 138.185 86.24 137.347 86.24ZM134.043 82.008V81.024H140.643V82.008H134.043ZM142.403 86V77.36H143.579V81.112H148.451V77.36H149.627V86H148.451V82.24H143.579V86H142.403ZM158.088 77.36V86H156.944V79.272L152.208 86H151.216V77.36H152.36V84.032L157.104 77.36H158.088ZM163.349 86.24C162.506 86.24 161.776 86.0533 161.157 85.68C160.544 85.3067 160.066 84.7813 159.725 84.104C159.384 83.4267 159.213 82.632 159.213 81.72C159.213 80.776 159.381 79.96 159.717 79.272C160.053 78.584 160.525 78.0533 161.133 77.68C161.746 77.3067 162.469 77.12 163.301 77.12C164.154 77.12 164.882 77.3173 165.485 77.712C166.088 78.1013 166.544 78.6613 166.853 79.392C167.162 80.1227 167.304 80.9947 167.277 82.008H166.077V81.592C166.056 80.472 165.813 79.6267 165.349 79.056C164.89 78.4853 164.218 78.2 163.333 78.2C162.405 78.2 161.693 78.5013 161.197 79.104C160.706 79.7067 160.461 80.5653 160.461 81.68C160.461 82.768 160.706 83.6133 161.197 84.216C161.693 84.8133 162.394 85.112 163.301 85.112C163.92 85.112 164.458 84.9707 164.917 84.688C165.381 84.4 165.746 83.9867 166.013 83.448L167.109 83.872C166.768 84.624 166.264 85.208 165.597 85.624C164.936 86.0347 164.186 86.24 163.349 86.24ZM160.045 82.008V81.024H166.645V82.008H160.045ZM169.052 84.72V83.352H170.42V84.72H169.052ZM169.06 80.008V78.64H170.428V80.008H169.06Z" fill="white"/>
<rect x="18" y="107" width="36" height="36" rx="10" fill="#325D45"/>
<path d="M32.3636 128.866L27.5909 124.164L26 125.731L32.3636 132L46 118.567L44.4091 117L32.3636 128.866Z" fill="white"/>
<rect x="65" y="107" width="36" height="36" rx="10" fill="#4E4E4E"/>
<rect x="112" y="107" width="36" height="36" rx="10" fill="#4E4E4E"/>
<path d="M19.12 181V169.48H27.944V181H26.768V170.608H20.296V181H19.12ZM33.1985 181.24C32.3558 181.24 31.6252 181.053 31.0065 180.68C30.3932 180.307 29.9158 179.781 29.5745 179.104C29.2332 178.427 29.0625 177.632 29.0625 176.72C29.0625 175.776 29.2305 174.96 29.5665 174.272C29.9025 173.584 30.3745 173.053 30.9825 172.68C31.5958 172.307 32.3185 172.12 33.1505 172.12C34.0038 172.12 34.7318 172.317 35.3345 172.712C35.9372 173.101 36.3932 173.661 36.7025 174.392C37.0118 175.123 37.1532 175.995 37.1265 177.008H35.9265V176.592C35.9052 175.472 35.6625 174.627 35.1985 174.056C34.7398 173.485 34.0678 173.2 33.1825 173.2C32.2545 173.2 31.5425 173.501 31.0465 174.104C30.5558 174.707 30.3105 175.565 30.3105 176.68C30.3105 177.768 30.5558 178.613 31.0465 179.216C31.5425 179.813 32.2438 180.112 33.1505 180.112C33.7692 180.112 34.3078 179.971 34.7665 179.688C35.2305 179.4 35.5958 178.987 35.8625 178.448L36.9585 178.872C36.6172 179.624 36.1132 180.208 35.4465 180.624C34.7852 181.035 34.0358 181.24 33.1985 181.24ZM29.8945 177.008V176.024H36.4945V177.008H29.8945ZM42.1419 181.24C41.3472 181.24 40.6752 181.04 40.1259 180.64C39.5765 180.235 39.1605 179.688 38.8779 179C38.5952 178.307 38.4539 177.531 38.4539 176.672C38.4539 175.797 38.5952 175.019 38.8779 174.336C39.1659 173.648 39.5872 173.107 40.1419 172.712C40.6965 172.317 41.3792 172.12 42.1899 172.12C42.9792 172.12 43.6565 172.32 44.2219 172.72C44.7872 173.12 45.2192 173.664 45.5179 174.352C45.8219 175.04 45.9739 175.813 45.9739 176.672C45.9739 177.536 45.8219 178.312 45.5179 179C45.2139 179.688 44.7765 180.235 44.2059 180.64C43.6352 181.04 42.9472 181.24 42.1419 181.24ZM38.2539 184.84V172.36H39.3099V178.864H39.4379V184.84H38.2539ZM42.0219 180.144C42.6245 180.144 43.1259 179.992 43.5259 179.688C43.9259 179.384 44.2245 178.971 44.4219 178.448C44.6245 177.92 44.7259 177.328 44.7259 176.672C44.7259 176.021 44.6272 175.435 44.4299 174.912C44.2325 174.389 43.9312 173.976 43.5259 173.672C43.1259 173.368 42.6165 173.216 41.9979 173.216C41.3952 173.216 40.8939 173.363 40.4939 173.656C40.0992 173.949 39.8032 174.357 39.6059 174.88C39.4085 175.397 39.3099 175.995 39.3099 176.672C39.3099 177.339 39.4085 177.936 39.6059 178.464C39.8032 178.987 40.1019 179.397 40.5019 179.696C40.9019 179.995 41.4085 180.144 42.0219 180.144ZM50.7466 181.24C49.904 181.24 49.1733 181.053 48.5546 180.68C47.9413 180.307 47.464 179.781 47.1226 179.104C46.7813 178.427 46.6106 177.632 46.6106 176.72C46.6106 175.776 46.7786 174.96 47.1146 174.272C47.4506 173.584 47.9226 173.053 48.5306 172.68C49.144 172.307 49.8666 172.12 50.6986 172.12C51.552 172.12 52.28 172.317 52.8826 172.712C53.4853 173.101 53.9413 173.661 54.2506 174.392C54.56 175.123 54.7013 175.995 54.6746 177.008H53.4746V176.592C53.4533 175.472 53.2106 174.627 52.7466 174.056C52.288 173.485 51.616 173.2 50.7306 173.2C49.8026 173.2 49.0906 173.501 48.5946 174.104C48.104 174.707 47.8586 175.565 47.8586 176.68C47.8586 177.768 48.104 178.613 48.5946 179.216C49.0906 179.813 49.792 180.112 50.6986 180.112C51.3173 180.112 51.856 179.971 52.3146 179.688C52.7786 179.4 53.144 178.987 53.4106 178.448L54.5066 178.872C54.1653 179.624 53.6613 180.208 52.9946 180.624C52.3333 181.035 51.584 181.24 50.7466 181.24ZM47.4426 177.008V176.024H54.0426V177.008H47.4426ZM59.69 181.24C58.8953 181.24 58.2233 181.04 57.674 180.64C57.1247 180.235 56.7087 179.688 56.426 179C56.1433 178.307 56.002 177.531 56.002 176.672C56.002 175.797 56.1433 175.019 56.426 174.336C56.714 173.648 57.1353 173.107 57.69 172.712C58.2447 172.317 58.9273 172.12 59.738 172.12C60.5273 172.12 61.2047 172.32 61.77 172.72C62.3353 173.12 62.7673 173.664 63.066 174.352C63.37 175.04 63.522 175.813 63.522 176.672C63.522 177.536 63.37 178.312 63.066 179C62.762 179.688 62.3247 180.235 61.754 180.64C61.1833 181.04 60.4953 181.24 59.69 181.24ZM55.802 184.84V172.36H56.858V178.864H56.986V184.84H55.802ZM59.57 180.144C60.1727 180.144 60.674 179.992 61.074 179.688C61.474 179.384 61.7727 178.971 61.97 178.448C62.1727 177.92 62.274 177.328 62.274 176.672C62.274 176.021 62.1753 175.435 61.978 174.912C61.7807 174.389 61.4793 173.976 61.074 173.672C60.674 173.368 60.1647 173.216 59.546 173.216C58.9433 173.216 58.442 173.363 58.042 173.656C57.6473 173.949 57.3513 174.357 57.154 174.88C56.9567 175.397 56.858 175.995 56.858 176.672C56.858 177.339 56.9567 177.936 57.154 178.464C57.3513 178.987 57.65 179.397 58.05 179.696C58.45 179.995 58.9567 180.144 59.57 180.144ZM64.6467 181L64.6307 172.36H65.8147V175.616H67.3187C67.5694 175.616 67.8147 175.621 68.0547 175.632C68.2947 175.643 68.5107 175.664 68.7027 175.696C69.1294 175.781 69.5081 175.925 69.8387 176.128C70.1694 176.331 70.4307 176.611 70.6227 176.968C70.8147 177.32 70.9107 177.765 70.9107 178.304C70.9107 179.045 70.7187 179.629 70.3347 180.056C69.9507 180.483 69.4681 180.76 68.8867 180.888C68.6681 180.936 68.4307 180.968 68.1747 180.984C67.9187 180.995 67.6681 181 67.4227 181H64.6467ZM65.8147 179.992H67.3747C67.5507 179.992 67.7507 179.987 67.9747 179.976C68.1987 179.965 68.3961 179.936 68.5667 179.888C68.8547 179.808 69.1134 179.648 69.3427 179.408C69.5774 179.163 69.6947 178.795 69.6947 178.304C69.6947 177.819 69.5827 177.453 69.3587 177.208C69.1347 176.957 68.8361 176.792 68.4627 176.712C68.2921 176.675 68.1107 176.651 67.9187 176.64C67.7321 176.629 67.5507 176.624 67.3747 176.624H65.8147V179.992ZM71.9427 181V172.36H73.1187V181H71.9427ZM74.7095 181V172.36H78.2695C78.4508 172.36 78.6695 172.371 78.9255 172.392C79.1868 172.413 79.4295 172.453 79.6535 172.512C80.1388 172.64 80.5282 172.901 80.8215 173.296C81.1202 173.691 81.2695 174.165 81.2695 174.72C81.2695 175.029 81.2215 175.307 81.1255 175.552C81.0348 175.792 80.9042 176 80.7335 176.176C80.6535 176.267 80.5655 176.347 80.4695 176.416C80.3735 176.48 80.2802 176.533 80.1895 176.576C80.3602 176.608 80.5442 176.683 80.7415 176.8C81.0508 176.981 81.2855 177.227 81.4455 177.536C81.6055 177.84 81.6855 178.211 81.6855 178.648C81.6855 179.24 81.5442 179.723 81.2615 180.096C80.9788 180.469 80.6002 180.725 80.1255 180.864C79.9122 180.923 79.6802 180.96 79.4295 180.976C79.1842 180.992 78.9522 181 78.7335 181H74.7095ZM75.8935 180H78.6775C78.7895 180 78.9308 179.992 79.1015 179.976C79.2722 179.955 79.4242 179.928 79.5575 179.896C79.8722 179.816 80.1015 179.656 80.2455 179.416C80.3948 179.171 80.4695 178.904 80.4695 178.616C80.4695 178.237 80.3575 177.928 80.1335 177.688C79.9148 177.443 79.6215 177.293 79.2535 177.24C79.1308 177.213 79.0028 177.197 78.8695 177.192C78.7362 177.187 78.6162 177.184 78.5095 177.184H75.8935V180ZM75.8935 176.176H78.3095C78.4482 176.176 78.6028 176.168 78.7735 176.152C78.9495 176.131 79.1015 176.096 79.2295 176.048C79.5068 175.952 79.7095 175.787 79.8375 175.552C79.9708 175.317 80.0375 175.061 80.0375 174.784C80.0375 174.48 79.9655 174.213 79.8215 173.984C79.6828 173.755 79.4722 173.595 79.1895 173.504C78.9975 173.435 78.7895 173.395 78.5655 173.384C78.3468 173.373 78.2082 173.368 78.1495 173.368H75.8935V176.176ZM85.1951 181V172.36H92.0671V181H90.8911V173.488H86.3711V181H85.1951ZM97.3285 181.24C96.4858 181.24 95.7552 181.053 95.1365 180.68C94.5232 180.307 94.0458 179.781 93.7045 179.104C93.3632 178.427 93.1925 177.632 93.1925 176.72C93.1925 175.776 93.3605 174.96 93.6965 174.272C94.0325 173.584 94.5045 173.053 95.1125 172.68C95.7258 172.307 96.4485 172.12 97.2805 172.12C98.1338 172.12 98.8618 172.317 99.4645 172.712C100.067 173.101 100.523 173.661 100.832 174.392C101.142 175.123 101.283 175.995 101.256 177.008H100.056V176.592C100.035 175.472 99.7925 174.627 99.3285 174.056C98.8698 173.485 98.1978 173.2 97.3125 173.2C96.3845 173.2 95.6725 173.501 95.1765 174.104C94.6858 174.707 94.4405 175.565 94.4405 176.68C94.4405 177.768 94.6858 178.613 95.1765 179.216C95.6725 179.813 96.3738 180.112 97.2805 180.112C97.8992 180.112 98.4378 179.971 98.8965 179.688C99.3605 179.4 99.7258 178.987 99.9925 178.448L101.088 178.872C100.747 179.624 100.243 180.208 99.5765 180.624C98.9152 181.035 98.1658 181.24 97.3285 181.24ZM94.0245 177.008V176.024H100.624V177.008H94.0245ZM106.272 181.24C105.477 181.24 104.805 181.04 104.256 180.64C103.707 180.235 103.291 179.688 103.008 179C102.725 178.307 102.584 177.531 102.584 176.672C102.584 175.797 102.725 175.019 103.008 174.336C103.296 173.648 103.717 173.107 104.272 172.712C104.827 172.317 105.509 172.12 106.32 172.12C107.109 172.12 107.787 172.32 108.352 172.72C108.917 173.12 109.349 173.664 109.648 174.352C109.952 175.04 110.104 175.813 110.104 176.672C110.104 177.536 109.952 178.312 109.648 179C109.344 179.688 108.907 180.235 108.336 180.64C107.765 181.04 107.077 181.24 106.272 181.24ZM102.384 184.84V172.36H103.44V178.864H103.568V184.84H102.384ZM106.152 180.144C106.755 180.144 107.256 179.992 107.656 179.688C108.056 179.384 108.355 178.971 108.552 178.448C108.755 177.92 108.856 177.328 108.856 176.672C108.856 176.021 108.757 175.435 108.56 174.912C108.363 174.389 108.061 173.976 107.656 173.672C107.256 173.368 106.747 173.216 106.128 173.216C105.525 173.216 105.024 173.363 104.624 173.656C104.229 173.949 103.933 174.357 103.736 174.88C103.539 175.397 103.44 175.995 103.44 176.672C103.44 177.339 103.539 177.936 103.736 178.464C103.933 178.987 104.232 179.397 104.632 179.696C105.032 179.995 105.539 180.144 106.152 180.144ZM114.877 181.24C114.034 181.24 113.303 181.053 112.685 180.68C112.071 180.307 111.594 179.781 111.253 179.104C110.911 178.427 110.741 177.632 110.741 176.72C110.741 175.776 110.909 174.96 111.245 174.272C111.581 173.584 112.053 173.053 112.661 172.68C113.274 172.307 113.997 172.12 114.829 172.12C115.682 172.12 116.41 172.317 117.013 172.712C117.615 173.101 118.071 173.661 118.381 174.392C118.69 175.123 118.831 175.995 118.805 177.008H117.605V176.592C117.583 175.472 117.341 174.627 116.877 174.056C116.418 173.485 115.746 173.2 114.861 173.2C113.933 173.2 113.221 173.501 112.725 174.104C112.234 174.707 111.989 175.565 111.989 176.68C111.989 177.768 112.234 178.613 112.725 179.216C113.221 179.813 113.922 180.112 114.829 180.112C115.447 180.112 115.986 179.971 116.445 179.688C116.909 179.4 117.274 178.987 117.541 178.448L118.637 178.872C118.295 179.624 117.791 180.208 117.125 180.624C116.463 181.035 115.714 181.24 114.877 181.24ZM111.573 177.008V176.024H118.173V177.008H111.573ZM119.3 182.92V179.992C119.791 179.992 120.143 179.835 120.356 179.52C120.569 179.2 120.743 178.691 120.876 177.992C120.967 177.539 121.041 177.051 121.1 176.528C121.159 176.005 121.209 175.408 121.252 174.736C121.295 174.059 121.335 173.267 121.372 172.36H127.084V179.992H127.916V182.92H126.78V181H120.428V182.92H119.3ZM121.292 179.992H125.916V173.368H122.46C122.444 173.773 122.42 174.203 122.388 174.656C122.361 175.109 122.327 175.563 122.284 176.016C122.247 176.469 122.201 176.896 122.148 177.296C122.1 177.691 122.041 178.037 121.972 178.336C121.892 178.72 121.804 179.048 121.708 179.32C121.617 179.592 121.479 179.816 121.292 179.992ZM135.025 181.24C134.156 181.24 133.42 181.045 132.817 180.656C132.215 180.267 131.756 179.731 131.441 179.048C131.132 178.36 130.972 177.571 130.961 176.68C130.972 175.773 131.137 174.979 131.457 174.296C131.777 173.608 132.239 173.075 132.841 172.696C133.444 172.312 134.175 172.12 135.033 172.12C135.908 172.12 136.668 172.333 137.313 172.76C137.964 173.187 138.409 173.771 138.649 174.512L137.497 174.88C137.295 174.363 136.972 173.963 136.529 173.68C136.092 173.392 135.591 173.248 135.025 173.248C134.391 173.248 133.865 173.395 133.449 173.688C133.033 173.976 132.724 174.379 132.521 174.896C132.319 175.413 132.215 176.008 132.209 176.68C132.22 177.715 132.46 178.547 132.929 179.176C133.399 179.8 134.097 180.112 135.025 180.112C135.612 180.112 136.111 179.979 136.521 179.712C136.937 179.44 137.252 179.045 137.465 178.528L138.649 178.88C138.329 179.648 137.86 180.235 137.241 180.64C136.623 181.04 135.884 181.24 135.025 181.24ZM138.626 181V179.968C138.946 180.027 139.189 180.013 139.354 179.928C139.525 179.837 139.65 179.688 139.73 179.48C139.81 179.267 139.877 179.003 139.93 178.688C140.016 178.165 140.093 177.589 140.162 176.96C140.232 176.331 140.293 175.637 140.346 174.88C140.405 174.117 140.464 173.277 140.522 172.36H146.394V181H145.226V173.488H141.61C141.573 174.053 141.53 174.616 141.482 175.176C141.434 175.736 141.384 176.275 141.33 176.792C141.282 177.304 141.229 177.776 141.17 178.208C141.112 178.64 141.05 179.013 140.986 179.328C140.89 179.803 140.762 180.181 140.602 180.464C140.448 180.747 140.216 180.933 139.906 181.024C139.597 181.115 139.17 181.107 138.626 181ZM151.645 181.24C150.803 181.24 150.072 181.053 149.453 180.68C148.84 180.307 148.363 179.781 148.021 179.104C147.68 178.427 147.509 177.632 147.509 176.72C147.509 175.776 147.677 174.96 148.013 174.272C148.349 173.584 148.821 173.053 149.429 172.68C150.043 172.307 150.765 172.12 151.597 172.12C152.451 172.12 153.179 172.317 153.781 172.712C154.384 173.101 154.84 173.661 155.149 174.392C155.459 175.123 155.6 175.995 155.573 177.008H154.373V176.592C154.352 175.472 154.109 174.627 153.645 174.056C153.187 173.485 152.515 173.2 151.629 173.2C150.701 173.2 149.989 173.501 149.493 174.104C149.003 174.707 148.757 175.565 148.757 176.68C148.757 177.768 149.003 178.613 149.493 179.216C149.989 179.813 150.691 180.112 151.597 180.112C152.216 180.112 152.755 179.971 153.213 179.688C153.677 179.4 154.043 178.987 154.309 178.448L155.405 178.872C155.064 179.624 154.56 180.208 153.893 180.624C153.232 181.035 152.483 181.24 151.645 181.24ZM148.341 177.008V176.024H154.941V177.008H148.341ZM156.069 182.92V179.992C156.559 179.992 156.911 179.835 157.125 179.52C157.338 179.2 157.511 178.691 157.645 177.992C157.735 177.539 157.81 177.051 157.869 176.528C157.927 176.005 157.978 175.408 158.021 174.736C158.063 174.059 158.103 173.267 158.141 172.36H163.853V179.992H164.685V182.92H163.549V181H157.197V182.92H156.069ZM158.061 179.992H162.685V173.368H159.229C159.213 173.773 159.189 174.203 159.157 174.656C159.13 175.109 159.095 175.563 159.053 176.016C159.015 176.469 158.97 176.896 158.917 177.296C158.869 177.691 158.81 178.037 158.741 178.336C158.661 178.72 158.573 179.048 158.477 179.32C158.386 179.592 158.247 179.816 158.061 179.992ZM166.879 184.84L168.551 180.304L168.575 181.648L164.791 172.36H166.039L169.143 180.128H168.631L171.495 172.36H172.695L168.055 184.84H166.879ZM180.244 181.24C179.482 181.24 178.818 181.077 178.252 180.752C177.687 180.421 177.236 179.96 176.9 179.368C176.57 178.771 176.37 178.069 176.3 177.264H174.612V181H173.436V172.36H174.612V176.096H176.292C176.362 175.28 176.564 174.576 176.9 173.984C177.242 173.387 177.695 172.928 178.26 172.608C178.831 172.283 179.495 172.12 180.252 172.12C181.111 172.12 181.844 172.315 182.452 172.704C183.066 173.093 183.532 173.629 183.852 174.312C184.178 174.995 184.34 175.779 184.34 176.664C184.34 177.571 184.175 178.368 183.844 179.056C183.519 179.744 183.05 180.28 182.436 180.664C181.828 181.048 181.098 181.24 180.244 181.24ZM180.22 180.112C181.191 180.112 181.911 179.797 182.38 179.168C182.855 178.533 183.092 177.701 183.092 176.672C183.092 175.621 182.852 174.789 182.372 174.176C181.898 173.557 181.183 173.248 180.228 173.248C179.316 173.248 178.618 173.552 178.132 174.16C177.647 174.763 177.404 175.597 177.404 176.664C177.404 177.709 177.642 178.547 178.116 179.176C178.596 179.8 179.298 180.112 180.22 180.112ZM195.309 182.496V181H185.453V172.36H186.597V179.912H189.837V172.36H190.981V179.912H194.213V172.36H195.357V179.912H196.485V182.496H195.309ZM200.773 181.24C199.931 181.24 199.2 181.053 198.581 180.68C197.968 180.307 197.491 179.781 197.149 179.104C196.808 178.427 196.637 177.632 196.637 176.72C196.637 175.776 196.805 174.96 197.141 174.272C197.477 173.584 197.949 173.053 198.557 172.68C199.171 172.307 199.893 172.12 200.725 172.12C201.579 172.12 202.307 172.317 202.909 172.712C203.512 173.101 203.968 173.661 204.277 174.392C204.587 175.123 204.728 175.995 204.701 177.008H203.501V176.592C203.48 175.472 203.237 174.627 202.773 174.056C202.315 173.485 201.643 173.2 200.757 173.2C199.829 173.2 199.117 173.501 198.621 174.104C198.131 174.707 197.885 175.565 197.885 176.68C197.885 177.768 198.131 178.613 198.621 179.216C199.117 179.813 199.819 180.112 200.725 180.112C201.344 180.112 201.883 179.971 202.341 179.688C202.805 179.4 203.171 178.987 203.437 178.448L204.533 178.872C204.192 179.624 203.688 180.208 203.021 180.624C202.36 181.035 201.611 181.24 200.773 181.24ZM197.469 177.008V176.024H204.069V177.008H197.469ZM209.421 171.336C209.042 171.336 208.696 171.243 208.381 171.056C208.066 170.869 207.816 170.621 207.629 170.312C207.448 169.997 207.357 169.651 207.357 169.272H208.333C208.333 169.571 208.44 169.827 208.653 170.04C208.866 170.253 209.122 170.36 209.421 170.36C209.725 170.36 209.981 170.253 210.189 170.04C210.402 169.827 210.509 169.571 210.509 169.272H211.485C211.485 169.651 211.392 169.997 211.205 170.312C211.024 170.621 210.776 170.869 210.461 171.056C210.146 171.243 209.8 171.336 209.421 171.336ZM212.701 172.36V181H211.557V174.272L206.821 181H205.829V172.36H206.973V179.032L211.717 172.36H212.701ZM216.869 181V172.36H222.789V173.488H218.045V181H216.869ZM227.547 181.24C226.752 181.24 226.08 181.04 225.531 180.64C224.982 180.235 224.566 179.688 224.283 179C224 178.307 223.859 177.531 223.859 176.672C223.859 175.797 224 175.019 224.283 174.336C224.571 173.648 224.992 173.107 225.547 172.712C226.102 172.317 226.784 172.12 227.595 172.12C228.384 172.12 229.062 172.32 229.627 172.72C230.192 173.12 230.624 173.664 230.923 174.352C231.227 175.04 231.379 175.813 231.379 176.672C231.379 177.536 231.227 178.312 230.923 179C230.619 179.688 230.182 180.235 229.611 180.64C229.04 181.04 228.352 181.24 227.547 181.24ZM223.659 184.84V172.36H224.715V178.864H224.843V184.84H223.659ZM227.427 180.144C228.03 180.144 228.531 179.992 228.931 179.688C229.331 179.384 229.63 178.971 229.827 178.448C230.03 177.92 230.131 177.328 230.131 176.672C230.131 176.021 230.032 175.435 229.835 174.912C229.638 174.389 229.336 173.976 228.931 173.672C228.531 173.368 228.022 173.216 227.403 173.216C226.8 173.216 226.299 173.363 225.899 173.656C225.504 173.949 225.208 174.357 225.011 174.88C224.814 175.397 224.715 175.995 224.715 176.672C224.715 177.339 224.814 177.936 225.011 178.464C225.208 178.987 225.507 179.397 225.907 179.696C226.307 179.995 226.814 180.144 227.427 180.144ZM233.415 184.84L235.087 180.304L235.111 181.648L231.327 172.36H232.575L235.679 180.128H235.167L238.031 172.36H239.231L234.591 184.84H233.415ZM239.973 181V172.36H246.845V181H245.669V173.488H241.149V181H239.973ZM248.442 181V172.36H255.314V181H254.138V173.488H249.618V181H248.442ZM260.527 181.24C259.669 181.24 258.935 181.045 258.327 180.656C257.719 180.267 257.253 179.728 256.927 179.04C256.602 178.352 256.439 177.563 256.439 176.672C256.439 175.765 256.605 174.971 256.935 174.288C257.266 173.605 257.735 173.075 258.343 172.696C258.957 172.312 259.685 172.12 260.527 172.12C261.391 172.12 262.127 172.315 262.735 172.704C263.349 173.088 263.815 173.624 264.135 174.312C264.461 174.995 264.623 175.781 264.623 176.672C264.623 177.579 264.461 178.376 264.135 179.064C263.81 179.747 263.341 180.28 262.727 180.664C262.114 181.048 261.381 181.24 260.527 181.24ZM260.527 180.112C261.487 180.112 262.202 179.795 262.671 179.16C263.141 178.52 263.375 177.691 263.375 176.672C263.375 175.627 263.138 174.795 262.663 174.176C262.194 173.557 261.482 173.248 260.527 173.248C259.882 173.248 259.349 173.395 258.927 173.688C258.511 173.976 258.199 174.379 257.991 174.896C257.789 175.408 257.687 176 257.687 176.672C257.687 177.712 257.927 178.547 258.407 179.176C258.887 179.8 259.594 180.112 260.527 180.112ZM269.332 171.336C268.953 171.336 268.607 171.243 268.292 171.056C267.977 170.869 267.727 170.621 267.54 170.312C267.359 169.997 267.268 169.651 267.268 169.272H268.244C268.244 169.571 268.351 169.827 268.564 170.04C268.777 170.253 269.033 170.36 269.332 170.36C269.636 170.36 269.892 170.253 270.1 170.04C270.313 169.827 270.42 169.571 270.42 169.272H271.396C271.396 169.651 271.303 169.997 271.116 170.312C270.935 170.621 270.687 170.869 270.372 171.056C270.057 171.243 269.711 171.336 269.332 171.336ZM272.612 172.36V181H271.468V174.272L266.732 181H265.74V172.36H266.884V179.032L271.628 172.36H272.612ZM274.858 179.72V178.352H276.226V179.72H274.858ZM274.866 175.008V173.64H276.234V175.008H274.866Z" fill="white"/>
<rect x="112" y="202" width="36" height="36" rx="10" fill="#4E4E4E"/>
<rect x="65" y="202" width="36" height="36" rx="10" fill="#4E4E4E"/>
<rect x="18" y="202" width="36" height="36" rx="10" fill="#4E4E4E"/>
<path d="M0 10C0 4.47715 4.47715 0 10 0H326C331.523 0 336 4.47715 336 10V48H0V10Z" fill="#325D45"/>
<path d="M0 10C0 4.47715 4.47715 0 10 0H326C331.523 0 336 4.47715 336 10V48H0V10Z" fill="url(#paint0_linear_89_954)"/>
<path d="M132.368 30V18.48H133.448L137.976 28.168L142.48 18.48H143.576V29.992H142.456V21.104L138.352 30H137.592L133.496 21.104V30H132.368ZM147.653 30.24C147.002 30.24 146.456 30.1227 146.013 29.888C145.576 29.6533 145.248 29.3413 145.029 28.952C144.81 28.5627 144.701 28.1387 144.701 27.68C144.701 27.2107 144.794 26.8107 144.981 26.48C145.173 26.144 145.432 25.8693 145.757 25.656C146.088 25.4427 146.469 25.28 146.901 25.168C147.338 25.0613 147.821 24.968 148.349 24.888C148.882 24.8027 149.402 24.7307 149.909 24.672C150.421 24.608 150.869 24.5467 151.253 24.488L150.837 24.744C150.853 23.8907 150.688 23.2587 150.341 22.848C149.994 22.4373 149.392 22.232 148.533 22.232C147.941 22.232 147.44 22.3653 147.029 22.632C146.624 22.8987 146.338 23.32 146.173 23.896L145.029 23.56C145.226 22.7867 145.624 22.1867 146.221 21.76C146.818 21.3333 147.594 21.12 148.549 21.12C149.338 21.12 150.008 21.2693 150.557 21.568C151.112 21.8613 151.504 22.288 151.733 22.848C151.84 23.0987 151.909 23.3787 151.941 23.688C151.973 23.9973 151.989 24.312 151.989 24.632V30H150.941V27.832L151.245 27.96C150.952 28.7013 150.496 29.2667 149.877 29.656C149.258 30.0453 148.517 30.24 147.653 30.24ZM147.789 29.224C148.338 29.224 148.818 29.1253 149.229 28.928C149.64 28.7307 149.97 28.4613 150.221 28.12C150.472 27.7733 150.634 27.384 150.709 26.952C150.773 26.6747 150.808 26.3707 150.813 26.04C150.818 25.704 150.821 25.4533 150.821 25.288L151.269 25.52C150.869 25.5733 150.434 25.6267 149.965 25.68C149.501 25.7333 149.042 25.7947 148.589 25.864C148.141 25.9333 147.736 26.016 147.373 26.112C147.128 26.1813 146.89 26.28 146.661 26.408C146.432 26.5307 146.242 26.696 146.093 26.904C145.949 27.112 145.877 27.3707 145.877 27.68C145.877 27.9307 145.938 28.1733 146.061 28.408C146.189 28.6427 146.392 28.8373 146.669 28.992C146.952 29.1467 147.325 29.224 147.789 29.224ZM153.424 30V21.36H154.6V25.112H159.472V21.36H160.648V30H159.472V26.24H154.6V30H153.424ZM162.237 30V21.36H163.413V25.112H168.285V21.36H169.461V30H168.285V26.24H163.413V30H162.237ZM177.922 21.36V30H176.778V23.272L172.042 30H171.05V21.36H172.194V28.032L176.938 21.36H177.922ZM181.871 30V22.448H178.807V21.36H186.111V22.448H183.047V30H181.871ZM190.448 30.24C189.59 30.24 188.856 30.0453 188.248 29.656C187.64 29.2667 187.174 28.728 186.848 28.04C186.523 27.352 186.36 26.5627 186.36 25.672C186.36 24.7653 186.526 23.9707 186.856 23.288C187.187 22.6053 187.656 22.0747 188.264 21.696C188.878 21.312 189.606 21.12 190.448 21.12C191.312 21.12 192.048 21.3147 192.656 21.704C193.27 22.088 193.736 22.624 194.056 23.312C194.382 23.9947 194.544 24.7813 194.544 25.672C194.544 26.5787 194.382 27.376 194.056 28.064C193.731 28.7467 193.262 29.28 192.648 29.664C192.035 30.048 191.302 30.24 190.448 30.24ZM190.448 29.112C191.408 29.112 192.123 28.7947 192.592 28.16C193.062 27.52 193.296 26.6907 193.296 25.672C193.296 24.6267 193.059 23.7947 192.584 23.176C192.115 22.5573 191.403 22.248 190.448 22.248C189.803 22.248 189.27 22.3947 188.848 22.688C188.432 22.976 188.12 23.3787 187.912 23.896C187.71 24.408 187.608 25 187.608 25.672C187.608 26.712 187.848 27.5467 188.328 28.176C188.808 28.8 189.515 29.112 190.448 29.112ZM194.869 30V28.968C195.189 29.0267 195.432 29.0133 195.597 28.928C195.768 28.8373 195.893 28.688 195.973 28.48C196.053 28.2667 196.12 28.0027 196.173 27.688C196.258 27.1653 196.336 26.5893 196.405 25.96C196.474 25.3307 196.536 24.6373 196.589 23.88C196.648 23.1173 196.706 22.2773 196.765 21.36H202.637V30H201.469V22.488H197.853C197.816 23.0533 197.773 23.616 197.725 24.176C197.677 24.736 197.626 25.2747 197.573 25.792C197.525 26.304 197.472 26.776 197.413 27.208C197.354 27.64 197.293 28.0133 197.229 28.328C197.133 28.8027 197.005 29.1813 196.845 29.464C196.69 29.7467 196.458 29.9333 196.149 30.024C195.84 30.1147 195.413 30.1067 194.869 30Z" fill="white"/>
<defs>
<linearGradient id="paint0_linear_89_954" x1="0" y1="0" x2="336" y2="0" gradientUnits="userSpaceOnUse">
<stop stop-color="#325D45"/>
<stop offset="0.142857" stop-color="#2D594D"/>
<stop offset="0.285714" stop-color="#2A5552"/>
<stop offset="0.428571" stop-color="#295156"/>
<stop offset="0.571429" stop-color="#294D58"/>
<stop offset="0.714286" stop-color="#2A495B"/>
<stop offset="0.857143" stop-color="#2D445D"/>
<stop offset="1" stop-color="#323E5D"/>
</linearGradient>
</defs>
</svg>
