<svg width="336" height="211" viewBox="0 0 336 211" fill="none" xmlns="http://www.w3.org/2000/svg">
<rect width="336" height="211" rx="10" fill="#323232"/>
<path d="M10.584 29.92V26.872C11.032 26.872 11.392 26.76 11.664 26.536C11.936 26.3067 12.144 26.0027 12.288 25.624C12.432 25.2453 12.5413 24.8213 12.616 24.352C12.6907 23.8773 12.7547 23.3973 12.808 22.912C12.8827 22.2027 12.9413 21.5173 12.984 20.856C13.032 20.1947 13.072 19.5093 13.104 18.8C13.1413 18.0907 13.184 17.3147 13.232 16.472L20.336 16.48V26.872H21.16V29.92H19.992V28H11.76V29.92H10.584ZM12.832 26.872H19.16V17.608L14.328 17.6C14.296 18.2507 14.264 18.88 14.232 19.488C14.2 20.096 14.1627 20.7093 14.12 21.328C14.0773 21.9467 14.0213 22.592 13.952 23.264C13.8933 23.8773 13.824 24.4133 13.744 24.872C13.664 25.3307 13.552 25.7227 13.408 26.048C13.2693 26.3733 13.0773 26.648 12.832 26.872ZM22.2689 28V19.36H23.4449V23.112H28.3169V19.36H29.4929V28H28.3169V24.24H23.4449V28H22.2689ZM34.746 28.24C33.9033 28.24 33.1727 28.0533 32.554 27.68C31.9407 27.3067 31.4633 26.7813 31.122 26.104C30.7807 25.4267 30.61 24.632 30.61 23.72C30.61 22.776 30.778 21.96 31.114 21.272C31.45 20.584 31.922 20.0533 32.53 19.68C33.1433 19.3067 33.866 19.12 34.698 19.12C35.5513 19.12 36.2793 19.3173 36.882 19.712C37.4847 20.1013 37.9407 20.6613 38.25 21.392C38.5593 22.1227 38.7007 22.9947 38.674 24.008H37.474V23.592C37.4527 22.472 37.21 21.6267 36.746 21.056C36.2873 20.4853 35.6153 20.2 34.73 20.2C33.802 20.2 33.09 20.5013 32.594 21.104C32.1033 21.7067 31.858 22.5653 31.858 23.68C31.858 24.768 32.1033 25.6133 32.594 26.216C33.09 26.8133 33.7913 27.112 34.698 27.112C35.3167 27.112 35.8553 26.9707 36.314 26.688C36.778 26.4 37.1433 25.9867 37.41 25.448L38.506 25.872C38.1647 26.624 37.6607 27.208 36.994 27.624C36.3327 28.0347 35.5833 28.24 34.746 28.24ZM31.442 24.008V23.024H38.042V24.008H31.442ZM43.3934 18.336C43.0147 18.336 42.668 18.2427 42.3534 18.056C42.0387 17.8693 41.788 17.6213 41.6014 17.312C41.42 16.9973 41.3294 16.6507 41.3294 16.272H42.3054C42.3054 16.5707 42.412 16.8267 42.6254 17.04C42.8387 17.2533 43.0947 17.36 43.3934 17.36C43.6974 17.36 43.9534 17.2533 44.1614 17.04C44.3747 16.8267 44.4814 16.5707 44.4814 16.272H45.4574C45.4574 16.6507 45.364 16.9973 45.1774 17.312C44.996 17.6213 44.748 17.8693 44.4334 18.056C44.1187 18.2427 43.772 18.336 43.3934 18.336ZM46.6734 19.36V28H45.5294V21.272L40.7934 28H39.8014V19.36H40.9454V26.032L45.6894 19.36H46.6734ZM54.4259 28.24C53.5565 28.24 52.8205 28.0453 52.2179 27.656C51.6152 27.2667 51.1565 26.7307 50.8419 26.048C50.5325 25.36 50.3725 24.5707 50.3619 23.68C50.3725 22.7733 50.5379 21.9787 50.8579 21.296C51.1779 20.608 51.6392 20.0747 52.2419 19.696C52.8445 19.312 53.5752 19.12 54.4339 19.12C55.3085 19.12 56.0685 19.3333 56.7139 19.76C57.3645 20.1867 57.8099 20.7707 58.0499 21.512L56.8979 21.88C56.6952 21.3627 56.3725 20.9627 55.9299 20.68C55.4925 20.392 54.9912 20.248 54.4259 20.248C53.7912 20.248 53.2659 20.3947 52.8499 20.688C52.4339 20.976 52.1245 21.3787 51.9219 21.896C51.7192 22.4133 51.6152 23.008 51.6099 23.68C51.6205 24.7147 51.8605 25.5467 52.3299 26.176C52.7992 26.8 53.4979 27.112 54.4259 27.112C55.0125 27.112 55.5112 26.9787 55.9219 26.712C56.3379 26.44 56.6525 26.0453 56.8659 25.528L58.0499 25.88C57.7299 26.648 57.2605 27.2347 56.6419 27.64C56.0232 28.04 55.2845 28.24 54.4259 28.24ZM62.8564 31.84L64.5284 27.304L64.5524 28.648L60.7684 19.36H62.0164L65.1204 27.128H64.6084L67.4724 19.36H68.6724L64.0324 31.84H62.8564ZM68.3094 28V26.968C68.6294 27.0267 68.872 27.0133 69.0374 26.928C69.208 26.8373 69.3334 26.688 69.4134 26.48C69.4934 26.2667 69.56 26.0027 69.6134 25.688C69.6987 25.1653 69.776 24.5893 69.8454 23.96C69.9147 23.3307 69.976 22.6373 70.0294 21.88C70.088 21.1173 70.1467 20.2773 70.2054 19.36H76.0774V28H74.9094V20.488H71.2934C71.256 21.0533 71.2134 21.616 71.1654 22.176C71.1174 22.736 71.0667 23.2747 71.0134 23.792C70.9654 24.304 70.912 24.776 70.8534 25.208C70.7947 25.64 70.7334 26.0133 70.6694 26.328C70.5734 26.8027 70.4454 27.1813 70.2854 27.464C70.1307 27.7467 69.8987 27.9333 69.5894 28.024C69.28 28.1147 68.8534 28.1067 68.3094 28ZM78.9045 31.84L80.5765 27.304L80.6005 28.648L76.8165 19.36H78.0645L81.1685 27.128H80.6565L83.5205 19.36H84.7205L80.0805 31.84H78.9045ZM90.758 28V24.784C90.47 24.928 90.1153 25.0533 89.694 25.16C89.2727 25.2667 88.8193 25.32 88.334 25.32C87.4593 25.32 86.75 25.1253 86.206 24.736C85.662 24.3467 85.3073 23.784 85.142 23.048C85.0887 22.8293 85.0513 22.5973 85.03 22.352C85.014 22.1067 85.0033 21.8853 84.998 21.688C84.9927 21.4907 84.99 21.3493 84.99 21.264V19.36H86.174V21.264C86.174 21.44 86.1793 21.64 86.19 21.864C86.2007 22.088 86.2247 22.3067 86.262 22.52C86.3687 23.1013 86.6087 23.5413 86.982 23.84C87.3607 24.1387 87.8913 24.288 88.574 24.288C89.0007 24.288 89.4033 24.2347 89.782 24.128C90.166 24.016 90.4913 23.8667 90.758 23.68V19.36H91.934V28H90.758ZM93.5251 28V19.36H94.6691V26.912H97.9091V19.36H99.0531V26.912H102.285V19.36H103.429V28H93.5251ZM108.69 28.24C107.847 28.24 107.116 28.0533 106.498 27.68C105.884 27.3067 105.407 26.7813 105.066 26.104C104.724 25.4267 104.554 24.632 104.554 23.72C104.554 22.776 104.722 21.96 105.058 21.272C105.394 20.584 105.866 20.0533 106.474 19.68C107.087 19.3067 107.81 19.12 108.642 19.12C109.495 19.12 110.223 19.3173 110.826 19.712C111.428 20.1013 111.884 20.6613 112.194 21.392C112.503 22.1227 112.644 22.9947 112.618 24.008H111.418V23.592C111.396 22.472 111.154 21.6267 110.69 21.056C110.231 20.4853 109.559 20.2 108.674 20.2C107.746 20.2 107.034 20.5013 106.538 21.104C106.047 21.7067 105.802 22.5653 105.802 23.68C105.802 24.768 106.047 25.6133 106.538 26.216C107.034 26.8133 107.735 27.112 108.642 27.112C109.26 27.112 109.799 26.9707 110.258 26.688C110.722 26.4 111.087 25.9867 111.354 25.448L112.45 25.872C112.108 26.624 111.604 27.208 110.938 27.624C110.276 28.0347 109.527 28.24 108.69 28.24ZM105.386 24.008V23.024H111.986V24.008H105.386ZM113.745 28V19.36H114.921V23.112H119.793V19.36H120.969V28H119.793V24.24H114.921V28H113.745ZM129.43 19.36V28H128.286V21.272L123.55 28H122.558V19.36H123.702V26.032L128.446 19.36H129.43ZM134.692 28.24C133.849 28.24 133.118 28.0533 132.5 27.68C131.886 27.3067 131.409 26.7813 131.068 26.104C130.726 25.4267 130.556 24.632 130.556 23.72C130.556 22.776 130.724 21.96 131.06 21.272C131.396 20.584 131.868 20.0533 132.476 19.68C133.089 19.3067 133.812 19.12 134.644 19.12C135.497 19.12 136.225 19.3173 136.828 19.712C137.43 20.1013 137.886 20.6613 138.196 21.392C138.505 22.1227 138.646 22.9947 138.62 24.008H137.42V23.592C137.398 22.472 137.156 21.6267 136.692 21.056C136.233 20.4853 135.561 20.2 134.676 20.2C133.748 20.2 133.036 20.5013 132.54 21.104C132.049 21.7067 131.804 22.5653 131.804 23.68C131.804 24.768 132.049 25.6133 132.54 26.216C133.036 26.8133 133.737 27.112 134.644 27.112C135.262 27.112 135.801 26.9707 136.26 26.688C136.724 26.4 137.089 25.9867 137.356 25.448L138.452 25.872C138.11 26.624 137.606 27.208 136.94 27.624C136.278 28.0347 135.529 28.24 134.692 28.24ZM131.388 24.008V23.024H137.988V24.008H131.388ZM139.513 28V19.36H140.561L143.929 26.432L147.305 19.36H148.345V28H147.209V21.872L144.305 28H143.561L140.657 21.872V28H139.513ZM156.09 28.24C155.221 28.24 154.485 28.0453 153.882 27.656C153.28 27.2667 152.821 26.7307 152.506 26.048C152.197 25.36 152.037 24.5707 152.026 23.68C152.037 22.7733 152.202 21.9787 152.522 21.296C152.842 20.608 153.304 20.0747 153.906 19.696C154.509 19.312 155.24 19.12 156.098 19.12C156.973 19.12 157.733 19.3333 158.378 19.76C159.029 20.1867 159.474 20.7707 159.714 21.512L158.562 21.88C158.36 21.3627 158.037 20.9627 157.594 20.68C157.157 20.392 156.656 20.248 156.09 20.248C155.456 20.248 154.93 20.3947 154.514 20.688C154.098 20.976 153.789 21.3787 153.586 21.896C153.384 22.4133 153.28 23.008 153.274 23.68C153.285 24.7147 153.525 25.5467 153.994 26.176C154.464 26.8 155.162 27.112 156.09 27.112C156.677 27.112 157.176 26.9787 157.586 26.712C158.002 26.44 158.317 26.0453 158.53 25.528L159.714 25.88C159.394 26.648 158.925 27.2347 158.306 27.64C157.688 28.04 156.949 28.24 156.09 28.24ZM167.59 19.36V28H166.446V21.272L161.71 28H160.718V19.36H161.862V26.032L166.606 19.36H167.59ZM169.187 28V19.36H170.235L173.603 26.432L176.979 19.36H178.019V28H176.883V21.872L173.979 28H173.235L170.331 21.872V28H169.187ZM179.609 28V19.36H186.481V28H185.305V20.488H180.785V28H179.609ZM190.431 28V20.448H187.367V19.36H194.671V20.448H191.607V28H190.431ZM199.008 28.24C198.149 28.24 197.416 28.0453 196.808 27.656C196.2 27.2667 195.733 26.728 195.408 26.04C195.083 25.352 194.92 24.5627 194.92 23.672C194.92 22.7653 195.085 21.9707 195.416 21.288C195.747 20.6053 196.216 20.0747 196.824 19.696C197.437 19.312 198.165 19.12 199.008 19.12C199.872 19.12 200.608 19.3147 201.216 19.704C201.829 20.088 202.296 20.624 202.616 21.312C202.941 21.9947 203.104 22.7813 203.104 23.672C203.104 24.5787 202.941 25.376 202.616 26.064C202.291 26.7467 201.821 27.28 201.208 27.664C200.595 28.048 199.861 28.24 199.008 28.24ZM199.008 27.112C199.968 27.112 200.683 26.7947 201.152 26.16C201.621 25.52 201.856 24.6907 201.856 23.672C201.856 22.6267 201.619 21.7947 201.144 21.176C200.675 20.5573 199.963 20.248 199.008 20.248C198.363 20.248 197.829 20.3947 197.408 20.688C196.992 20.976 196.68 21.3787 196.472 21.896C196.269 22.408 196.168 23 196.168 23.672C196.168 24.712 196.408 25.5467 196.888 26.176C197.368 26.8 198.075 27.112 199.008 27.112ZM204.221 28V19.36H205.269L208.637 26.432L212.013 19.36H213.053V28H211.917V21.872L209.013 28H208.269L205.365 21.872V28H204.221ZM218.259 28.24C217.401 28.24 216.667 28.0453 216.059 27.656C215.451 27.2667 214.985 26.728 214.659 26.04C214.334 25.352 214.171 24.5627 214.171 23.672C214.171 22.7653 214.337 21.9707 214.667 21.288C214.998 20.6053 215.467 20.0747 216.075 19.696C216.689 19.312 217.417 19.12 218.259 19.12C219.123 19.12 219.859 19.3147 220.467 19.704C221.081 20.088 221.547 20.624 221.867 21.312C222.193 21.9947 222.355 22.7813 222.355 23.672C222.355 24.5787 222.193 25.376 221.867 26.064C221.542 26.7467 221.073 27.28 220.459 27.664C219.846 28.048 219.113 28.24 218.259 28.24ZM218.259 27.112C219.219 27.112 219.934 26.7947 220.403 26.16C220.873 25.52 221.107 24.6907 221.107 23.672C221.107 22.6267 220.87 21.7947 220.395 21.176C219.926 20.5573 219.214 20.248 218.259 20.248C217.614 20.248 217.081 20.3947 216.659 20.688C216.243 20.976 215.931 21.3787 215.723 21.896C215.521 22.408 215.419 23 215.419 23.672C215.419 24.712 215.659 25.5467 216.139 26.176C216.619 26.8 217.326 27.112 218.259 27.112ZM223.472 28V19.36H227.032C227.213 19.36 227.432 19.3707 227.688 19.392C227.949 19.4133 228.192 19.4533 228.416 19.512C228.901 19.64 229.291 19.9013 229.584 20.296C229.883 20.6907 230.032 21.1653 230.032 21.72C230.032 22.0293 229.984 22.3067 229.888 22.552C229.797 22.792 229.667 23 229.496 23.176C229.416 23.2667 229.328 23.3467 229.232 23.416C229.136 23.48 229.043 23.5333 228.952 23.576C229.123 23.608 229.307 23.6827 229.504 23.8C229.813 23.9813 230.048 24.2267 230.208 24.536C230.368 24.84 230.448 25.2107 230.448 25.648C230.448 26.24 230.307 26.7227 230.024 27.096C229.741 27.4693 229.363 27.7253 228.888 27.864C228.675 27.9227 228.443 27.96 228.192 27.976C227.947 27.992 227.715 28 227.496 28H223.472ZM224.656 27H227.44C227.552 27 227.693 26.992 227.864 26.976C228.035 26.9547 228.187 26.928 228.32 26.896C228.635 26.816 228.864 26.656 229.008 26.416C229.157 26.1707 229.232 25.904 229.232 25.616C229.232 25.2373 229.12 24.928 228.896 24.688C228.677 24.4427 228.384 24.2933 228.016 24.24C227.893 24.2133 227.765 24.1973 227.632 24.192C227.499 24.1867 227.379 24.184 227.272 24.184H224.656V27ZM224.656 23.176H227.072C227.211 23.176 227.365 23.168 227.536 23.152C227.712 23.1307 227.864 23.096 227.992 23.048C228.269 22.952 228.472 22.7867 228.6 22.552C228.733 22.3173 228.8 22.0613 228.8 21.784C228.8 21.48 228.728 21.2133 228.584 20.984C228.445 20.7547 228.235 20.5947 227.952 20.504C227.76 20.4347 227.552 20.3947 227.328 20.384C227.109 20.3733 226.971 20.368 226.912 20.368H224.656V23.176ZM232.043 26.72V25.352H233.411V26.72H232.043ZM232.051 22.008V20.64H233.419V22.008H232.051Z" fill="white"/>
<rect x="151" y="49" width="36" height="36" rx="10" fill="#4E4E4E"/>
<rect x="198" y="49" width="36" height="36" rx="10" fill="#4E4E4E"/>
<rect x="245" y="49" width="36" height="36" rx="10" fill="#4E4E4E"/>
<rect x="292" y="49" width="36" height="36" rx="10" fill="#4E4E4E"/>
<rect x="10" y="49" width="36" height="36" rx="10" fill="#325D45"/>
<path d="M24.3636 70.8657L19.5909 66.1642L18 67.7313L24.3636 74L38 60.5672L36.4091 59L24.3636 70.8657Z" fill="white"/>
<rect x="57" y="49" width="36" height="36" rx="10" fill="#325D45"/>
<path d="M71.3636 70.8657L66.5909 66.1642L65 67.7313L71.3636 74L85 60.5672L83.4091 59L71.3636 70.8657Z" fill="white"/>
<rect x="104" y="49" width="36" height="36" rx="10" fill="#325D45"/>
<path d="M118.364 70.8657L113.591 66.1642L112 67.7313L118.364 74L132 60.5672L130.409 59L118.364 70.8657Z" fill="white"/>
<path d="M15.784 123.24C14.6373 123.24 13.6693 122.987 12.88 122.48C12.0907 121.968 11.4933 121.261 11.088 120.36C10.6827 119.459 10.48 118.419 10.48 117.24C10.48 116.061 10.6827 115.021 11.088 114.12C11.4933 113.219 12.0907 112.515 12.88 112.008C13.6693 111.496 14.6373 111.24 15.784 111.24C16.936 111.24 17.904 111.496 18.688 112.008C19.4773 112.515 20.0747 113.219 20.48 114.12C20.8907 115.021 21.096 116.061 21.096 117.24C21.096 118.419 20.8907 119.459 20.48 120.36C20.0747 121.261 19.4773 121.968 18.688 122.48C17.904 122.987 16.936 123.24 15.784 123.24ZM15.784 122.112C16.6853 122.112 17.4373 121.907 18.04 121.496C18.6427 121.085 19.0933 120.515 19.392 119.784C19.696 119.048 19.848 118.2 19.848 117.24C19.848 116.28 19.696 115.435 19.392 114.704C19.0933 113.973 18.6427 113.403 18.04 112.992C17.4373 112.581 16.6853 112.373 15.784 112.368C14.8827 112.368 14.1333 112.573 13.536 112.984C12.9387 113.395 12.488 113.968 12.184 114.704C11.8853 115.435 11.7333 116.28 11.728 117.24C11.7227 118.2 11.8693 119.045 12.168 119.776C12.472 120.501 12.9253 121.072 13.528 121.488C14.1307 121.899 14.8827 122.107 15.784 122.112ZM24.4021 123V115.448H21.3381V114.36H28.6421V115.448H25.5781V123H24.4021ZM28.5712 123V121.968C28.8912 122.027 29.1339 122.013 29.2992 121.928C29.4699 121.837 29.5952 121.688 29.6752 121.48C29.7552 121.267 29.8219 121.003 29.8752 120.688C29.9606 120.165 30.0379 119.589 30.1072 118.96C30.1766 118.331 30.2379 117.637 30.2912 116.88C30.3499 116.117 30.4086 115.277 30.4672 114.36H36.3392V123H35.1712V115.488H31.5552C31.5179 116.053 31.4752 116.616 31.4272 117.176C31.3792 117.736 31.3286 118.275 31.2752 118.792C31.2272 119.304 31.1739 119.776 31.1152 120.208C31.0566 120.64 30.9952 121.013 30.9312 121.328C30.8352 121.803 30.7072 122.181 30.5472 122.464C30.3926 122.747 30.1606 122.933 29.8512 123.024C29.5419 123.115 29.1152 123.107 28.5712 123ZM44.7984 114.36V123H43.6544V116.272L38.9184 123H37.9264V114.36H39.0704V121.032L43.8144 114.36H44.7984ZM51.6917 123V119.784C51.4037 119.928 51.0491 120.053 50.6277 120.16C50.2064 120.267 49.7531 120.32 49.2677 120.32C48.3931 120.32 47.6837 120.125 47.1397 119.736C46.5957 119.347 46.2411 118.784 46.0757 118.048C46.0224 117.829 45.9851 117.597 45.9637 117.352C45.9477 117.107 45.9371 116.885 45.9317 116.688C45.9264 116.491 45.9237 116.349 45.9237 116.264V114.36H47.1077V116.264C47.1077 116.44 47.1131 116.64 47.1237 116.864C47.1344 117.088 47.1584 117.307 47.1957 117.52C47.3024 118.101 47.5424 118.541 47.9157 118.84C48.2944 119.139 48.8251 119.288 49.5077 119.288C49.9344 119.288 50.3371 119.235 50.7157 119.128C51.0997 119.016 51.4251 118.867 51.6917 118.68V114.36H52.8677V123H51.6917ZM54.4589 123V114.36H55.6349V118.112H60.5069V114.36H61.6829V123H60.5069V119.24H55.6349V123H54.4589ZM66.888 123.24C66.0293 123.24 65.296 123.045 64.688 122.656C64.08 122.267 63.6133 121.728 63.288 121.04C62.9627 120.352 62.8 119.563 62.8 118.672C62.8 117.765 62.9653 116.971 63.296 116.288C63.6267 115.605 64.096 115.075 64.704 114.696C65.3173 114.312 66.0453 114.12 66.888 114.12C67.752 114.12 68.488 114.315 69.096 114.704C69.7093 115.088 70.176 115.624 70.496 116.312C70.8213 116.995 70.984 117.781 70.984 118.672C70.984 119.579 70.8213 120.376 70.496 121.064C70.1707 121.747 69.7013 122.28 69.088 122.664C68.4747 123.048 67.7413 123.24 66.888 123.24ZM66.888 122.112C67.848 122.112 68.5627 121.795 69.032 121.16C69.5013 120.52 69.736 119.691 69.736 118.672C69.736 117.627 69.4987 116.795 69.024 116.176C68.5547 115.557 67.8427 115.248 66.888 115.248C66.2427 115.248 65.7093 115.395 65.288 115.688C64.872 115.976 64.56 116.379 64.352 116.896C64.1493 117.408 64.048 118 64.048 118.672C64.048 119.712 64.288 120.547 64.768 121.176C65.248 121.8 65.9547 122.112 66.888 122.112ZM72.9088 123V121.68H74.0848V123H72.9088ZM72.9088 120.12V111.48H74.0848V120.12H72.9088ZM82.1435 123.232C81.5728 123.232 81.0475 123.131 80.5675 122.928C80.0875 122.725 79.6742 122.437 79.3275 122.064C78.9808 121.685 78.7275 121.235 78.5675 120.712L79.6875 120.376C79.8795 120.947 80.1942 121.379 80.6315 121.672C81.0742 121.965 81.5728 122.107 82.1275 122.096C82.6395 122.085 83.0795 121.971 83.4475 121.752C83.8208 121.533 84.1062 121.229 84.3035 120.84C84.5008 120.451 84.5995 120 84.5995 119.488C84.5995 118.704 84.3702 118.075 83.9115 117.6C83.4582 117.12 82.8582 116.88 82.1115 116.88C81.9035 116.88 81.6848 116.909 81.4555 116.968C81.2262 117.021 81.0128 117.099 80.8155 117.2L80.2235 116.264L84.7035 112.128L84.8955 112.608H79.0235V111.48H85.6795V112.624L81.7755 116.352L81.7595 115.888C82.5595 115.787 83.2635 115.877 83.8715 116.16C84.4795 116.443 84.9542 116.875 85.2955 117.456C85.6422 118.032 85.8155 118.709 85.8155 119.488C85.8155 120.224 85.6555 120.875 85.3355 121.44C85.0208 122 84.5862 122.44 84.0315 122.76C83.4768 123.075 82.8475 123.232 82.1435 123.232ZM89.1744 124.92V121.992C89.665 121.992 90.017 121.835 90.2304 121.52C90.4437 121.2 90.617 120.691 90.7504 119.992C90.841 119.539 90.9157 119.051 90.9744 118.528C91.033 118.005 91.0837 117.408 91.1264 116.736C91.169 116.059 91.209 115.267 91.2464 114.36H96.9584V121.992H97.7904V124.92H96.6544V123H90.3024V124.92H89.1744ZM91.1664 121.992H95.7904V115.368H92.3344C92.3184 115.773 92.2944 116.203 92.2624 116.656C92.2357 117.109 92.201 117.563 92.1584 118.016C92.121 118.469 92.0757 118.896 92.0224 119.296C91.9744 119.691 91.9157 120.037 91.8464 120.336C91.7664 120.72 91.6784 121.048 91.5824 121.32C91.4917 121.592 91.353 121.816 91.1664 121.992ZM98.7445 123V114.36H99.9205V118.112H104.793V114.36H105.969V123H104.793V119.24H99.9205V123H98.7445ZM112.982 123V119.744H110.966C110.731 119.744 110.488 119.736 110.238 119.72C109.992 119.699 109.763 119.669 109.55 119.632C108.942 119.515 108.424 119.248 107.998 118.832C107.576 118.411 107.366 117.829 107.366 117.088C107.366 116.363 107.563 115.781 107.958 115.344C108.352 114.901 108.83 114.613 109.39 114.48C109.646 114.421 109.904 114.387 110.166 114.376C110.432 114.365 110.662 114.36 110.854 114.36H114.158L114.166 123H112.982ZM107.086 123L109.494 119.376H110.798L108.374 123H107.086ZM110.902 118.736H112.982V115.368H110.902C110.774 115.368 110.595 115.373 110.366 115.384C110.136 115.395 109.92 115.429 109.718 115.488C109.542 115.541 109.366 115.635 109.19 115.768C109.019 115.896 108.875 116.069 108.758 116.288C108.64 116.501 108.582 116.763 108.582 117.072C108.582 117.504 108.699 117.851 108.934 118.112C109.174 118.368 109.472 118.544 109.83 118.64C110.022 118.683 110.214 118.709 110.406 118.72C110.598 118.731 110.763 118.736 110.902 118.736ZM121.917 123.24C121.047 123.24 120.311 123.045 119.709 122.656C119.106 122.267 118.647 121.731 118.333 121.048C118.023 120.36 117.863 119.571 117.853 118.68C117.863 117.773 118.029 116.979 118.349 116.296C118.669 115.608 119.13 115.075 119.733 114.696C120.335 114.312 121.066 114.12 121.925 114.12C122.799 114.12 123.559 114.333 124.205 114.76C124.855 115.187 125.301 115.771 125.541 116.512L124.389 116.88C124.186 116.363 123.863 115.963 123.421 115.68C122.983 115.392 122.482 115.248 121.917 115.248C121.282 115.248 120.757 115.395 120.341 115.688C119.925 115.976 119.615 116.379 119.413 116.896C119.21 117.413 119.106 118.008 119.101 118.68C119.111 119.715 119.351 120.547 119.821 121.176C120.29 121.8 120.989 122.112 121.917 122.112C122.503 122.112 123.002 121.979 123.413 121.712C123.829 121.44 124.143 121.045 124.357 120.528L125.541 120.88C125.221 121.648 124.751 122.235 124.133 122.64C123.514 123.04 122.775 123.24 121.917 123.24ZM130.347 126.84L132.019 122.304L132.043 123.648L128.259 114.36H129.507L132.611 122.128H132.099L134.963 114.36H136.163L131.523 126.84H130.347ZM135.8 123V121.968C136.12 122.027 136.363 122.013 136.528 121.928C136.699 121.837 136.824 121.688 136.904 121.48C136.984 121.267 137.051 121.003 137.104 120.688C137.189 120.165 137.267 119.589 137.336 118.96C137.405 118.331 137.467 117.637 137.52 116.88C137.579 116.117 137.637 115.277 137.696 114.36H143.568V123H142.4V115.488H138.784C138.747 116.053 138.704 116.616 138.656 117.176C138.608 117.736 138.557 118.275 138.504 118.792C138.456 119.304 138.403 119.776 138.344 120.208C138.285 120.64 138.224 121.013 138.16 121.328C138.064 121.803 137.936 122.181 137.776 122.464C137.621 122.747 137.389 122.933 137.08 123.024C136.771 123.115 136.344 123.107 135.8 123ZM146.395 126.84L148.067 122.304L148.091 123.648L144.307 114.36H145.555L148.659 122.128H148.147L151.011 114.36H152.211L147.571 126.84H146.395ZM158.249 123V119.784C157.961 119.928 157.606 120.053 157.185 120.16C156.763 120.267 156.31 120.32 155.825 120.32C154.95 120.32 154.241 120.125 153.697 119.736C153.153 119.347 152.798 118.784 152.633 118.048C152.579 117.829 152.542 117.597 152.521 117.352C152.505 117.107 152.494 116.885 152.489 116.688C152.483 116.491 152.481 116.349 152.481 116.264V114.36H153.665V116.264C153.665 116.44 153.67 116.64 153.681 116.864C153.691 117.088 153.715 117.307 153.753 117.52C153.859 118.101 154.099 118.541 154.473 118.84C154.851 119.139 155.382 119.288 156.065 119.288C156.491 119.288 156.894 119.235 157.273 119.128C157.657 119.016 157.982 118.867 158.249 118.68V114.36H159.425V123H158.249ZM161.016 123V114.36H162.16V121.912H165.4V114.36H166.544V121.912H169.776V114.36H170.92V123H161.016ZM176.18 123.24C175.338 123.24 174.607 123.053 173.988 122.68C173.375 122.307 172.898 121.781 172.556 121.104C172.215 120.427 172.044 119.632 172.044 118.72C172.044 117.776 172.212 116.96 172.548 116.272C172.884 115.584 173.356 115.053 173.964 114.68C174.578 114.307 175.3 114.12 176.132 114.12C176.986 114.12 177.714 114.317 178.316 114.712C178.919 115.101 179.375 115.661 179.684 116.392C179.994 117.123 180.135 117.995 180.108 119.008H178.908V118.592C178.887 117.472 178.644 116.627 178.18 116.056C177.722 115.485 177.05 115.2 176.164 115.2C175.236 115.2 174.524 115.501 174.028 116.104C173.538 116.707 173.292 117.565 173.292 118.68C173.292 119.768 173.538 120.613 174.028 121.216C174.524 121.813 175.226 122.112 176.132 122.112C176.751 122.112 177.29 121.971 177.748 121.688C178.212 121.4 178.578 120.987 178.844 120.448L179.94 120.872C179.599 121.624 179.095 122.208 178.428 122.624C177.767 123.035 177.018 123.24 176.18 123.24ZM172.876 119.008V118.024H179.476V119.008H172.876ZM181.236 123V114.36H182.412V118.112H187.284V114.36H188.46V123H187.284V119.24H182.412V123H181.236ZM196.921 114.36V123H195.777V116.272L191.041 123H190.049V114.36H191.193V121.032L195.937 114.36H196.921ZM202.182 123.24C201.34 123.24 200.609 123.053 199.99 122.68C199.377 122.307 198.9 121.781 198.558 121.104C198.217 120.427 198.046 119.632 198.046 118.72C198.046 117.776 198.214 116.96 198.55 116.272C198.886 115.584 199.358 115.053 199.966 114.68C200.58 114.307 201.302 114.12 202.134 114.12C202.988 114.12 203.716 114.317 204.318 114.712C204.921 115.101 205.377 115.661 205.686 116.392C205.996 117.123 206.137 117.995 206.11 119.008H204.91V118.592C204.889 117.472 204.646 116.627 204.182 116.056C203.724 115.485 203.052 115.2 202.166 115.2C201.238 115.2 200.526 115.501 200.03 116.104C199.54 116.707 199.294 117.565 199.294 118.68C199.294 119.768 199.54 120.613 200.03 121.216C200.526 121.813 201.228 122.112 202.134 122.112C202.753 122.112 203.292 121.971 203.75 121.688C204.214 121.4 204.58 120.987 204.846 120.448L205.942 120.872C205.601 121.624 205.097 122.208 204.43 122.624C203.769 123.035 203.02 123.24 202.182 123.24ZM198.878 119.008V118.024H205.478V119.008H198.878ZM207.003 123V114.36H208.051L211.419 121.432L214.795 114.36H215.835V123H214.699V116.872L211.795 123H211.051L208.147 116.872V123H207.003ZM223.581 123.24C222.712 123.24 221.976 123.045 221.373 122.656C220.77 122.267 220.312 121.731 219.997 121.048C219.688 120.36 219.528 119.571 219.517 118.68C219.528 117.773 219.693 116.979 220.013 116.296C220.333 115.608 220.794 115.075 221.397 114.696C222 114.312 222.73 114.12 223.589 114.12C224.464 114.12 225.224 114.333 225.869 114.76C226.52 115.187 226.965 115.771 227.205 116.512L226.053 116.88C225.85 116.363 225.528 115.963 225.085 115.68C224.648 115.392 224.146 115.248 223.581 115.248C222.946 115.248 222.421 115.395 222.005 115.688C221.589 115.976 221.28 116.379 221.077 116.896C220.874 117.413 220.77 118.008 220.765 118.68C220.776 119.715 221.016 120.547 221.485 121.176C221.954 121.8 222.653 122.112 223.581 122.112C224.168 122.112 224.666 121.979 225.077 121.712C225.493 121.44 225.808 121.045 226.021 120.528L227.205 120.88C226.885 121.648 226.416 122.235 225.797 122.64C225.178 123.04 224.44 123.24 223.581 123.24ZM235.08 114.36V123H233.936V116.272L229.2 123H228.208V114.36H229.352V121.032L234.096 114.36H235.08ZM236.678 123V114.36H237.726L241.094 121.432L244.47 114.36H245.51V123H244.374V116.872L241.47 123H240.726L237.822 116.872V123H236.678ZM247.1 123V114.36H253.972V123H252.796V115.488H248.276V123H247.1ZM257.922 123V115.448H254.858V114.36H262.162V115.448H259.098V123H257.922ZM266.499 123.24C265.64 123.24 264.907 123.045 264.299 122.656C263.691 122.267 263.224 121.728 262.899 121.04C262.573 120.352 262.411 119.563 262.411 118.672C262.411 117.765 262.576 116.971 262.907 116.288C263.237 115.605 263.707 115.075 264.315 114.696C264.928 114.312 265.656 114.12 266.499 114.12C267.363 114.12 268.099 114.315 268.707 114.704C269.32 115.088 269.787 115.624 270.107 116.312C270.432 116.995 270.595 117.781 270.595 118.672C270.595 119.579 270.432 120.376 270.107 121.064C269.781 121.747 269.312 122.28 268.699 122.664C268.085 123.048 267.352 123.24 266.499 123.24ZM266.499 122.112C267.459 122.112 268.173 121.795 268.643 121.16C269.112 120.52 269.347 119.691 269.347 118.672C269.347 117.627 269.109 116.795 268.635 116.176C268.165 115.557 267.453 115.248 266.499 115.248C265.853 115.248 265.32 115.395 264.899 115.688C264.483 115.976 264.171 116.379 263.963 116.896C263.76 117.408 263.659 118 263.659 118.672C263.659 119.712 263.899 120.547 264.379 121.176C264.859 121.8 265.565 122.112 266.499 122.112ZM271.711 123V114.36H272.759L276.127 121.432L279.503 114.36H280.543V123H279.407V116.872L276.503 123H275.759L272.855 116.872V123H271.711ZM285.75 123.24C284.891 123.24 284.158 123.045 283.55 122.656C282.942 122.267 282.475 121.728 282.15 121.04C281.825 120.352 281.662 119.563 281.662 118.672C281.662 117.765 281.827 116.971 282.158 116.288C282.489 115.605 282.958 115.075 283.566 114.696C284.179 114.312 284.907 114.12 285.75 114.12C286.614 114.12 287.35 114.315 287.958 114.704C288.571 115.088 289.038 115.624 289.358 116.312C289.683 116.995 289.846 117.781 289.846 118.672C289.846 119.579 289.683 120.376 289.358 121.064C289.033 121.747 288.563 122.28 287.95 122.664C287.337 123.048 286.603 123.24 285.75 123.24ZM285.75 122.112C286.71 122.112 287.425 121.795 287.894 121.16C288.363 120.52 288.598 119.691 288.598 118.672C288.598 117.627 288.361 116.795 287.886 116.176C287.417 115.557 286.705 115.248 285.75 115.248C285.105 115.248 284.571 115.395 284.15 115.688C283.734 115.976 283.422 116.379 283.214 116.896C283.011 117.408 282.91 118 282.91 118.672C282.91 119.712 283.15 120.547 283.63 121.176C284.11 121.8 284.817 122.112 285.75 122.112ZM290.963 123V114.36H294.523C294.704 114.36 294.923 114.371 295.179 114.392C295.44 114.413 295.683 114.453 295.907 114.512C296.392 114.64 296.781 114.901 297.075 115.296C297.373 115.691 297.523 116.165 297.523 116.72C297.523 117.029 297.475 117.307 297.379 117.552C297.288 117.792 297.157 118 296.987 118.176C296.907 118.267 296.819 118.347 296.723 118.416C296.627 118.48 296.533 118.533 296.443 118.576C296.613 118.608 296.797 118.683 296.995 118.8C297.304 118.981 297.539 119.227 297.699 119.536C297.859 119.84 297.939 120.211 297.939 120.648C297.939 121.24 297.797 121.723 297.515 122.096C297.232 122.469 296.853 122.725 296.379 122.864C296.165 122.923 295.933 122.96 295.683 122.976C295.437 122.992 295.205 123 294.987 123H290.963ZM292.147 122H294.931C295.043 122 295.184 121.992 295.355 121.976C295.525 121.955 295.677 121.928 295.811 121.896C296.125 121.816 296.355 121.656 296.499 121.416C296.648 121.171 296.723 120.904 296.723 120.616C296.723 120.237 296.611 119.928 296.387 119.688C296.168 119.443 295.875 119.293 295.507 119.24C295.384 119.213 295.256 119.197 295.123 119.192C294.989 119.187 294.869 119.184 294.763 119.184H292.147V122ZM292.147 118.176H294.563C294.701 118.176 294.856 118.168 295.027 118.152C295.203 118.131 295.355 118.096 295.483 118.048C295.76 117.952 295.963 117.787 296.091 117.552C296.224 117.317 296.291 117.061 296.291 116.784C296.291 116.48 296.219 116.213 296.075 115.984C295.936 115.755 295.725 115.595 295.443 115.504C295.251 115.435 295.043 115.395 294.819 115.384C294.6 115.373 294.461 115.368 294.403 115.368H292.147V118.176ZM302.256 123V121.68H303.432V123H302.256ZM302.256 120.12V111.48H303.432V120.12H302.256ZM13.064 147L14.36 144.272L10.264 135.48H11.568L14.976 143.008L18.448 135.48H19.704L14.344 147H13.064ZM19.0044 147L22.6524 142.68L19.1564 138.36H20.4844L23.8924 142.624V138.36H24.9804V142.624L28.3884 138.36H29.7084L26.2124 142.68L29.8604 147H28.4924L24.9804 142.736V147H23.8924V142.736L20.3724 147H19.0044ZM33.8397 147.24C32.9971 147.24 32.2664 147.053 31.6477 146.68C31.0344 146.307 30.5571 145.781 30.2157 145.104C29.8744 144.427 29.7037 143.632 29.7037 142.72C29.7037 141.776 29.8717 140.96 30.2077 140.272C30.5437 139.584 31.0157 139.053 31.6237 138.68C32.2371 138.307 32.9597 138.12 33.7917 138.12C34.6451 138.12 35.3731 138.317 35.9757 138.712C36.5784 139.101 37.0344 139.661 37.3438 140.392C37.6531 141.123 37.7944 141.995 37.7677 143.008H36.5677V142.592C36.5464 141.472 36.3037 140.627 35.8397 140.056C35.3811 139.485 34.7091 139.2 33.8237 139.2C32.8957 139.2 32.1837 139.501 31.6877 140.104C31.1971 140.707 30.9517 141.565 30.9517 142.68C30.9517 143.768 31.1971 144.613 31.6877 145.216C32.1837 145.813 32.8851 146.112 33.7917 146.112C34.4104 146.112 34.9491 145.971 35.4077 145.688C35.8717 145.4 36.2371 144.987 36.5037 144.448L37.5997 144.872C37.2584 145.624 36.7544 146.208 36.0877 146.624C35.4264 147.035 34.6771 147.24 33.8397 147.24ZM30.5357 143.008V142.024H37.1357V143.008H30.5357ZM41.4583 147V138.36H42.5063L45.8743 145.432L49.2503 138.36H50.2903V147H49.1543V140.872L46.2503 147H45.5063L42.6023 140.872V147H41.4583ZM55.4967 147.24C54.6381 147.24 53.9047 147.045 53.2967 146.656C52.6887 146.267 52.2221 145.728 51.8967 145.04C51.5714 144.352 51.4087 143.563 51.4087 142.672C51.4087 141.765 51.5741 140.971 51.9047 140.288C52.2354 139.605 52.7047 139.075 53.3127 138.696C53.9261 138.312 54.6541 138.12 55.4967 138.12C56.3607 138.12 57.0967 138.315 57.7047 138.704C58.3181 139.088 58.7847 139.624 59.1047 140.312C59.4301 140.995 59.5927 141.781 59.5927 142.672C59.5927 143.579 59.4301 144.376 59.1047 145.064C58.7794 145.747 58.3101 146.28 57.6967 146.664C57.0834 147.048 56.3501 147.24 55.4967 147.24ZM55.4967 146.112C56.4567 146.112 57.1714 145.795 57.6407 145.16C58.1101 144.52 58.3447 143.691 58.3447 142.672C58.3447 141.627 58.1074 140.795 57.6327 140.176C57.1634 139.557 56.4514 139.248 55.4967 139.248C54.8514 139.248 54.3181 139.395 53.8967 139.688C53.4807 139.976 53.1687 140.379 52.9607 140.896C52.7581 141.408 52.6567 142 52.6567 142.672C52.6567 143.712 52.8967 144.547 53.3767 145.176C53.8567 145.8 54.5634 146.112 55.4967 146.112ZM59.6012 147L63.2492 142.68L59.7532 138.36H61.0812L64.4893 142.624V138.36H65.5773V142.624L68.9853 138.36H70.3053L66.8093 142.68L70.4573 147H69.0893L65.5773 142.736V147H64.4893V142.736L60.9692 147H59.6012ZM71.0851 147V138.36H72.2611V142.112H77.1331V138.36H78.3091V147H77.1331V143.24H72.2611V147H71.0851ZM83.5142 147.24C82.6556 147.24 81.9222 147.045 81.3142 146.656C80.7062 146.267 80.2396 145.728 79.9142 145.04C79.5889 144.352 79.4262 143.563 79.4262 142.672C79.4262 141.765 79.5916 140.971 79.9222 140.288C80.2529 139.605 80.7222 139.075 81.3302 138.696C81.9436 138.312 82.6716 138.12 83.5142 138.12C84.3782 138.12 85.1142 138.315 85.7222 138.704C86.3356 139.088 86.8022 139.624 87.1222 140.312C87.4476 140.995 87.6102 141.781 87.6102 142.672C87.6102 143.579 87.4476 144.376 87.1222 145.064C86.7969 145.747 86.3276 146.28 85.7142 146.664C85.1009 147.048 84.3676 147.24 83.5142 147.24ZM83.5142 146.112C84.4742 146.112 85.1889 145.795 85.6582 145.16C86.1276 144.52 86.3622 143.691 86.3622 142.672C86.3622 141.627 86.1249 140.795 85.6502 140.176C85.1809 139.557 84.4689 139.248 83.5142 139.248C82.8689 139.248 82.3356 139.395 81.9142 139.688C81.4982 139.976 81.1862 140.379 80.9782 140.896C80.7756 141.408 80.6742 142 80.6742 142.672C80.6742 143.712 80.9142 144.547 81.3942 145.176C81.8742 145.8 82.5809 146.112 83.5142 146.112ZM91.2901 147V138.36H98.1621V147H96.9861V139.488H92.4661V147H91.2901ZM103.423 147.24C102.581 147.24 101.85 147.053 101.231 146.68C100.618 146.307 100.141 145.781 99.7995 145.104C99.4582 144.427 99.2875 143.632 99.2875 142.72C99.2875 141.776 99.4555 140.96 99.7915 140.272C100.127 139.584 100.599 139.053 101.207 138.68C101.821 138.307 102.543 138.12 103.375 138.12C104.229 138.12 104.957 138.317 105.559 138.712C106.162 139.101 106.618 139.661 106.927 140.392C107.237 141.123 107.378 141.995 107.351 143.008H106.151V142.592C106.13 141.472 105.887 140.627 105.423 140.056C104.965 139.485 104.293 139.2 103.407 139.2C102.479 139.2 101.767 139.501 101.271 140.104C100.781 140.707 100.535 141.565 100.535 142.68C100.535 143.768 100.781 144.613 101.271 145.216C101.767 145.813 102.469 146.112 103.375 146.112C103.994 146.112 104.533 145.971 104.991 145.688C105.455 145.4 105.821 144.987 106.087 144.448L107.183 144.872C106.842 145.624 106.338 146.208 105.671 146.624C105.01 147.035 104.261 147.24 103.423 147.24ZM100.119 143.008V142.024H106.719V143.008H100.119ZM112.367 147.24C111.572 147.24 110.9 147.04 110.351 146.64C109.802 146.235 109.386 145.688 109.103 145C108.82 144.307 108.679 143.531 108.679 142.672C108.679 141.797 108.82 141.019 109.103 140.336C109.391 139.648 109.812 139.107 110.367 138.712C110.922 138.317 111.604 138.12 112.415 138.12C113.204 138.12 113.882 138.32 114.447 138.72C115.012 139.12 115.444 139.664 115.743 140.352C116.047 141.04 116.199 141.813 116.199 142.672C116.199 143.536 116.047 144.312 115.743 145C115.439 145.688 115.002 146.235 114.431 146.64C113.86 147.04 113.172 147.24 112.367 147.24ZM108.479 150.84V138.36H109.535V144.864H109.663V150.84H108.479ZM112.247 146.144C112.85 146.144 113.351 145.992 113.751 145.688C114.151 145.384 114.45 144.971 114.647 144.448C114.85 143.92 114.951 143.328 114.951 142.672C114.951 142.021 114.852 141.435 114.655 140.912C114.458 140.389 114.156 139.976 113.751 139.672C113.351 139.368 112.842 139.216 112.223 139.216C111.62 139.216 111.119 139.363 110.719 139.656C110.324 139.949 110.028 140.357 109.831 140.88C109.634 141.397 109.535 141.995 109.535 142.672C109.535 143.339 109.634 143.936 109.831 144.464C110.028 144.987 110.327 145.397 110.727 145.696C111.127 145.995 111.634 146.144 112.247 146.144ZM120.972 147.24C120.129 147.24 119.398 147.053 118.78 146.68C118.166 146.307 117.689 145.781 117.348 145.104C117.006 144.427 116.836 143.632 116.836 142.72C116.836 141.776 117.004 140.96 117.34 140.272C117.676 139.584 118.148 139.053 118.756 138.68C119.369 138.307 120.092 138.12 120.924 138.12C121.777 138.12 122.505 138.317 123.108 138.712C123.71 139.101 124.166 139.661 124.476 140.392C124.785 141.123 124.926 141.995 124.9 143.008H123.7V142.592C123.678 141.472 123.436 140.627 122.972 140.056C122.513 139.485 121.841 139.2 120.956 139.2C120.028 139.2 119.316 139.501 118.82 140.104C118.329 140.707 118.084 141.565 118.084 142.68C118.084 143.768 118.329 144.613 118.82 145.216C119.316 145.813 120.017 146.112 120.924 146.112C121.542 146.112 122.081 145.971 122.54 145.688C123.004 145.4 123.369 144.987 123.636 144.448L124.732 144.872C124.39 145.624 123.886 146.208 123.22 146.624C122.558 147.035 121.809 147.24 120.972 147.24ZM117.668 143.008V142.024H124.268V143.008H117.668ZM124.763 147L128.139 142.632L124.835 138.36H126.243L128.827 141.728L131.387 138.36H132.795L129.491 142.632L132.875 147H131.459L128.827 143.536L126.179 147H124.763ZM136.816 147.24C135.957 147.24 135.224 147.045 134.616 146.656C134.008 146.267 133.541 145.728 133.216 145.04C132.89 144.352 132.728 143.563 132.728 142.672C132.728 141.765 132.893 140.971 133.224 140.288C133.554 139.605 134.024 139.075 134.632 138.696C135.245 138.312 135.973 138.12 136.816 138.12C137.68 138.12 138.416 138.315 139.024 138.704C139.637 139.088 140.104 139.624 140.424 140.312C140.749 140.995 140.912 141.781 140.912 142.672C140.912 143.579 140.749 144.376 140.424 145.064C140.098 145.747 139.629 146.28 139.016 146.664C138.402 147.048 137.669 147.24 136.816 147.24ZM136.816 146.112C137.776 146.112 138.49 145.795 138.96 145.16C139.429 144.52 139.664 143.691 139.664 142.672C139.664 141.627 139.426 140.795 138.952 140.176C138.482 139.557 137.77 139.248 136.816 139.248C136.17 139.248 135.637 139.395 135.216 139.688C134.8 139.976 134.488 140.379 134.28 140.896C134.077 141.408 133.976 142 133.976 142.672C133.976 143.712 134.216 144.547 134.696 145.176C135.176 145.8 135.882 146.112 136.816 146.112ZM141.396 148.92V145.992C141.887 145.992 142.239 145.835 142.452 145.52C142.666 145.2 142.839 144.691 142.972 143.992C143.063 143.539 143.138 143.051 143.196 142.528C143.255 142.005 143.306 141.408 143.348 140.736C143.391 140.059 143.431 139.267 143.468 138.36H149.18V145.992H150.012V148.92H148.876V147H142.524V148.92H141.396ZM143.388 145.992H148.012V139.368H144.556C144.54 139.773 144.516 140.203 144.484 140.656C144.458 141.109 144.423 141.563 144.38 142.016C144.343 142.469 144.298 142.896 144.244 143.296C144.196 143.691 144.138 144.037 144.068 144.336C143.988 144.72 143.9 145.048 143.804 145.32C143.714 145.592 143.575 145.816 143.388 145.992ZM157.838 138.36V147H156.694V140.272L151.958 147H150.966V138.36H152.11V145.032L156.854 138.36H157.838ZM161.788 147V139.448H158.724V138.36H166.028V139.448H162.964V147H161.788ZM166.921 147L166.905 138.36H168.089V141.616H170.113C170.364 141.616 170.609 141.621 170.849 141.632C171.094 141.643 171.31 141.664 171.497 141.696C171.924 141.776 172.302 141.917 172.633 142.12C172.969 142.323 173.23 142.603 173.417 142.96C173.609 143.317 173.705 143.765 173.705 144.304C173.705 145.045 173.513 145.629 173.129 146.056C172.75 146.483 172.27 146.76 171.689 146.888C171.47 146.936 171.233 146.968 170.977 146.984C170.721 146.995 170.468 147 170.217 147H166.921ZM168.089 145.992H170.169C170.35 145.992 170.553 145.987 170.777 145.976C171.001 145.965 171.198 145.936 171.369 145.888C171.652 145.808 171.908 145.648 172.137 145.408C172.372 145.163 172.489 144.795 172.489 144.304C172.489 143.819 172.377 143.453 172.153 143.208C171.929 142.957 171.63 142.792 171.257 142.712C171.092 142.675 170.913 142.651 170.721 142.64C170.529 142.629 170.345 142.624 170.169 142.624H168.089V145.992ZM177.375 147L177.383 138.36H178.567V142.52L182.423 138.36H183.991L179.943 142.68L184.519 147H182.807L178.567 142.84V147H177.375ZM188.132 147.24C187.274 147.24 186.54 147.045 185.932 146.656C185.324 146.267 184.858 145.728 184.532 145.04C184.207 144.352 184.044 143.563 184.044 142.672C184.044 141.765 184.21 140.971 184.54 140.288C184.871 139.605 185.34 139.075 185.948 138.696C186.562 138.312 187.29 138.12 188.132 138.12C188.996 138.12 189.732 138.315 190.34 138.704C190.954 139.088 191.42 139.624 191.74 140.312C192.066 140.995 192.228 141.781 192.228 142.672C192.228 143.579 192.066 144.376 191.74 145.064C191.415 145.747 190.946 146.28 190.332 146.664C189.719 147.048 188.986 147.24 188.132 147.24ZM188.132 146.112C189.092 146.112 189.807 145.795 190.276 145.16C190.746 144.52 190.98 143.691 190.98 142.672C190.98 141.627 190.743 140.795 190.268 140.176C189.799 139.557 189.087 139.248 188.132 139.248C187.487 139.248 186.954 139.395 186.532 139.688C186.116 139.976 185.804 140.379 185.596 140.896C185.394 141.408 185.292 142 185.292 142.672C185.292 143.712 185.532 144.547 186.012 145.176C186.492 145.8 187.199 146.112 188.132 146.112ZM195.596 146.992L195.604 145.92L200.812 141.216C201.26 140.811 201.556 140.427 201.7 140.064C201.85 139.696 201.924 139.312 201.924 138.912C201.924 138.437 201.812 138.008 201.588 137.624C201.364 137.24 201.063 136.936 200.684 136.712C200.306 136.483 199.882 136.368 199.412 136.368C198.922 136.368 198.484 136.485 198.1 136.72C197.716 136.955 197.412 137.264 197.188 137.648C196.97 138.032 196.863 138.451 196.868 138.904H195.668C195.668 138.205 195.834 137.579 196.164 137.024C196.495 136.469 196.943 136.035 197.508 135.72C198.074 135.4 198.714 135.24 199.428 135.24C200.127 135.24 200.754 135.405 201.308 135.736C201.868 136.061 202.308 136.504 202.628 137.064C202.954 137.619 203.116 138.237 203.116 138.92C203.116 139.4 203.058 139.824 202.94 140.192C202.828 140.555 202.65 140.893 202.404 141.208C202.164 141.517 201.858 141.837 201.484 142.168L196.86 146.344L196.676 145.864H203.116V146.992H195.596ZM210.012 147.24C209.154 147.24 208.415 147.04 207.796 146.64C207.178 146.235 206.706 145.648 206.38 144.88L207.564 144.528C207.783 145.045 208.098 145.44 208.508 145.712C208.924 145.979 209.423 146.112 210.004 146.112C210.858 146.112 211.514 145.848 211.972 145.32C212.436 144.787 212.706 144.075 212.78 143.184H208.916V142.176H212.78C212.716 141.307 212.458 140.603 212.004 140.064C211.551 139.52 210.892 139.248 210.028 139.248C209.452 139.248 208.943 139.389 208.5 139.672C208.063 139.955 207.74 140.357 207.532 140.88L206.38 140.512C206.626 139.771 207.071 139.187 207.716 138.76C208.367 138.333 209.14 138.12 210.036 138.12C210.879 138.12 211.602 138.312 212.204 138.696C212.807 139.075 213.268 139.608 213.588 140.296C213.908 140.979 214.068 141.776 214.068 142.688C214.068 143.595 213.906 144.389 213.58 145.072C213.26 145.755 212.799 146.288 212.196 146.672C211.594 147.051 210.866 147.24 210.012 147.24ZM217.325 147V139.448H214.261V138.36H221.565V139.448H218.501V147H217.325ZM224.594 147.24C223.943 147.24 223.397 147.123 222.954 146.888C222.517 146.653 222.189 146.341 221.97 145.952C221.751 145.563 221.642 145.139 221.642 144.68C221.642 144.211 221.735 143.811 221.922 143.48C222.114 143.144 222.373 142.869 222.698 142.656C223.029 142.443 223.41 142.28 223.842 142.168C224.279 142.061 224.762 141.968 225.29 141.888C225.823 141.803 226.343 141.731 226.85 141.672C227.362 141.608 227.81 141.547 228.194 141.488L227.778 141.744C227.794 140.891 227.629 140.259 227.282 139.848C226.935 139.437 226.333 139.232 225.474 139.232C224.882 139.232 224.381 139.365 223.97 139.632C223.565 139.899 223.279 140.32 223.114 140.896L221.97 140.56C222.167 139.787 222.565 139.187 223.162 138.76C223.759 138.333 224.535 138.12 225.49 138.12C226.279 138.12 226.949 138.269 227.498 138.568C228.053 138.861 228.445 139.288 228.674 139.848C228.781 140.099 228.85 140.379 228.882 140.688C228.914 140.997 228.93 141.312 228.93 141.632V147H227.882V144.832L228.186 144.96C227.893 145.701 227.437 146.267 226.818 146.656C226.199 147.045 225.458 147.24 224.594 147.24ZM224.73 146.224C225.279 146.224 225.759 146.125 226.17 145.928C226.581 145.731 226.911 145.461 227.162 145.12C227.413 144.773 227.575 144.384 227.65 143.952C227.714 143.675 227.749 143.371 227.754 143.04C227.759 142.704 227.762 142.453 227.762 142.288L228.21 142.52C227.81 142.573 227.375 142.627 226.906 142.68C226.442 142.733 225.983 142.795 225.53 142.864C225.082 142.933 224.677 143.016 224.314 143.112C224.069 143.181 223.831 143.28 223.602 143.408C223.373 143.531 223.183 143.696 223.034 143.904C222.89 144.112 222.818 144.371 222.818 144.68C222.818 144.931 222.879 145.173 223.002 145.408C223.13 145.643 223.333 145.837 223.61 145.992C223.893 146.147 224.266 146.224 224.73 146.224ZM230.365 147V138.36H237.237V147H236.061V139.488H231.541V147H230.365ZM240.074 150.84L241.746 146.304L241.77 147.648L237.986 138.36H239.234L242.338 146.128H241.826L244.69 138.36H245.89L241.25 150.84H240.074ZM245.198 148.672L245.27 148.088C245.483 148.104 245.638 148.061 245.734 147.96C245.83 147.859 245.889 147.723 245.91 147.552C245.931 147.381 245.937 147.197 245.926 147H245.198V145.312H246.566V147.32C246.566 147.811 246.441 148.179 246.19 148.424C245.945 148.669 245.614 148.752 245.198 148.672ZM251.523 147V138.36H252.699V142.112H257.571V138.36H258.747V147H257.571V143.24H252.699V147H251.523ZM263.952 147.24C263.094 147.24 262.36 147.045 261.752 146.656C261.144 146.267 260.678 145.728 260.352 145.04C260.027 144.352 259.864 143.563 259.864 142.672C259.864 141.765 260.03 140.971 260.36 140.288C260.691 139.605 261.16 139.075 261.768 138.696C262.382 138.312 263.11 138.12 263.952 138.12C264.816 138.12 265.552 138.315 266.16 138.704C266.774 139.088 267.24 139.624 267.56 140.312C267.886 140.995 268.048 141.781 268.048 142.672C268.048 143.579 267.886 144.376 267.56 145.064C267.235 145.747 266.766 146.28 266.152 146.664C265.539 147.048 264.806 147.24 263.952 147.24ZM263.952 146.112C264.912 146.112 265.627 145.795 266.096 145.16C266.566 144.52 266.8 143.691 266.8 142.672C266.8 141.627 266.563 140.795 266.088 140.176C265.619 139.557 264.907 139.248 263.952 139.248C263.307 139.248 262.774 139.395 262.352 139.688C261.936 139.976 261.624 140.379 261.416 140.896C261.214 141.408 261.112 142 261.112 142.672C261.112 143.712 261.352 144.547 261.832 145.176C262.312 145.8 263.019 146.112 263.952 146.112ZM271.096 148.92V145.992C271.587 145.992 271.939 145.835 272.152 145.52C272.366 145.2 272.539 144.691 272.672 143.992C272.763 143.539 272.838 143.051 272.896 142.528C272.955 142.005 273.006 141.408 273.048 140.736C273.091 140.059 273.131 139.267 273.168 138.36H278.88V145.992H279.712V148.92H278.576V147H272.224V148.92H271.096ZM273.088 145.992H277.712V139.368H274.256C274.24 139.773 274.216 140.203 274.184 140.656C274.158 141.109 274.123 141.563 274.08 142.016C274.043 142.469 273.998 142.896 273.944 143.296C273.896 143.691 273.838 144.037 273.768 144.336C273.688 144.72 273.6 145.048 273.504 145.32C273.414 145.592 273.275 145.816 273.088 145.992ZM279.874 147V145.968C280.194 146.027 280.437 146.013 280.602 145.928C280.773 145.837 280.898 145.688 280.978 145.48C281.058 145.267 281.125 145.003 281.178 144.688C281.264 144.165 281.341 143.589 281.41 142.96C281.48 142.331 281.541 141.637 281.594 140.88C281.653 140.117 281.712 139.277 281.77 138.36H287.642V147H286.474V139.488H282.858C282.821 140.053 282.778 140.616 282.73 141.176C282.682 141.736 282.632 142.275 282.578 142.792C282.53 143.304 282.477 143.776 282.418 144.208C282.36 144.64 282.298 145.013 282.234 145.328C282.138 145.803 282.01 146.181 281.85 146.464C281.696 146.747 281.464 146.933 281.154 147.024C280.845 147.115 280.418 147.107 279.874 147ZM294.653 147V143.744H292.637C292.403 143.744 292.16 143.736 291.909 143.72C291.664 143.699 291.435 143.669 291.221 143.632C290.613 143.515 290.096 143.248 289.669 142.832C289.248 142.411 289.037 141.829 289.037 141.088C289.037 140.363 289.235 139.781 289.629 139.344C290.024 138.901 290.501 138.613 291.061 138.48C291.317 138.421 291.576 138.387 291.837 138.376C292.104 138.365 292.333 138.36 292.525 138.36H295.829L295.837 147H294.653ZM288.757 147L291.165 143.376H292.469L290.045 147H288.757ZM292.573 142.736H294.653V139.368H292.573C292.445 139.368 292.267 139.373 292.037 139.384C291.808 139.395 291.592 139.429 291.389 139.488C291.213 139.541 291.037 139.635 290.861 139.768C290.691 139.896 290.547 140.069 290.429 140.288C290.312 140.501 290.253 140.763 290.253 141.072C290.253 141.504 290.371 141.851 290.605 142.112C290.845 142.368 291.144 142.544 291.501 142.64C291.693 142.683 291.885 142.709 292.077 142.72C292.269 142.731 292.435 142.736 292.573 142.736ZM10.32 171V169.968C10.64 170.027 10.8827 170.013 11.048 169.928C11.2187 169.837 11.344 169.688 11.424 169.48C11.504 169.267 11.5707 169.003 11.624 168.688C11.7093 168.165 11.7867 167.589 11.856 166.96C11.9253 166.331 11.9867 165.637 12.04 164.88C12.0987 164.117 12.1573 163.277 12.216 162.36H18.088V171H16.92V163.488H13.304C13.2667 164.053 13.224 164.616 13.176 165.176C13.128 165.736 13.0773 166.275 13.024 166.792C12.976 167.304 12.9227 167.776 12.864 168.208C12.8053 168.64 12.744 169.013 12.68 169.328C12.584 169.803 12.456 170.181 12.296 170.464C12.1413 170.747 11.9093 170.933 11.6 171.024C11.2907 171.115 10.864 171.107 10.32 171ZM20.9151 174.84L22.5871 170.304L22.6111 171.648L18.8271 162.36H20.0751L23.1791 170.128H22.6671L25.5311 162.36H26.7311L22.0911 174.84H20.9151ZM32.7686 171V167.784C32.4806 167.928 32.126 168.053 31.7046 168.16C31.2833 168.267 30.83 168.32 30.3446 168.32C29.47 168.32 28.7606 168.125 28.2166 167.736C27.6726 167.347 27.318 166.784 27.1526 166.048C27.0993 165.829 27.062 165.597 27.0406 165.352C27.0246 165.107 27.014 164.885 27.0086 164.688C27.0033 164.491 27.0006 164.349 27.0006 164.264V162.36H28.1846V164.264C28.1846 164.44 28.19 164.64 28.2006 164.864C28.2113 165.088 28.2353 165.307 28.2726 165.52C28.3793 166.101 28.6193 166.541 28.9926 166.84C29.3713 167.139 29.902 167.288 30.5846 167.288C31.0113 167.288 31.414 167.235 31.7926 167.128C32.1766 167.016 32.502 166.867 32.7686 166.68V162.36H33.9446V171H32.7686ZM35.5358 171V162.36H36.6797V169.912H39.9198V162.36H41.0638V169.912H44.2958V162.36H45.4398V171H35.5358ZM50.7004 171.24C49.8577 171.24 49.127 171.053 48.5084 170.68C47.895 170.307 47.4177 169.781 47.0764 169.104C46.735 168.427 46.5644 167.632 46.5644 166.72C46.5644 165.776 46.7324 164.96 47.0684 164.272C47.4044 163.584 47.8764 163.053 48.4844 162.68C49.0977 162.307 49.8204 162.12 50.6524 162.12C51.5057 162.12 52.2337 162.317 52.8364 162.712C53.439 163.101 53.895 163.661 54.2044 164.392C54.5137 165.123 54.655 165.995 54.6284 167.008H53.4284V166.592C53.407 165.472 53.1644 164.627 52.7004 164.056C52.2417 163.485 51.5697 163.2 50.6844 163.2C49.7564 163.2 49.0444 163.501 48.5484 164.104C48.0577 164.707 47.8124 165.565 47.8124 166.68C47.8124 167.768 48.0577 168.613 48.5484 169.216C49.0444 169.813 49.7457 170.112 50.6524 170.112C51.271 170.112 51.8097 169.971 52.2684 169.688C52.7324 169.4 53.0977 168.987 53.3644 168.448L54.4604 168.872C54.119 169.624 53.615 170.208 52.9484 170.624C52.287 171.035 51.5377 171.24 50.7004 171.24ZM47.3964 167.008V166.024H53.9964V167.008H47.3964ZM55.7637 171V162.36H61.6837V163.488H56.9397V171H55.7637ZM66.013 171.24C65.1543 171.24 64.421 171.045 63.813 170.656C63.205 170.267 62.7383 169.728 62.413 169.04C62.0877 168.352 61.925 167.563 61.925 166.672C61.925 165.765 62.0903 164.971 62.421 164.288C62.7517 163.605 63.221 163.075 63.829 162.696C64.4423 162.312 65.1703 162.12 66.013 162.12C66.877 162.12 67.613 162.315 68.221 162.704C68.8343 163.088 69.301 163.624 69.621 164.312C69.9463 164.995 70.109 165.781 70.109 166.672C70.109 167.579 69.9463 168.376 69.621 169.064C69.2957 169.747 68.8263 170.28 68.213 170.664C67.5997 171.048 66.8663 171.24 66.013 171.24ZM66.013 170.112C66.973 170.112 67.6877 169.795 68.157 169.16C68.6263 168.52 68.861 167.691 68.861 166.672C68.861 165.627 68.6237 164.795 68.149 164.176C67.6797 163.557 66.9677 163.248 66.013 163.248C65.3677 163.248 64.8343 163.395 64.413 163.688C63.997 163.976 63.685 164.379 63.477 164.896C63.2743 165.408 63.173 166 63.173 166.672C63.173 167.712 63.413 168.547 63.893 169.176C64.373 169.8 65.0797 170.112 66.013 170.112ZM77.6769 171.24C76.8822 171.24 76.2102 171.04 75.6609 170.64C75.1115 170.235 74.6955 169.688 74.4129 169C74.1302 168.307 73.9889 167.531 73.9889 166.672C73.9889 165.797 74.1302 165.019 74.4129 164.336C74.7009 163.648 75.1222 163.107 75.6769 162.712C76.2315 162.317 76.9142 162.12 77.7249 162.12C78.5142 162.12 79.1915 162.32 79.7569 162.72C80.3222 163.12 80.7542 163.664 81.0529 164.352C81.3569 165.04 81.5089 165.813 81.5089 166.672C81.5089 167.536 81.3569 168.312 81.0529 169C80.7489 169.688 80.3115 170.235 79.7409 170.64C79.1702 171.04 78.4822 171.24 77.6769 171.24ZM73.7889 174.84V162.36H74.8449V168.864H74.9729V174.84H73.7889ZM77.5569 170.144C78.1595 170.144 78.6609 169.992 79.0609 169.688C79.4609 169.384 79.7595 168.971 79.9569 168.448C80.1595 167.92 80.2609 167.328 80.2609 166.672C80.2609 166.021 80.1622 165.435 79.9649 164.912C79.7675 164.389 79.4662 163.976 79.0609 163.672C78.6609 163.368 78.1515 163.216 77.5329 163.216C76.9302 163.216 76.4289 163.363 76.0289 163.656C75.6342 163.949 75.3382 164.357 75.1409 164.88C74.9435 165.397 74.8449 165.995 74.8449 166.672C74.8449 167.339 74.9435 167.936 75.1409 168.464C75.3382 168.987 75.6369 169.397 76.0369 169.696C76.4369 169.995 76.9435 170.144 77.5569 170.144ZM86.2816 171.24C85.439 171.24 84.7083 171.053 84.0896 170.68C83.4763 170.307 82.999 169.781 82.6576 169.104C82.3163 168.427 82.1456 167.632 82.1456 166.72C82.1456 165.776 82.3136 164.96 82.6496 164.272C82.9856 163.584 83.4576 163.053 84.0656 162.68C84.679 162.307 85.4016 162.12 86.2336 162.12C87.087 162.12 87.815 162.317 88.4176 162.712C89.0203 163.101 89.4763 163.661 89.7856 164.392C90.095 165.123 90.2363 165.995 90.2096 167.008H89.0096V166.592C88.9883 165.472 88.7456 164.627 88.2816 164.056C87.823 163.485 87.151 163.2 86.2656 163.2C85.3376 163.2 84.6256 163.501 84.1296 164.104C83.639 164.707 83.3936 165.565 83.3936 166.68C83.3936 167.768 83.639 168.613 84.1296 169.216C84.6256 169.813 85.327 170.112 86.2336 170.112C86.8523 170.112 87.391 169.971 87.8496 169.688C88.3136 169.4 88.679 168.987 88.9456 168.448L90.0416 168.872C89.7003 169.624 89.1963 170.208 88.5296 170.624C87.8683 171.035 87.119 171.24 86.2816 171.24ZM82.9776 167.008V166.024H89.5776V167.008H82.9776ZM94.1445 171.24C93.2752 171.24 92.5152 171.051 91.8645 170.672C91.2192 170.288 90.7098 169.757 90.3365 169.08L91.2805 168.48C91.5952 169.013 91.9872 169.419 92.4565 169.696C92.9258 169.973 93.4645 170.112 94.0725 170.112C94.7072 170.112 95.2165 169.965 95.6005 169.672C95.9845 169.379 96.1765 168.976 96.1765 168.464C96.1765 168.112 96.0938 167.832 95.9285 167.624C95.7685 167.416 95.5232 167.267 95.1925 167.176C94.8672 167.085 94.4592 167.04 93.9685 167.04H92.9445V166.032H93.9525C94.5498 166.032 95.0298 165.925 95.3925 165.712C95.7605 165.493 95.9445 165.152 95.9445 164.688C95.9445 164.197 95.7605 163.835 95.3925 163.6C95.0298 163.36 94.5952 163.24 94.0885 163.24C93.5765 163.24 93.0912 163.347 92.6325 163.56C92.1792 163.768 91.7978 164.037 91.4885 164.368L90.7365 163.576C91.1685 163.101 91.6725 162.741 92.2485 162.496C92.8298 162.245 93.4725 162.12 94.1765 162.12C94.7312 162.12 95.2325 162.219 95.6805 162.416C96.1338 162.608 96.4912 162.891 96.7525 163.264C97.0192 163.637 97.1525 164.085 97.1525 164.608C97.1525 165.099 97.0325 165.523 96.7925 165.88C96.5578 166.237 96.2245 166.533 95.7925 166.768L95.7285 166.328C96.1018 166.397 96.4112 166.547 96.6565 166.776C96.9018 167.005 97.0832 167.28 97.2005 167.6C97.3178 167.92 97.3765 168.245 97.3765 168.576C97.3765 169.125 97.2325 169.6 96.9445 170C96.6618 170.395 96.2752 170.701 95.7845 170.92C95.2992 171.133 94.7525 171.24 94.1445 171.24ZM99.7339 174.84L101.406 170.304L101.43 171.648L97.6459 162.36H98.8939L101.998 170.128H101.486L104.35 162.36H105.55L100.91 174.84H99.7339ZM105.187 171V169.968C105.507 170.027 105.75 170.013 105.915 169.928C106.086 169.837 106.211 169.688 106.291 169.48C106.371 169.267 106.438 169.003 106.491 168.688C106.576 168.165 106.654 167.589 106.723 166.96C106.792 166.331 106.854 165.637 106.907 164.88C106.966 164.117 107.024 163.277 107.083 162.36H112.955V171H111.787V163.488H108.171C108.134 164.053 108.091 164.616 108.043 165.176C107.995 165.736 107.944 166.275 107.891 166.792C107.843 167.304 107.79 167.776 107.731 168.208C107.672 168.64 107.611 169.013 107.547 169.328C107.451 169.803 107.323 170.181 107.163 170.464C107.008 170.747 106.776 170.933 106.467 171.024C106.158 171.115 105.731 171.107 105.187 171ZM114.558 171L114.542 162.36H115.726V165.616H117.75C118.001 165.616 118.246 165.621 118.486 165.632C118.731 165.643 118.947 165.664 119.134 165.696C119.561 165.776 119.939 165.917 120.27 166.12C120.606 166.323 120.867 166.603 121.054 166.96C121.246 167.317 121.342 167.765 121.342 168.304C121.342 169.045 121.15 169.629 120.766 170.056C120.387 170.483 119.907 170.76 119.326 170.888C119.107 170.936 118.87 170.968 118.614 170.984C118.358 170.995 118.105 171 117.854 171H114.558ZM115.726 169.992H117.806C117.987 169.992 118.19 169.987 118.414 169.976C118.638 169.965 118.835 169.936 119.006 169.888C119.289 169.808 119.545 169.648 119.774 169.408C120.009 169.163 120.126 168.795 120.126 168.304C120.126 167.819 120.014 167.453 119.79 167.208C119.566 166.957 119.267 166.792 118.894 166.712C118.729 166.675 118.55 166.651 118.358 166.64C118.166 166.629 117.982 166.624 117.806 166.624H115.726V169.992ZM124.801 171V163.448H121.737V162.36H129.041V163.448H125.977V171H124.801ZM132.07 171.24C131.419 171.24 130.873 171.123 130.43 170.888C129.993 170.653 129.665 170.341 129.446 169.952C129.227 169.563 129.118 169.139 129.118 168.68C129.118 168.211 129.211 167.811 129.398 167.48C129.59 167.144 129.849 166.869 130.174 166.656C130.505 166.443 130.886 166.28 131.318 166.168C131.755 166.061 132.238 165.968 132.766 165.888C133.299 165.803 133.819 165.731 134.326 165.672C134.838 165.608 135.286 165.547 135.67 165.488L135.254 165.744C135.27 164.891 135.105 164.259 134.758 163.848C134.411 163.437 133.809 163.232 132.95 163.232C132.358 163.232 131.857 163.365 131.446 163.632C131.041 163.899 130.755 164.32 130.59 164.896L129.446 164.56C129.643 163.787 130.041 163.187 130.638 162.76C131.235 162.333 132.011 162.12 132.966 162.12C133.755 162.12 134.425 162.269 134.974 162.568C135.529 162.861 135.921 163.288 136.15 163.848C136.257 164.099 136.326 164.379 136.358 164.688C136.39 164.997 136.406 165.312 136.406 165.632V171H135.358V168.832L135.662 168.96C135.369 169.701 134.913 170.267 134.294 170.656C133.675 171.045 132.934 171.24 132.07 171.24ZM132.206 170.224C132.755 170.224 133.235 170.125 133.646 169.928C134.057 169.731 134.387 169.461 134.638 169.12C134.889 168.773 135.051 168.384 135.126 167.952C135.19 167.675 135.225 167.371 135.23 167.04C135.235 166.704 135.238 166.453 135.238 166.288L135.686 166.52C135.286 166.573 134.851 166.627 134.382 166.68C133.918 166.733 133.459 166.795 133.006 166.864C132.558 166.933 132.153 167.016 131.79 167.112C131.545 167.181 131.307 167.28 131.078 167.408C130.849 167.531 130.659 167.696 130.51 167.904C130.366 168.112 130.294 168.371 130.294 168.68C130.294 168.931 130.355 169.173 130.478 169.408C130.606 169.643 130.809 169.837 131.086 169.992C131.369 170.147 131.742 170.224 132.206 170.224ZM140.193 171V163.448H137.129V162.36H144.433V163.448H141.369V171H140.193ZM147.462 171.24C146.811 171.24 146.265 171.123 145.822 170.888C145.385 170.653 145.057 170.341 144.838 169.952C144.619 169.563 144.51 169.139 144.51 168.68C144.51 168.211 144.603 167.811 144.79 167.48C144.982 167.144 145.241 166.869 145.566 166.656C145.897 166.443 146.278 166.28 146.71 166.168C147.147 166.061 147.63 165.968 148.158 165.888C148.691 165.803 149.211 165.731 149.718 165.672C150.23 165.608 150.678 165.547 151.062 165.488L150.646 165.744C150.662 164.891 150.497 164.259 150.15 163.848C149.803 163.437 149.201 163.232 148.342 163.232C147.75 163.232 147.249 163.365 146.838 163.632C146.433 163.899 146.147 164.32 145.982 164.896L144.838 164.56C145.035 163.787 145.433 163.187 146.03 162.76C146.627 162.333 147.403 162.12 148.358 162.12C149.147 162.12 149.817 162.269 150.366 162.568C150.921 162.861 151.313 163.288 151.542 163.848C151.649 164.099 151.718 164.379 151.75 164.688C151.782 164.997 151.798 165.312 151.798 165.632V171H150.75V168.832L151.054 168.96C150.761 169.701 150.305 170.267 149.686 170.656C149.067 171.045 148.326 171.24 147.462 171.24ZM147.598 170.224C148.147 170.224 148.627 170.125 149.038 169.928C149.449 169.731 149.779 169.461 150.03 169.12C150.281 168.773 150.443 168.384 150.518 167.952C150.582 167.675 150.617 167.371 150.622 167.04C150.627 166.704 150.63 166.453 150.63 166.288L151.078 166.52C150.678 166.573 150.243 166.627 149.774 166.68C149.31 166.733 148.851 166.795 148.398 166.864C147.95 166.933 147.545 167.016 147.182 167.112C146.937 167.181 146.699 167.28 146.47 167.408C146.241 167.531 146.051 167.696 145.902 167.904C145.758 168.112 145.686 168.371 145.686 168.68C145.686 168.931 145.747 169.173 145.87 169.408C145.998 169.643 146.201 169.837 146.478 169.992C146.761 170.147 147.134 170.224 147.598 170.224ZM155.004 171V169.968C155.324 170.027 155.566 170.013 155.732 169.928C155.902 169.837 156.028 169.688 156.108 169.48C156.188 169.267 156.254 169.003 156.308 168.688C156.393 168.165 156.47 167.589 156.54 166.96C156.609 166.331 156.67 165.637 156.724 164.88C156.782 164.117 156.841 163.277 156.9 162.36H162.772V171H161.604V163.488H157.988C157.95 164.053 157.908 164.616 157.86 165.176C157.812 165.736 157.761 166.275 157.708 166.792C157.66 167.304 157.606 167.776 157.548 168.208C157.489 168.64 157.428 169.013 157.364 169.328C157.268 169.803 157.14 170.181 156.98 170.464C156.825 170.747 156.593 170.933 156.284 171.024C155.974 171.115 155.548 171.107 155.004 171ZM165.599 174.84L167.271 170.304L167.295 171.648L163.511 162.36H164.759L167.863 170.128H167.351L170.215 162.36H171.415L166.775 174.84H165.599ZM177.452 171V167.784C177.164 167.928 176.81 168.053 176.388 168.16C175.967 168.267 175.514 168.32 175.028 168.32C174.154 168.32 173.444 168.125 172.9 167.736C172.356 167.347 172.002 166.784 171.836 166.048C171.783 165.829 171.746 165.597 171.724 165.352C171.708 165.107 171.698 164.885 171.692 164.688C171.687 164.491 171.684 164.349 171.684 164.264V162.36H172.868V164.264C172.868 164.44 172.874 164.64 172.884 164.864C172.895 165.088 172.919 165.307 172.956 165.52C173.063 166.101 173.303 166.541 173.676 166.84C174.055 167.139 174.586 167.288 175.268 167.288C175.695 167.288 176.098 167.235 176.476 167.128C176.86 167.016 177.186 166.867 177.452 166.68V162.36H178.628V171H177.452ZM180.219 171V162.36H181.363V169.912H184.603V162.36H185.747V169.912H188.979V162.36H190.123V171H180.219ZM195.384 171.24C194.541 171.24 193.811 171.053 193.192 170.68C192.579 170.307 192.101 169.781 191.76 169.104C191.419 168.427 191.248 167.632 191.248 166.72C191.248 165.776 191.416 164.96 191.752 164.272C192.088 163.584 192.56 163.053 193.168 162.68C193.781 162.307 194.504 162.12 195.336 162.12C196.189 162.12 196.917 162.317 197.52 162.712C198.123 163.101 198.579 163.661 198.888 164.392C199.197 165.123 199.339 165.995 199.312 167.008H198.112V166.592C198.091 165.472 197.848 164.627 197.384 164.056C196.925 163.485 196.253 163.2 195.368 163.2C194.44 163.2 193.728 163.501 193.232 164.104C192.741 164.707 192.496 165.565 192.496 166.68C192.496 167.768 192.741 168.613 193.232 169.216C193.728 169.813 194.429 170.112 195.336 170.112C195.955 170.112 196.493 169.971 196.952 169.688C197.416 169.4 197.781 168.987 198.048 168.448L199.144 168.872C198.803 169.624 198.299 170.208 197.632 170.624C196.971 171.035 196.221 171.24 195.384 171.24ZM192.08 167.008V166.024H198.68V167.008H192.08ZM203.003 171V162.36H209.875V171H208.699V163.488H204.179V171H203.003ZM215.088 171.24C214.229 171.24 213.496 171.045 212.888 170.656C212.28 170.267 211.813 169.728 211.488 169.04C211.163 168.352 211 167.563 211 166.672C211 165.765 211.165 164.971 211.496 164.288C211.827 163.605 212.296 163.075 212.904 162.696C213.517 162.312 214.245 162.12 215.088 162.12C215.952 162.12 216.688 162.315 217.296 162.704C217.909 163.088 218.376 163.624 218.696 164.312C219.021 164.995 219.184 165.781 219.184 166.672C219.184 167.579 219.021 168.376 218.696 169.064C218.371 169.747 217.901 170.28 217.288 170.664C216.675 171.048 215.941 171.24 215.088 171.24ZM215.088 170.112C216.048 170.112 216.763 169.795 217.232 169.16C217.701 168.52 217.936 167.691 217.936 166.672C217.936 165.627 217.699 164.795 217.224 164.176C216.755 163.557 216.043 163.248 215.088 163.248C214.443 163.248 213.909 163.395 213.488 163.688C213.072 163.976 212.76 164.379 212.552 164.896C212.349 165.408 212.248 166 212.248 166.672C212.248 167.712 212.488 168.547 212.968 169.176C213.448 169.8 214.155 170.112 215.088 170.112ZM219.509 171V169.968C219.829 170.027 220.071 170.013 220.237 169.928C220.407 169.837 220.533 169.688 220.613 169.48C220.693 169.267 220.759 169.003 220.813 168.688C220.898 168.165 220.975 167.589 221.045 166.96C221.114 166.331 221.175 165.637 221.229 164.88C221.287 164.117 221.346 163.277 221.405 162.36H227.277V171H226.109V163.488H222.493C222.455 164.053 222.413 164.616 222.365 165.176C222.317 165.736 222.266 166.275 222.213 166.792C222.165 167.304 222.111 167.776 222.053 168.208C221.994 168.64 221.933 169.013 221.869 169.328C221.773 169.803 221.645 170.181 221.485 170.464C221.33 170.747 221.098 170.933 220.789 171.024C220.479 171.115 220.053 171.107 219.509 171ZM230.104 174.84L231.776 170.304L231.8 171.648L228.016 162.36H229.264L232.368 170.128H231.856L234.72 162.36H235.92L231.28 174.84H230.104ZM241.957 171V167.784C241.669 167.928 241.315 168.053 240.893 168.16C240.472 168.267 240.019 168.32 239.533 168.32C238.659 168.32 237.949 168.125 237.405 167.736C236.861 167.347 236.507 166.784 236.341 166.048C236.288 165.829 236.251 165.597 236.229 165.352C236.213 165.107 236.203 164.885 236.197 164.688C236.192 164.491 236.189 164.349 236.189 164.264V162.36H237.373V164.264C237.373 164.44 237.379 164.64 237.389 164.864C237.4 165.088 237.424 165.307 237.461 165.52C237.568 166.101 237.808 166.541 238.181 166.84C238.56 167.139 239.091 167.288 239.773 167.288C240.2 167.288 240.603 167.235 240.981 167.128C241.365 167.016 241.691 166.867 241.957 166.68V162.36H243.133V171H241.957ZM251.597 162.36V171H250.453V164.272L245.717 171H244.725V162.36H245.869V169.032L250.613 162.36H251.597ZM255.546 171V163.448H252.482V162.36H259.786V163.448H256.722V171H255.546ZM260.679 171L260.663 162.36H261.847V165.616H263.871C264.122 165.616 264.367 165.621 264.607 165.632C264.853 165.643 265.069 165.664 265.255 165.696C265.682 165.776 266.061 165.917 266.391 166.12C266.727 166.323 266.989 166.603 267.175 166.96C267.367 167.317 267.463 167.765 267.463 168.304C267.463 169.045 267.271 169.629 266.887 170.056C266.509 170.483 266.029 170.76 265.447 170.888C265.229 170.936 264.991 170.968 264.735 170.984C264.479 170.995 264.226 171 263.975 171H260.679ZM261.847 169.992H263.927C264.109 169.992 264.311 169.987 264.535 169.976C264.759 169.965 264.957 169.936 265.127 169.888C265.41 169.808 265.666 169.648 265.895 169.408C266.13 169.163 266.247 168.795 266.247 168.304C266.247 167.819 266.135 167.453 265.911 167.208C265.687 166.957 265.389 166.792 265.015 166.712C264.85 166.675 264.671 166.651 264.479 166.64C264.287 166.629 264.103 166.624 263.927 166.624H261.847V169.992ZM271.757 171L275.997 160.624H270.661V159.48H277.253V160.624L273.021 171H271.757ZM280.456 172.92V169.992C280.946 169.992 281.298 169.835 281.512 169.52C281.725 169.2 281.898 168.691 282.032 167.992C282.122 167.539 282.197 167.051 282.256 166.528C282.314 166.005 282.365 165.408 282.408 164.736C282.45 164.059 282.49 163.267 282.528 162.36H288.24V169.992H289.072V172.92H287.936V171H281.584V172.92H280.456ZM282.448 169.992H287.072V163.368H283.616C283.6 163.773 283.576 164.203 283.544 164.656C283.517 165.109 283.482 165.563 283.44 166.016C283.402 166.469 283.357 166.896 283.304 167.296C283.256 167.691 283.197 168.037 283.128 168.336C283.048 168.72 282.96 169.048 282.864 169.32C282.773 169.592 282.634 169.816 282.448 169.992ZM290.026 171V162.36H291.202V166.112H296.074V162.36H297.25V171H296.074V167.24H291.202V171H290.026ZM302.503 171.24C301.66 171.24 300.93 171.053 300.311 170.68C299.698 170.307 299.22 169.781 298.879 169.104C298.538 168.427 298.367 167.632 298.367 166.72C298.367 165.776 298.535 164.96 298.871 164.272C299.207 163.584 299.679 163.053 300.287 162.68C300.9 162.307 301.623 162.12 302.455 162.12C303.308 162.12 304.036 162.317 304.639 162.712C305.242 163.101 305.698 163.661 306.007 164.392C306.316 165.123 306.458 165.995 306.431 167.008H305.231V166.592C305.21 165.472 304.967 164.627 304.503 164.056C304.044 163.485 303.372 163.2 302.487 163.2C301.559 163.2 300.847 163.501 300.351 164.104C299.86 164.707 299.615 165.565 299.615 166.68C299.615 167.768 299.86 168.613 300.351 169.216C300.847 169.813 301.548 170.112 302.455 170.112C303.074 170.112 303.612 169.971 304.071 169.688C304.535 169.4 304.9 168.987 305.167 168.448L306.263 168.872C305.922 169.624 305.418 170.208 304.751 170.624C304.09 171.035 303.34 171.24 302.503 171.24ZM299.199 167.008V166.024H305.799V167.008H299.199ZM311.15 161.336C310.772 161.336 310.425 161.243 310.11 161.056C309.796 160.869 309.545 160.621 309.358 160.312C309.177 159.997 309.086 159.651 309.086 159.272H310.062C310.062 159.571 310.169 159.827 310.382 160.04C310.596 160.253 310.852 160.36 311.15 160.36C311.454 160.36 311.71 160.253 311.918 160.04C312.132 159.827 312.238 159.571 312.238 159.272H313.214C313.214 159.651 313.121 159.997 312.934 160.312C312.753 160.621 312.505 160.869 312.19 161.056C311.876 161.243 311.529 161.336 311.15 161.336ZM314.43 162.36V171H313.286V164.272L308.55 171H307.558V162.36H308.702V169.032L313.446 162.36H314.43ZM14.584 195.248C13.7787 195.243 13.088 195.067 12.512 194.72C11.936 194.373 11.488 193.856 11.168 193.168C10.8533 192.48 10.6827 191.621 10.656 190.592C10.64 190.139 10.6507 189.645 10.688 189.112C10.7253 188.573 10.784 188.061 10.864 187.576C10.944 187.091 11.04 186.696 11.152 186.392C11.2907 185.997 11.488 185.629 11.744 185.288C12.0053 184.941 12.3067 184.659 12.648 184.44C12.9787 184.216 13.352 184.043 13.768 183.92C14.1893 183.792 14.6267 183.693 15.08 183.624C15.5387 183.555 15.992 183.493 16.44 183.44C16.8933 183.387 17.312 183.32 17.696 183.24L17.824 184.304C17.5307 184.363 17.184 184.416 16.784 184.464C16.384 184.512 15.9653 184.571 15.528 184.64C15.0907 184.704 14.672 184.792 14.272 184.904C13.872 185.016 13.5307 185.163 13.248 185.344C12.816 185.605 12.4827 186 12.248 186.528C12.0187 187.056 11.8773 187.661 11.824 188.344C12.1547 187.827 12.592 187.437 13.136 187.176C13.6853 186.915 14.28 186.784 14.92 186.784C15.6987 186.784 16.368 186.963 16.928 187.32C17.4933 187.677 17.928 188.173 18.232 188.808C18.536 189.443 18.688 190.171 18.688 190.992C18.688 191.851 18.52 192.6 18.184 193.24C17.8533 193.88 17.3813 194.376 16.768 194.728C16.1547 195.075 15.4267 195.248 14.584 195.248ZM14.672 194.12C15.5787 194.12 16.2667 193.837 16.736 193.272C17.2107 192.707 17.448 191.955 17.448 191.016C17.448 190.056 17.2027 189.299 16.712 188.744C16.2267 188.189 15.5413 187.912 14.656 187.912C13.7707 187.912 13.0907 188.189 12.616 188.744C12.1413 189.299 11.904 190.056 11.904 191.016C11.904 191.976 12.1413 192.733 12.616 193.288C13.0907 193.843 13.776 194.12 14.672 194.12ZM23.4641 195.24C22.6215 195.24 21.8908 195.053 21.2721 194.68C20.6588 194.307 20.1815 193.781 19.8401 193.104C19.4988 192.427 19.3281 191.632 19.3281 190.72C19.3281 189.776 19.4961 188.96 19.8321 188.272C20.1681 187.584 20.6401 187.053 21.2481 186.68C21.8615 186.307 22.5841 186.12 23.4161 186.12C24.2695 186.12 24.9975 186.317 25.6001 186.712C26.2028 187.101 26.6588 187.661 26.9681 188.392C27.2775 189.123 27.4188 189.995 27.3921 191.008H26.1921V190.592C26.1708 189.472 25.9281 188.627 25.4641 188.056C25.0055 187.485 24.3335 187.2 23.4481 187.2C22.5201 187.2 21.8081 187.501 21.3121 188.104C20.8215 188.707 20.5761 189.565 20.5761 190.68C20.5761 191.768 20.8215 192.613 21.3121 193.216C21.8081 193.813 22.5095 194.112 23.4161 194.112C24.0348 194.112 24.5735 193.971 25.0321 193.688C25.4961 193.4 25.8615 192.987 26.1281 192.448L27.2241 192.872C26.8828 193.624 26.3788 194.208 25.7121 194.624C25.0508 195.035 24.3015 195.24 23.4641 195.24ZM20.1601 191.008V190.024H26.7601V191.008H20.1601ZM31.327 195.24C30.4577 195.24 29.6977 195.051 29.047 194.672C28.4017 194.288 27.8923 193.757 27.519 193.08L28.463 192.48C28.7777 193.013 29.1697 193.419 29.639 193.696C30.1083 193.973 30.647 194.112 31.255 194.112C31.8897 194.112 32.399 193.965 32.783 193.672C33.167 193.379 33.359 192.976 33.359 192.464C33.359 192.112 33.2763 191.832 33.111 191.624C32.951 191.416 32.7057 191.267 32.375 191.176C32.0497 191.085 31.6417 191.04 31.151 191.04H30.127V190.032H31.135C31.7323 190.032 32.2123 189.925 32.575 189.712C32.943 189.493 33.127 189.152 33.127 188.688C33.127 188.197 32.943 187.835 32.575 187.6C32.2123 187.36 31.7777 187.24 31.271 187.24C30.759 187.24 30.2737 187.347 29.815 187.56C29.3617 187.768 28.9803 188.037 28.671 188.368L27.919 187.576C28.351 187.101 28.855 186.741 29.431 186.496C30.0123 186.245 30.655 186.12 31.359 186.12C31.9137 186.12 32.415 186.219 32.863 186.416C33.3163 186.608 33.6737 186.891 33.935 187.264C34.2017 187.637 34.335 188.085 34.335 188.608C34.335 189.099 34.215 189.523 33.975 189.88C33.7403 190.237 33.407 190.533 32.975 190.768L32.911 190.328C33.2843 190.397 33.5937 190.547 33.839 190.776C34.0843 191.005 34.2657 191.28 34.383 191.6C34.5003 191.92 34.559 192.245 34.559 192.576C34.559 193.125 34.415 193.6 34.127 194C33.8443 194.395 33.4577 194.701 32.967 194.92C32.4817 195.133 31.935 195.24 31.327 195.24ZM41.8315 195.24C40.9622 195.24 40.2262 195.045 39.6235 194.656C39.0208 194.267 38.5622 193.731 38.2475 193.048C37.9382 192.36 37.7782 191.571 37.7675 190.68C37.7782 189.773 37.9435 188.979 38.2635 188.296C38.5835 187.608 39.0448 187.075 39.6475 186.696C40.2502 186.312 40.9808 186.12 41.8395 186.12C42.7142 186.12 43.4742 186.333 44.1195 186.76C44.7702 187.187 45.2155 187.771 45.4555 188.512L44.3035 188.88C44.1008 188.363 43.7782 187.963 43.3355 187.68C42.8982 187.392 42.3968 187.248 41.8315 187.248C41.1968 187.248 40.6715 187.395 40.2555 187.688C39.8395 187.976 39.5302 188.379 39.3275 188.896C39.1248 189.413 39.0208 190.008 39.0155 190.68C39.0262 191.715 39.2662 192.547 39.7355 193.176C40.2048 193.8 40.9035 194.112 41.8315 194.112C42.4182 194.112 42.9168 193.979 43.3275 193.712C43.7435 193.44 44.0582 193.045 44.2715 192.528L45.4555 192.88C45.1355 193.648 44.6662 194.235 44.0475 194.64C43.4288 195.04 42.6902 195.24 41.8315 195.24ZM53.3309 186.36V195H52.1869V188.272L47.4509 195H46.4589V186.36H47.6029V193.032L52.3469 186.36H53.3309ZM54.9282 195V186.36H55.9762L59.3443 193.432L62.7203 186.36H63.7603V195H62.6243V188.872L59.7203 195H58.9763L56.0722 188.872V195H54.9282ZM65.3508 195V186.36H72.2228V195H71.0468V187.488H66.5268V195H65.3508ZM76.1721 195V187.448H73.1081V186.36H80.4121V187.448H77.3481V195H76.1721ZM84.7492 195.24C83.8906 195.24 83.1572 195.045 82.5492 194.656C81.9412 194.267 81.4746 193.728 81.1492 193.04C80.8239 192.352 80.6612 191.563 80.6612 190.672C80.6612 189.765 80.8266 188.971 81.1572 188.288C81.4879 187.605 81.9572 187.075 82.5652 186.696C83.1786 186.312 83.9066 186.12 84.7492 186.12C85.6132 186.12 86.3492 186.315 86.9572 186.704C87.5706 187.088 88.0372 187.624 88.3572 188.312C88.6826 188.995 88.8452 189.781 88.8452 190.672C88.8452 191.579 88.6826 192.376 88.3572 193.064C88.0319 193.747 87.5626 194.28 86.9492 194.664C86.3359 195.048 85.6026 195.24 84.7492 195.24ZM84.7492 194.112C85.7092 194.112 86.4239 193.795 86.8932 193.16C87.3626 192.52 87.5972 191.691 87.5972 190.672C87.5972 189.627 87.3599 188.795 86.8852 188.176C86.4159 187.557 85.7039 187.248 84.7492 187.248C84.1039 187.248 83.5706 187.395 83.1492 187.688C82.7332 187.976 82.4212 188.379 82.2132 188.896C82.0106 189.408 81.9092 190 81.9092 190.672C81.9092 191.712 82.1492 192.547 82.6292 193.176C83.1092 193.8 83.8159 194.112 84.7492 194.112ZM89.962 195V186.36H91.01L94.378 193.432L97.754 186.36H98.794V195H97.658V188.872L94.754 195H94.01L91.106 188.872V195H89.962ZM104 195.24C103.142 195.24 102.408 195.045 101.8 194.656C101.192 194.267 100.726 193.728 100.4 193.04C100.075 192.352 99.9125 191.563 99.9125 190.672C99.9125 189.765 100.078 188.971 100.408 188.288C100.739 187.605 101.208 187.075 101.816 186.696C102.43 186.312 103.158 186.12 104 186.12C104.864 186.12 105.6 186.315 106.208 186.704C106.822 187.088 107.288 187.624 107.608 188.312C107.934 188.995 108.096 189.781 108.096 190.672C108.096 191.579 107.934 192.376 107.608 193.064C107.283 193.747 106.814 194.28 106.2 194.664C105.587 195.048 104.854 195.24 104 195.24ZM104 194.112C104.96 194.112 105.675 193.795 106.144 193.16C106.614 192.52 106.848 191.691 106.848 190.672C106.848 189.627 106.611 188.795 106.136 188.176C105.667 187.557 104.955 187.248 104 187.248C103.355 187.248 102.822 187.395 102.4 187.688C101.984 187.976 101.672 188.379 101.464 188.896C101.262 189.408 101.16 190 101.16 190.672C101.16 191.712 101.4 192.547 101.88 193.176C102.36 193.8 103.067 194.112 104 194.112ZM109.213 195V186.36H112.773C112.955 186.36 113.173 186.371 113.429 186.392C113.691 186.413 113.933 186.453 114.157 186.512C114.643 186.64 115.032 186.901 115.325 187.296C115.624 187.691 115.773 188.165 115.773 188.72C115.773 189.029 115.725 189.307 115.629 189.552C115.539 189.792 115.408 190 115.237 190.176C115.157 190.267 115.069 190.347 114.973 190.416C114.877 190.48 114.784 190.533 114.693 190.576C114.864 190.608 115.048 190.683 115.245 190.8C115.555 190.981 115.789 191.227 115.949 191.536C116.109 191.84 116.189 192.211 116.189 192.648C116.189 193.24 116.048 193.723 115.765 194.096C115.483 194.469 115.104 194.725 114.629 194.864C114.416 194.923 114.184 194.96 113.933 194.976C113.688 194.992 113.456 195 113.237 195H109.213ZM110.397 194H113.181C113.293 194 113.435 193.992 113.605 193.976C113.776 193.955 113.928 193.928 114.061 193.896C114.376 193.816 114.605 193.656 114.749 193.416C114.899 193.171 114.973 192.904 114.973 192.616C114.973 192.237 114.861 191.928 114.637 191.688C114.419 191.443 114.125 191.293 113.757 191.24C113.635 191.213 113.507 191.197 113.373 191.192C113.24 191.187 113.12 191.184 113.013 191.184H110.397V194ZM110.397 190.176H112.813C112.952 190.176 113.107 190.168 113.277 190.152C113.453 190.131 113.605 190.096 113.733 190.048C114.011 189.952 114.213 189.787 114.341 189.552C114.475 189.317 114.541 189.061 114.541 188.784C114.541 188.48 114.469 188.213 114.325 187.984C114.187 187.755 113.976 187.595 113.693 187.504C113.501 187.435 113.293 187.395 113.069 187.384C112.851 187.373 112.712 187.368 112.653 187.368H110.397V190.176ZM119.699 195V186.36H126.571V195H125.395V187.488H120.875V195H119.699ZM131.832 195.24C130.99 195.24 130.259 195.053 129.64 194.68C129.027 194.307 128.55 193.781 128.208 193.104C127.867 192.427 127.696 191.632 127.696 190.72C127.696 189.776 127.864 188.96 128.2 188.272C128.536 187.584 129.008 187.053 129.616 186.68C130.23 186.307 130.952 186.12 131.784 186.12C132.638 186.12 133.366 186.317 133.968 186.712C134.571 187.101 135.027 187.661 135.336 188.392C135.646 189.123 135.787 189.995 135.76 191.008H134.56V190.592C134.539 189.472 134.296 188.627 133.832 188.056C133.374 187.485 132.702 187.2 131.816 187.2C130.888 187.2 130.176 187.501 129.68 188.104C129.19 188.707 128.944 189.565 128.944 190.68C128.944 191.768 129.19 192.613 129.68 193.216C130.176 193.813 130.878 194.112 131.784 194.112C132.403 194.112 132.942 193.971 133.4 193.688C133.864 193.4 134.23 192.987 134.496 192.448L135.592 192.872C135.251 193.624 134.747 194.208 134.08 194.624C133.419 195.035 132.67 195.24 131.832 195.24ZM128.528 191.008V190.024H135.128V191.008H128.528ZM140.776 195.24C139.981 195.24 139.309 195.04 138.76 194.64C138.21 194.235 137.794 193.688 137.512 193C137.229 192.307 137.088 191.531 137.088 190.672C137.088 189.797 137.229 189.019 137.512 188.336C137.8 187.648 138.221 187.107 138.776 186.712C139.33 186.317 140.013 186.12 140.824 186.12C141.613 186.12 142.29 186.32 142.856 186.72C143.421 187.12 143.853 187.664 144.152 188.352C144.456 189.04 144.608 189.813 144.608 190.672C144.608 191.536 144.456 192.312 144.152 193C143.848 193.688 143.41 194.235 142.84 194.64C142.269 195.04 141.581 195.24 140.776 195.24ZM136.888 198.84V186.36H137.944V192.864H138.072V198.84H136.888ZM140.656 194.144C141.258 194.144 141.76 193.992 142.16 193.688C142.56 193.384 142.858 192.971 143.056 192.448C143.258 191.92 143.36 191.328 143.36 190.672C143.36 190.021 143.261 189.435 143.064 188.912C142.866 188.389 142.565 187.976 142.16 187.672C141.76 187.368 141.25 187.216 140.632 187.216C140.029 187.216 139.528 187.363 139.128 187.656C138.733 187.949 138.437 188.357 138.24 188.88C138.042 189.397 137.944 189.995 137.944 190.672C137.944 191.339 138.042 191.936 138.24 192.464C138.437 192.987 138.736 193.397 139.136 193.696C139.536 193.995 140.042 194.144 140.656 194.144ZM149.38 195.24C148.538 195.24 147.807 195.053 147.188 194.68C146.575 194.307 146.098 193.781 145.756 193.104C145.415 192.427 145.244 191.632 145.244 190.72C145.244 189.776 145.412 188.96 145.748 188.272C146.084 187.584 146.556 187.053 147.164 186.68C147.778 186.307 148.5 186.12 149.332 186.12C150.186 186.12 150.914 186.317 151.516 186.712C152.119 187.101 152.575 187.661 152.884 188.392C153.194 189.123 153.335 189.995 153.308 191.008H152.108V190.592C152.087 189.472 151.844 188.627 151.38 188.056C150.922 187.485 150.25 187.2 149.364 187.2C148.436 187.2 147.724 187.501 147.228 188.104C146.738 188.707 146.492 189.565 146.492 190.68C146.492 191.768 146.738 192.613 147.228 193.216C147.724 193.813 148.426 194.112 149.332 194.112C149.951 194.112 150.49 193.971 150.948 193.688C151.412 193.4 151.778 192.987 152.044 192.448L153.14 192.872C152.799 193.624 152.295 194.208 151.628 194.624C150.967 195.035 150.218 195.24 149.38 195.24ZM146.076 191.008V190.024H152.676V191.008H146.076ZM153.804 196.92V193.992C154.294 193.992 154.646 193.835 154.86 193.52C155.073 193.2 155.246 192.691 155.38 191.992C155.47 191.539 155.545 191.051 155.604 190.528C155.662 190.005 155.713 189.408 155.756 188.736C155.798 188.059 155.838 187.267 155.876 186.36H161.588V193.992H162.42V196.92H161.284V195H154.932V196.92H153.804ZM155.796 193.992H160.42V187.368H156.964C156.948 187.773 156.924 188.203 156.892 188.656C156.865 189.109 156.83 189.563 156.788 190.016C156.75 190.469 156.705 190.896 156.652 191.296C156.604 191.691 156.545 192.037 156.476 192.336C156.396 192.72 156.308 193.048 156.212 193.32C156.121 193.592 155.982 193.816 155.796 193.992ZM169.529 195.24C168.66 195.24 167.924 195.045 167.321 194.656C166.718 194.267 166.26 193.731 165.945 193.048C165.636 192.36 165.476 191.571 165.465 190.68C165.476 189.773 165.641 188.979 165.961 188.296C166.281 187.608 166.742 187.075 167.345 186.696C167.948 186.312 168.678 186.12 169.537 186.12C170.412 186.12 171.172 186.333 171.817 186.76C172.468 187.187 172.913 187.771 173.153 188.512L172.001 188.88C171.798 188.363 171.476 187.963 171.033 187.68C170.596 187.392 170.094 187.248 169.529 187.248C168.894 187.248 168.369 187.395 167.953 187.688C167.537 187.976 167.228 188.379 167.025 188.896C166.822 189.413 166.718 190.008 166.713 190.68C166.724 191.715 166.964 192.547 167.433 193.176C167.902 193.8 168.601 194.112 169.529 194.112C170.116 194.112 170.614 193.979 171.025 193.712C171.441 193.44 171.756 193.045 171.969 192.528L173.153 192.88C172.833 193.648 172.364 194.235 171.745 194.64C171.126 195.04 170.388 195.24 169.529 195.24ZM173.13 195V193.968C173.45 194.027 173.693 194.013 173.858 193.928C174.029 193.837 174.154 193.688 174.234 193.48C174.314 193.267 174.381 193.003 174.434 192.688C174.519 192.165 174.597 191.589 174.666 190.96C174.735 190.331 174.797 189.637 174.85 188.88C174.909 188.117 174.967 187.277 175.026 186.36H180.898V195H179.73V187.488H176.114C176.077 188.053 176.034 188.616 175.986 189.176C175.938 189.736 175.887 190.275 175.834 190.792C175.786 191.304 175.733 191.776 175.674 192.208C175.615 192.64 175.554 193.013 175.49 193.328C175.394 193.803 175.266 194.181 175.106 194.464C174.951 194.747 174.719 194.933 174.41 195.024C174.101 195.115 173.674 195.107 173.13 195ZM186.149 195.24C185.306 195.24 184.576 195.053 183.957 194.68C183.344 194.307 182.866 193.781 182.525 193.104C182.184 192.427 182.013 191.632 182.013 190.72C182.013 189.776 182.181 188.96 182.517 188.272C182.853 187.584 183.325 187.053 183.933 186.68C184.546 186.307 185.269 186.12 186.101 186.12C186.954 186.12 187.682 186.317 188.285 186.712C188.888 187.101 189.344 187.661 189.653 188.392C189.962 189.123 190.104 189.995 190.077 191.008H188.877V190.592C188.856 189.472 188.613 188.627 188.149 188.056C187.69 187.485 187.018 187.2 186.133 187.2C185.205 187.2 184.493 187.501 183.997 188.104C183.506 188.707 183.261 189.565 183.261 190.68C183.261 191.768 183.506 192.613 183.997 193.216C184.493 193.813 185.194 194.112 186.101 194.112C186.72 194.112 187.258 193.971 187.717 193.688C188.181 193.4 188.546 192.987 188.813 192.448L189.909 192.872C189.568 193.624 189.064 194.208 188.397 194.624C187.736 195.035 186.986 195.24 186.149 195.24ZM182.845 191.008V190.024H189.445V191.008H182.845ZM190.572 196.92V193.992C191.063 193.992 191.415 193.835 191.628 193.52C191.842 193.2 192.015 192.691 192.148 191.992C192.239 191.539 192.314 191.051 192.372 190.528C192.431 190.005 192.482 189.408 192.524 188.736C192.567 188.059 192.607 187.267 192.644 186.36H198.356V193.992H199.188V196.92H198.052V195H191.7V196.92H190.572ZM192.564 193.992H197.188V187.368H193.732C193.716 187.773 193.692 188.203 193.66 188.656C193.634 189.109 193.599 189.563 193.556 190.016C193.519 190.469 193.474 190.896 193.42 191.296C193.372 191.691 193.314 192.037 193.244 192.336C193.164 192.72 193.076 193.048 192.98 193.32C192.89 193.592 192.751 193.816 192.564 193.992ZM201.383 198.84L203.055 194.304L203.079 195.648L199.295 186.36H200.543L203.647 194.128H203.135L205.999 186.36H207.199L202.559 198.84H201.383ZM214.748 195.24C213.985 195.24 213.321 195.077 212.756 194.752C212.191 194.421 211.74 193.96 211.404 193.368C211.073 192.771 210.873 192.069 210.804 191.264H209.116V195H207.94V186.36H209.116V190.096H210.796C210.865 189.28 211.068 188.576 211.404 187.984C211.745 187.387 212.199 186.928 212.764 186.608C213.335 186.283 213.999 186.12 214.756 186.12C215.615 186.12 216.348 186.315 216.956 186.704C217.569 187.093 218.036 187.629 218.356 188.312C218.681 188.995 218.844 189.779 218.844 190.664C218.844 191.571 218.679 192.368 218.348 193.056C218.023 193.744 217.553 194.28 216.94 194.664C216.332 195.048 215.601 195.24 214.748 195.24ZM214.724 194.112C215.695 194.112 216.415 193.797 216.884 193.168C217.359 192.533 217.596 191.701 217.596 190.672C217.596 189.621 217.356 188.789 216.876 188.176C216.401 187.557 215.687 187.248 214.732 187.248C213.82 187.248 213.121 187.552 212.636 188.16C212.151 188.763 211.908 189.597 211.908 190.664C211.908 191.709 212.145 192.547 212.62 193.176C213.1 193.8 213.801 194.112 214.724 194.112ZM229.812 196.496V195H219.956V186.36H221.1V193.912H224.34V186.36H225.484V193.912H228.716V186.36H229.86V193.912H230.988V196.496H229.812ZM238.485 186.36V195H237.341V188.272L232.605 195H231.613V186.36H232.757V193.032L237.501 186.36H238.485ZM240.083 195V186.36H241.131L244.499 193.432L247.875 186.36H248.915V195H247.779V188.872L244.875 195H244.131L241.227 188.872V195H240.083ZM256.124 195.24C255.266 195.24 254.527 195.04 253.908 194.64C253.29 194.235 252.818 193.648 252.492 192.88L253.676 192.528C253.895 193.045 254.21 193.44 254.62 193.712C255.036 193.979 255.535 194.112 256.116 194.112C256.97 194.112 257.626 193.848 258.084 193.32C258.548 192.787 258.818 192.075 258.892 191.184H255.028V190.176H258.892C258.828 189.307 258.57 188.603 258.116 188.064C257.663 187.52 257.004 187.248 256.14 187.248C255.564 187.248 255.055 187.389 254.612 187.672C254.175 187.955 253.852 188.357 253.644 188.88L252.492 188.512C252.738 187.771 253.183 187.187 253.828 186.76C254.479 186.333 255.252 186.12 256.148 186.12C256.991 186.12 257.714 186.312 258.316 186.696C258.919 187.075 259.38 187.608 259.7 188.296C260.02 188.979 260.18 189.776 260.18 190.688C260.18 191.595 260.018 192.389 259.692 193.072C259.372 193.755 258.911 194.288 258.308 194.672C257.706 195.051 256.978 195.24 256.124 195.24ZM263.437 195V187.448H260.373V186.36H267.677V187.448H264.613V195H263.437ZM270.706 195.24C270.055 195.24 269.508 195.123 269.066 194.888C268.628 194.653 268.3 194.341 268.082 193.952C267.863 193.563 267.754 193.139 267.754 192.68C267.754 192.211 267.847 191.811 268.034 191.48C268.226 191.144 268.484 190.869 268.81 190.656C269.14 190.443 269.522 190.28 269.954 190.168C270.391 190.061 270.874 189.968 271.402 189.888C271.935 189.803 272.455 189.731 272.962 189.672C273.474 189.608 273.922 189.547 274.306 189.488L273.89 189.744C273.906 188.891 273.74 188.259 273.394 187.848C273.047 187.437 272.444 187.232 271.586 187.232C270.994 187.232 270.492 187.365 270.082 187.632C269.676 187.899 269.391 188.32 269.226 188.896L268.082 188.56C268.279 187.787 268.676 187.187 269.274 186.76C269.871 186.333 270.647 186.12 271.602 186.12C272.391 186.12 273.06 186.269 273.61 186.568C274.164 186.861 274.556 187.288 274.786 187.848C274.892 188.099 274.962 188.379 274.994 188.688C275.026 188.997 275.042 189.312 275.042 189.632V195H273.994V192.832L274.298 192.96C274.004 193.701 273.548 194.267 272.93 194.656C272.311 195.045 271.57 195.24 270.706 195.24ZM270.842 194.224C271.391 194.224 271.871 194.125 272.282 193.928C272.692 193.731 273.023 193.461 273.274 193.12C273.524 192.773 273.687 192.384 273.762 191.952C273.826 191.675 273.86 191.371 273.866 191.04C273.871 190.704 273.874 190.453 273.874 190.288L274.322 190.52C273.922 190.573 273.487 190.627 273.018 190.68C272.554 190.733 272.095 190.795 271.642 190.864C271.194 190.933 270.788 191.016 270.426 191.112C270.18 191.181 269.943 191.28 269.714 191.408C269.484 191.531 269.295 191.696 269.146 191.904C269.002 192.112 268.93 192.371 268.93 192.68C268.93 192.931 268.991 193.173 269.114 193.408C269.242 193.643 269.444 193.837 269.722 193.992C270.004 194.147 270.378 194.224 270.842 194.224ZM276.476 195V186.36H283.348V195H282.172V187.488H277.652V195H276.476ZM288.562 195.24C287.703 195.24 286.97 195.045 286.362 194.656C285.754 194.267 285.287 193.728 284.962 193.04C284.636 192.352 284.474 191.563 284.474 190.672C284.474 189.765 284.639 188.971 284.97 188.288C285.3 187.605 285.77 187.075 286.378 186.696C286.991 186.312 287.719 186.12 288.562 186.12C289.426 186.12 290.162 186.315 290.77 186.704C291.383 187.088 291.85 187.624 292.17 188.312C292.495 188.995 292.658 189.781 292.658 190.672C292.658 191.579 292.495 192.376 292.17 193.064C291.844 193.747 291.375 194.28 290.762 194.664C290.148 195.048 289.415 195.24 288.562 195.24ZM288.562 194.112C289.522 194.112 290.236 193.795 290.706 193.16C291.175 192.52 291.41 191.691 291.41 190.672C291.41 189.627 291.172 188.795 290.698 188.176C290.228 187.557 289.516 187.248 288.562 187.248C287.916 187.248 287.383 187.395 286.962 187.688C286.546 187.976 286.234 188.379 286.026 188.896C285.823 189.408 285.722 190 285.722 190.672C285.722 191.712 285.962 192.547 286.442 193.176C286.922 193.8 287.628 194.112 288.562 194.112ZM293.775 195V186.36H294.823L298.191 193.432L301.567 186.36H302.607V195H301.471V188.872L298.567 195H297.823L294.919 188.872V195H293.775Z" fill="#C4C4C4"/>
</svg>
