<svg width="19" height="19" viewBox="0 0 19 19" fill="none" xmlns="http://www.w3.org/2000/svg">
<path d="M4.62463 7.04164C4.62463 6.40066 4.87926 5.78593 5.3325 5.33269C5.78575 4.87945 6.40047 4.62482 7.04145 4.62482H14.8945C15.2119 4.62482 15.5262 4.68733 15.8194 4.80879C16.1126 4.93024 16.3791 5.10826 16.6035 5.33269C16.8279 5.55711 17.0059 5.82354 17.1274 6.11676C17.2488 6.40998 17.3114 6.72426 17.3114 7.04164V14.8947C17.3114 15.2121 17.2488 15.5264 17.1274 15.8196C17.0059 16.1128 16.8279 16.3792 16.6035 16.6037C16.3791 16.8281 16.1126 17.0061 15.8194 17.1276C15.5262 17.249 15.2119 17.3115 14.8945 17.3115H7.04145C6.72407 17.3115 6.4098 17.249 6.11658 17.1276C5.82336 17.0061 5.55693 16.8281 5.3325 16.6037C5.10808 16.3792 4.93006 16.1128 4.8086 15.8196C4.68715 15.5264 4.62463 15.2121 4.62463 14.8947V7.04164Z" stroke="#C2C2C2" stroke-width="2" stroke-linecap="round" stroke-linejoin="round"/>
<path d="M1.91695 13.4484C1.63874 13.2903 1.40735 13.0614 1.24627 12.785C1.0852 12.5085 1.00019 12.1943 0.999878 11.8743V2.81239C0.999878 1.81558 1.81545 1 2.81227 1H11.8742C12.5539 1 12.9236 1.34888 13.2335 1.90619" stroke="#C2C2C2" stroke-width="2" stroke-linecap="round" stroke-linejoin="round"/>
</svg>
