<svg width="366" height="320" viewBox="0 0 366 320" fill="none" xmlns="http://www.w3.org/2000/svg">
<path d="M0 20C0 8.95431 8.9543 0 20 0H346C357.046 0 366 8.95431 366 20V320H0V20Z" fill="#323232"/>
<path d="M20.096 103V101.472C19.504 101.573 18.9307 101.547 18.376 101.392C17.8267 101.232 17.3333 100.957 16.896 100.568C16.464 100.173 16.12 99.6693 15.864 99.056C15.608 98.4373 15.48 97.7147 15.48 96.888C15.48 96.0613 15.608 95.3387 15.864 94.72C16.12 94.1013 16.464 93.5947 16.896 93.2C17.3333 92.8 17.8267 92.5227 18.376 92.368C18.9307 92.208 19.504 92.1787 20.096 92.28V91.48H21.264V92.28C21.856 92.1787 22.4293 92.208 22.984 92.368C23.5387 92.5227 24.032 92.8 24.464 93.2C24.9013 93.5947 25.248 94.1013 25.504 94.72C25.76 95.3387 25.888 96.0613 25.888 96.888C25.888 97.7147 25.76 98.4373 25.504 99.056C25.248 99.6693 24.9013 100.173 24.464 100.568C24.032 100.957 23.5387 101.232 22.984 101.392C22.4293 101.547 21.856 101.573 21.264 101.472V103H20.096ZM20.096 100.352V93.376C19.5893 93.3013 19.1253 93.3387 18.704 93.488C18.288 93.632 17.9307 93.864 17.632 94.184C17.3333 94.504 17.1013 94.896 16.936 95.36C16.776 95.8187 16.696 96.328 16.696 96.888C16.696 97.448 16.776 97.9573 16.936 98.416C17.1013 98.8693 17.3333 99.2533 17.632 99.568C17.9307 99.8827 18.288 100.109 18.704 100.248C19.1253 100.387 19.5893 100.421 20.096 100.352ZM21.264 100.352C21.776 100.421 22.24 100.387 22.656 100.248C23.072 100.104 23.4293 99.8773 23.728 99.568C24.032 99.2533 24.264 98.8693 24.424 98.416C24.5893 97.9627 24.672 97.4613 24.672 96.912C24.672 96.3573 24.5893 95.8507 24.424 95.392C24.264 94.928 24.032 94.5333 23.728 94.208C23.4293 93.8827 23.072 93.6453 22.656 93.496C22.24 93.3413 21.776 93.3013 21.264 93.376V100.352ZM30.735 103.24C29.9403 103.24 29.2683 103.04 28.719 102.64C28.1697 102.235 27.7537 101.688 27.471 101C27.1883 100.307 27.047 99.5307 27.047 98.672C27.047 97.7973 27.1883 97.0187 27.471 96.336C27.759 95.648 28.1803 95.1067 28.735 94.712C29.2897 94.3173 29.9723 94.12 30.783 94.12C31.5723 94.12 32.2497 94.32 32.815 94.72C33.3803 95.12 33.8123 95.664 34.111 96.352C34.415 97.04 34.567 97.8133 34.567 98.672C34.567 99.536 34.415 100.312 34.111 101C33.807 101.688 33.3697 102.235 32.799 102.64C32.2283 103.04 31.5403 103.24 30.735 103.24ZM26.847 106.84V94.36H27.903V100.864H28.031V106.84H26.847ZM30.615 102.144C31.2177 102.144 31.719 101.992 32.119 101.688C32.519 101.384 32.8177 100.971 33.015 100.448C33.2177 99.92 33.319 99.328 33.319 98.672C33.319 98.0213 33.2203 97.4347 33.023 96.912C32.8257 96.3893 32.5243 95.976 32.119 95.672C31.719 95.368 31.2097 95.216 30.591 95.216C29.9883 95.216 29.487 95.3627 29.087 95.656C28.6923 95.9493 28.3963 96.3573 28.199 96.88C28.0017 97.3973 27.903 97.9947 27.903 98.672C27.903 99.3387 28.0017 99.936 28.199 100.464C28.3963 100.987 28.695 101.397 29.095 101.696C29.495 101.995 30.0017 102.144 30.615 102.144ZM36.6032 106.84L38.2752 102.304L38.2992 103.648L34.5152 94.36H35.7632L38.8672 102.128H38.3552L41.2192 94.36H42.4192L37.7792 106.84H36.6032ZM43.1608 103L43.1687 94.36H44.3528V98.52L48.2088 94.36H49.7768L45.7287 98.68L50.3048 103H48.5928L44.3528 98.84V103H43.1608ZM52.8102 103V95.448H49.7462V94.36H57.0502V95.448H53.9862V103H52.8102ZM61.3874 103.24C60.5287 103.24 59.7954 103.045 59.1874 102.656C58.5794 102.267 58.1127 101.728 57.7874 101.04C57.462 100.352 57.2994 99.5627 57.2994 98.672C57.2994 97.7653 57.4647 96.9707 57.7954 96.288C58.126 95.6053 58.5954 95.0747 59.2034 94.696C59.8167 94.312 60.5447 94.12 61.3874 94.12C62.2514 94.12 62.9874 94.3147 63.5954 94.704C64.2087 95.088 64.6754 95.624 64.9954 96.312C65.3207 96.9947 65.4834 97.7813 65.4834 98.672C65.4834 99.5787 65.3207 100.376 64.9954 101.064C64.67 101.747 64.2007 102.28 63.5874 102.664C62.974 103.048 62.2407 103.24 61.3874 103.24ZM61.3874 102.112C62.3474 102.112 63.062 101.795 63.5314 101.16C64.0007 100.52 64.2354 99.6907 64.2354 98.672C64.2354 97.6267 63.998 96.7947 63.5234 96.176C63.054 95.5573 62.342 95.248 61.3874 95.248C60.742 95.248 60.2087 95.3947 59.7874 95.688C59.3714 95.976 59.0594 96.3787 58.8514 96.896C58.6487 97.408 58.5474 98 58.5474 98.672C58.5474 99.712 58.7874 100.547 59.2674 101.176C59.7474 101.8 60.454 102.112 61.3874 102.112ZM69.5639 103.24C68.6945 103.24 67.9345 103.051 67.2839 102.672C66.6385 102.288 66.1292 101.757 65.7559 101.08L66.6999 100.48C67.0145 101.013 67.4065 101.419 67.8759 101.696C68.3452 101.973 68.8839 102.112 69.4919 102.112C70.1265 102.112 70.6359 101.965 71.0199 101.672C71.4039 101.379 71.5959 100.976 71.5959 100.464C71.5959 100.112 71.5132 99.832 71.3479 99.624C71.1879 99.416 70.9425 99.2667 70.6119 99.176C70.2865 99.0853 69.8785 99.04 69.3879 99.04H68.3639V98.032H69.3719C69.9692 98.032 70.4492 97.9253 70.8119 97.712C71.1799 97.4933 71.3639 97.152 71.3639 96.688C71.3639 96.1973 71.1799 95.8347 70.8119 95.6C70.4492 95.36 70.0145 95.24 69.5079 95.24C68.9959 95.24 68.5105 95.3467 68.0519 95.56C67.5985 95.768 67.2172 96.0373 66.9079 96.368L66.1559 95.576C66.5879 95.1013 67.0919 94.7413 67.6679 94.496C68.2492 94.2453 68.8919 94.12 69.5959 94.12C70.1505 94.12 70.6519 94.2187 71.0999 94.416C71.5532 94.608 71.9105 94.8907 72.1719 95.264C72.4385 95.6373 72.5719 96.0853 72.5719 96.608C72.5719 97.0987 72.4519 97.5227 72.2119 97.88C71.9772 98.2373 71.6439 98.5333 71.2119 98.768L71.1479 98.328C71.5212 98.3973 71.8305 98.5467 72.0759 98.776C72.3212 99.0053 72.5025 99.28 72.6199 99.6C72.7372 99.92 72.7959 100.245 72.7959 100.576C72.7959 101.125 72.6519 101.6 72.3639 102C72.0812 102.395 71.6945 102.701 71.2039 102.92C70.7185 103.133 70.1719 103.24 69.5639 103.24ZM76.3933 103.24C75.7426 103.24 75.1959 103.123 74.7533 102.888C74.3159 102.653 73.9879 102.341 73.7693 101.952C73.5506 101.563 73.4413 101.139 73.4413 100.68C73.4413 100.211 73.5346 99.8107 73.7213 99.48C73.9133 99.144 74.1719 98.8693 74.4973 98.656C74.8279 98.4427 75.2093 98.28 75.6413 98.168C76.0786 98.0613 76.5613 97.968 77.0893 97.888C77.6226 97.8027 78.1426 97.7307 78.6493 97.672C79.1613 97.608 79.6093 97.5467 79.9933 97.488L79.5773 97.744C79.5933 96.8907 79.4279 96.2587 79.0813 95.848C78.7346 95.4373 78.1319 95.232 77.2733 95.232C76.6813 95.232 76.1799 95.3653 75.7693 95.632C75.3639 95.8987 75.0786 96.32 74.9133 96.896L73.7693 96.56C73.9666 95.7867 74.3639 95.1867 74.9613 94.76C75.5586 94.3333 76.3346 94.12 77.2893 94.12C78.0786 94.12 78.7479 94.2693 79.2973 94.568C79.8519 94.8613 80.2439 95.288 80.4733 95.848C80.5799 96.0987 80.6493 96.3787 80.6813 96.688C80.7133 96.9973 80.7293 97.312 80.7293 97.632V103H79.6813V100.832L79.9853 100.96C79.6919 101.701 79.2359 102.267 78.6173 102.656C77.9986 103.045 77.2573 103.24 76.3933 103.24ZM76.5293 102.224C77.0786 102.224 77.5586 102.125 77.9693 101.928C78.3799 101.731 78.7106 101.461 78.9613 101.12C79.2119 100.773 79.3746 100.384 79.4493 99.952C79.5133 99.6747 79.5479 99.3707 79.5533 99.04C79.5586 98.704 79.5613 98.4533 79.5613 98.288L80.0093 98.52C79.6093 98.5733 79.1746 98.6267 78.7053 98.68C78.2413 98.7333 77.7826 98.7947 77.3293 98.864C76.8813 98.9333 76.4759 99.016 76.1133 99.112C75.8679 99.1813 75.6306 99.28 75.4013 99.408C75.1719 99.5307 74.9826 99.696 74.8333 99.904C74.6893 100.112 74.6173 100.371 74.6173 100.68C74.6173 100.931 74.6786 101.173 74.8013 101.408C74.9293 101.643 75.1319 101.837 75.4093 101.992C75.6919 102.147 76.0653 102.224 76.5293 102.224Z" fill="white"/>
<circle cx="207" cy="97" r="10" fill="url(#paint0_linear_626_2048)"/>
<circle cx="207" cy="97" r="10" fill="url(#paint1_linear_626_2048)"/>
<circle cx="167" cy="97" r="10" fill="url(#paint2_linear_626_2048)"/>
<circle cx="127" cy="97" r="10" fill="url(#paint3_linear_626_2048)"/>
<circle cx="247" cy="97" r="10" fill="#4E4E4E"/>
<path d="M244.136 99.9104L241.034 96.7761L240 97.8209L244.136 102L253 93.0448L251.966 92L244.136 99.9104Z" fill="white"/>
<path d="M15.32 137V135.952C15.6133 135.979 15.856 135.968 16.048 135.92C16.24 135.867 16.3947 135.749 16.512 135.568C16.6347 135.387 16.7413 135.117 16.832 134.76C16.9227 134.397 17.0133 133.925 17.104 133.344C17.2053 132.715 17.2907 132.088 17.36 131.464C17.4347 130.84 17.4987 130.208 17.552 129.568C17.6107 128.923 17.6587 128.261 17.696 127.584C17.7333 126.907 17.768 126.205 17.8 125.48H25.072V137H23.896V126.608H18.936C18.8987 127.157 18.8613 127.72 18.824 128.296C18.792 128.872 18.7493 129.461 18.696 130.064C18.648 130.667 18.5867 131.288 18.512 131.928C18.4427 132.563 18.3547 133.219 18.248 133.896C18.1627 134.408 18.0613 134.883 17.944 135.32C17.832 135.757 17.672 136.125 17.464 136.424C17.2613 136.723 16.9867 136.928 16.64 137.04C16.2987 137.152 15.8587 137.139 15.32 137ZM29.1395 137.24C28.4888 137.24 27.9422 137.123 27.4995 136.888C27.0622 136.653 26.7342 136.341 26.5155 135.952C26.2968 135.563 26.1875 135.139 26.1875 134.68C26.1875 134.211 26.2808 133.811 26.4675 133.48C26.6595 133.144 26.9182 132.869 27.2435 132.656C27.5742 132.443 27.9555 132.28 28.3875 132.168C28.8248 132.061 29.3075 131.968 29.8355 131.888C30.3688 131.803 30.8888 131.731 31.3955 131.672C31.9075 131.608 32.3555 131.547 32.7395 131.488L32.3235 131.744C32.3395 130.891 32.1742 130.259 31.8275 129.848C31.4808 129.437 30.8782 129.232 30.0195 129.232C29.4275 129.232 28.9262 129.365 28.5155 129.632C28.1102 129.899 27.8248 130.32 27.6595 130.896L26.5155 130.56C26.7128 129.787 27.1102 129.187 27.7075 128.76C28.3048 128.333 29.0808 128.12 30.0355 128.12C30.8248 128.12 31.4942 128.269 32.0435 128.568C32.5982 128.861 32.9902 129.288 33.2195 129.848C33.3262 130.099 33.3955 130.379 33.4275 130.688C33.4595 130.997 33.4755 131.312 33.4755 131.632V137H32.4275V134.832L32.7315 134.96C32.4382 135.701 31.9822 136.267 31.3635 136.656C30.7448 137.045 30.0035 137.24 29.1395 137.24ZM29.2755 136.224C29.8248 136.224 30.3048 136.125 30.7155 135.928C31.1262 135.731 31.4568 135.461 31.7075 135.12C31.9582 134.773 32.1208 134.384 32.1955 133.952C32.2595 133.675 32.2942 133.371 32.2995 133.04C32.3048 132.704 32.3075 132.453 32.3075 132.288L32.7555 132.52C32.3555 132.573 31.9208 132.627 31.4515 132.68C30.9875 132.733 30.5288 132.795 30.0755 132.864C29.6275 132.933 29.2222 133.016 28.8595 133.112C28.6142 133.181 28.3768 133.28 28.1475 133.408C27.9182 133.531 27.7288 133.696 27.5795 133.904C27.4355 134.112 27.3635 134.371 27.3635 134.68C27.3635 134.931 27.4248 135.173 27.5475 135.408C27.6755 135.643 27.8782 135.837 28.1555 135.992C28.4382 136.147 28.8115 136.224 29.2755 136.224ZM34.9101 137L34.9181 128.36H36.1021V132.52L39.9581 128.36H41.5261L37.4781 132.68L42.0541 137H40.3421L36.1021 132.84V137H34.9101ZM44.5596 137V129.448H41.4956V128.36H48.7996V129.448H45.7356V137H44.5596ZM53.1367 137.24C52.2781 137.24 51.5447 137.045 50.9367 136.656C50.3287 136.267 49.8621 135.728 49.5367 135.04C49.2114 134.352 49.0487 133.563 49.0487 132.672C49.0487 131.765 49.2141 130.971 49.5447 130.288C49.8754 129.605 50.3447 129.075 50.9527 128.696C51.5661 128.312 52.2941 128.12 53.1367 128.12C54.0007 128.12 54.7367 128.315 55.3447 128.704C55.9581 129.088 56.4247 129.624 56.7447 130.312C57.0701 130.995 57.2327 131.781 57.2327 132.672C57.2327 133.579 57.0701 134.376 56.7447 135.064C56.4194 135.747 55.9501 136.28 55.3367 136.664C54.7234 137.048 53.9901 137.24 53.1367 137.24ZM53.1367 136.112C54.0967 136.112 54.8114 135.795 55.2807 135.16C55.7501 134.52 55.9847 133.691 55.9847 132.672C55.9847 131.627 55.7474 130.795 55.2727 130.176C54.8034 129.557 54.0914 129.248 53.1367 129.248C52.4914 129.248 51.9581 129.395 51.5367 129.688C51.1207 129.976 50.8087 130.379 50.6007 130.896C50.3981 131.408 50.2967 132 50.2967 132.672C50.2967 133.712 50.5367 134.547 51.0167 135.176C51.4967 135.8 52.2034 136.112 53.1367 136.112ZM61.3132 137.24C60.4439 137.24 59.6839 137.051 59.0332 136.672C58.3879 136.288 57.8786 135.757 57.5052 135.08L58.4492 134.48C58.7639 135.013 59.1559 135.419 59.6252 135.696C60.0946 135.973 60.6332 136.112 61.2412 136.112C61.8759 136.112 62.3852 135.965 62.7692 135.672C63.1532 135.379 63.3452 134.976 63.3452 134.464C63.3452 134.112 63.2626 133.832 63.0972 133.624C62.9372 133.416 62.6919 133.267 62.3612 133.176C62.0359 133.085 61.6279 133.04 61.1372 133.04H60.1132V132.032H61.1212C61.7186 132.032 62.1986 131.925 62.5612 131.712C62.9292 131.493 63.1132 131.152 63.1132 130.688C63.1132 130.197 62.9292 129.835 62.5612 129.6C62.1986 129.36 61.7639 129.24 61.2572 129.24C60.7452 129.24 60.2599 129.347 59.8012 129.56C59.3479 129.768 58.9666 130.037 58.6572 130.368L57.9052 129.576C58.3372 129.101 58.8412 128.741 59.4172 128.496C59.9986 128.245 60.6412 128.12 61.3452 128.12C61.8999 128.12 62.4012 128.219 62.8492 128.416C63.3026 128.608 63.6599 128.891 63.9212 129.264C64.1879 129.637 64.3212 130.085 64.3212 130.608C64.3212 131.099 64.2012 131.523 63.9612 131.88C63.7266 132.237 63.3932 132.533 62.9612 132.768L62.8972 132.328C63.2706 132.397 63.5799 132.547 63.8252 132.776C64.0706 133.005 64.2519 133.28 64.3692 133.6C64.4866 133.92 64.5452 134.245 64.5452 134.576C64.5452 135.125 64.4012 135.6 64.1132 136C63.8306 136.395 63.4439 136.701 62.9532 136.92C62.4679 137.133 61.9212 137.24 61.3132 137.24ZM68.1426 137.24C67.492 137.24 66.9453 137.123 66.5026 136.888C66.0653 136.653 65.7373 136.341 65.5186 135.952C65.3 135.563 65.1906 135.139 65.1906 134.68C65.1906 134.211 65.284 133.811 65.4706 133.48C65.6626 133.144 65.9213 132.869 66.2466 132.656C66.5773 132.443 66.9586 132.28 67.3906 132.168C67.828 132.061 68.3106 131.968 68.8386 131.888C69.372 131.803 69.892 131.731 70.3986 131.672C70.9106 131.608 71.3586 131.547 71.7426 131.488L71.3266 131.744C71.3426 130.891 71.1773 130.259 70.8306 129.848C70.484 129.437 69.8813 129.232 69.0226 129.232C68.4306 129.232 67.9293 129.365 67.5186 129.632C67.1133 129.899 66.828 130.32 66.6626 130.896L65.5186 130.56C65.716 129.787 66.1133 129.187 66.7106 128.76C67.308 128.333 68.084 128.12 69.0386 128.12C69.828 128.12 70.4973 128.269 71.0466 128.568C71.6013 128.861 71.9933 129.288 72.2226 129.848C72.3293 130.099 72.3986 130.379 72.4306 130.688C72.4626 130.997 72.4786 131.312 72.4786 131.632V137H71.4306V134.832L71.7346 134.96C71.4413 135.701 70.9853 136.267 70.3666 136.656C69.748 137.045 69.0066 137.24 68.1426 137.24ZM68.2786 136.224C68.828 136.224 69.308 136.125 69.7186 135.928C70.1293 135.731 70.46 135.461 70.7106 135.12C70.9613 134.773 71.124 134.384 71.1986 133.952C71.2626 133.675 71.2973 133.371 71.3026 133.04C71.308 132.704 71.3106 132.453 71.3106 132.288L71.7586 132.52C71.3586 132.573 70.924 132.627 70.4546 132.68C69.9906 132.733 69.532 132.795 69.0786 132.864C68.6306 132.933 68.2253 133.016 67.8626 133.112C67.6173 133.181 67.38 133.28 67.1506 133.408C66.9213 133.531 66.732 133.696 66.5826 133.904C66.4386 134.112 66.3666 134.371 66.3666 134.68C66.3666 134.931 66.428 135.173 66.5506 135.408C66.6786 135.643 66.8813 135.837 67.1586 135.992C67.4413 136.147 67.8146 136.224 68.2786 136.224Z" fill="white"/>
<circle cx="207" cy="131" r="10" fill="url(#paint4_linear_626_2048)"/>
<circle cx="207" cy="131" r="10" fill="url(#paint5_linear_626_2048)"/>
<circle cx="167" cy="131" r="10" fill="url(#paint6_linear_626_2048)"/>
<circle cx="127" cy="131" r="10" fill="url(#paint7_linear_626_2048)"/>
<circle cx="247" cy="131" r="10" fill="#4E4E4E"/>
<path d="M244.136 133.91L241.034 130.776L240 131.821L244.136 136L253 127.045L251.966 126L244.136 133.91Z" fill="white"/>
<path d="M16.12 171V159.48H17.2L21.728 169.168L26.232 159.48H27.328V170.992H26.208V162.104L22.104 171H21.344L17.248 162.104V171H16.12ZM31.4051 171.24C30.7545 171.24 30.2078 171.123 29.7651 170.888C29.3278 170.653 28.9998 170.341 28.7811 169.952C28.5625 169.563 28.4531 169.139 28.4531 168.68C28.4531 168.211 28.5465 167.811 28.7331 167.48C28.9251 167.144 29.1838 166.869 29.5091 166.656C29.8398 166.443 30.2211 166.28 30.6531 166.168C31.0905 166.061 31.5731 165.968 32.1011 165.888C32.6345 165.803 33.1545 165.731 33.6611 165.672C34.1731 165.608 34.6211 165.547 35.0051 165.488L34.5891 165.744C34.6051 164.891 34.4398 164.259 34.0931 163.848C33.7465 163.437 33.1438 163.232 32.2851 163.232C31.6931 163.232 31.1918 163.365 30.7811 163.632C30.3758 163.899 30.0905 164.32 29.9251 164.896L28.7811 164.56C28.9785 163.787 29.3758 163.187 29.9731 162.76C30.5705 162.333 31.3465 162.12 32.3011 162.12C33.0905 162.12 33.7598 162.269 34.3091 162.568C34.8638 162.861 35.2558 163.288 35.4851 163.848C35.5918 164.099 35.6611 164.379 35.6931 164.688C35.7251 164.997 35.7411 165.312 35.7411 165.632V171H34.6931V168.832L34.9971 168.96C34.7038 169.701 34.2478 170.267 33.6291 170.656C33.0105 171.045 32.2691 171.24 31.4051 171.24ZM31.5411 170.224C32.0905 170.224 32.5705 170.125 32.9811 169.928C33.3918 169.731 33.7225 169.461 33.9731 169.12C34.2238 168.773 34.3865 168.384 34.4611 167.952C34.5251 167.675 34.5598 167.371 34.5651 167.04C34.5705 166.704 34.5731 166.453 34.5731 166.288L35.0211 166.52C34.6211 166.573 34.1865 166.627 33.7171 166.68C33.2531 166.733 32.7945 166.795 32.3411 166.864C31.8931 166.933 31.4878 167.016 31.1251 167.112C30.8798 167.181 30.6425 167.28 30.4131 167.408C30.1838 167.531 29.9945 167.696 29.8451 167.904C29.7011 168.112 29.6291 168.371 29.6291 168.68C29.6291 168.931 29.6905 169.173 29.8131 169.408C29.9411 169.643 30.1438 169.837 30.4211 169.992C30.7038 170.147 31.0771 170.224 31.5411 170.224ZM37.1757 171V162.36H38.3517V166.112H43.2237V162.36H44.3997V171H43.2237V167.24H38.3517V171H37.1757ZM45.9889 171V162.36H47.1649V166.112H52.0369V162.36H53.2129V171H52.0369V167.24H47.1649V171H45.9889ZM61.674 162.36V171H60.53V164.272L55.794 171H54.802V162.36H55.946V169.032L60.69 162.36H61.674ZM65.6234 171V163.448H62.5594V162.36H69.8634V163.448H66.7994V171H65.6234ZM74.2005 171.24C73.3418 171.24 72.6085 171.045 72.0005 170.656C71.3925 170.267 70.9258 169.728 70.6005 169.04C70.2752 168.352 70.1125 167.563 70.1125 166.672C70.1125 165.765 70.2778 164.971 70.6085 164.288C70.9392 163.605 71.4085 163.075 72.0165 162.696C72.6298 162.312 73.3578 162.12 74.2005 162.12C75.0645 162.12 75.8005 162.315 76.4085 162.704C77.0218 163.088 77.4885 163.624 77.8085 164.312C78.1338 164.995 78.2965 165.781 78.2965 166.672C78.2965 167.579 78.1338 168.376 77.8085 169.064C77.4832 169.747 77.0138 170.28 76.4005 170.664C75.7872 171.048 75.0538 171.24 74.2005 171.24ZM74.2005 170.112C75.1605 170.112 75.8752 169.795 76.3445 169.16C76.8138 168.52 77.0485 167.691 77.0485 166.672C77.0485 165.627 76.8112 164.795 76.3365 164.176C75.8672 163.557 75.1552 163.248 74.2005 163.248C73.5552 163.248 73.0218 163.395 72.6005 163.688C72.1845 163.976 71.8725 164.379 71.6645 164.896C71.4618 165.408 71.3605 166 71.3605 166.672C71.3605 167.712 71.6005 168.547 72.0805 169.176C72.5605 169.8 73.2672 170.112 74.2005 170.112ZM78.6213 171V169.968C78.9413 170.027 79.1839 170.013 79.3493 169.928C79.5199 169.837 79.6453 169.688 79.7253 169.48C79.8053 169.267 79.8719 169.003 79.9253 168.688C80.0106 168.165 80.0879 167.589 80.1573 166.96C80.2266 166.331 80.2879 165.637 80.3413 164.88C80.3999 164.117 80.4586 163.277 80.5173 162.36H86.3893V171H85.2213V163.488H81.6053C81.5679 164.053 81.5253 164.616 81.4773 165.176C81.4293 165.736 81.3786 166.275 81.3253 166.792C81.2773 167.304 81.2239 167.776 81.1653 168.208C81.1066 168.64 81.0453 169.013 80.9813 169.328C80.8853 169.803 80.7573 170.181 80.5973 170.464C80.4426 170.747 80.2106 170.933 79.9013 171.024C79.5919 171.115 79.1653 171.107 78.6213 171Z" fill="white"/>
<circle cx="207" cy="165" r="10" fill="url(#paint8_linear_626_2048)"/>
<circle cx="207" cy="165" r="10" fill="url(#paint9_linear_626_2048)"/>
<circle cx="167" cy="165" r="10" fill="url(#paint10_linear_626_2048)"/>
<circle cx="127" cy="165" r="10" fill="url(#paint11_linear_626_2048)"/>
<circle cx="247" cy="165" r="10" fill="#4E4E4E"/>
<path d="M124.136 167.91L121.034 164.776L120 165.821L124.136 170L133 161.045L131.966 160L124.136 167.91Z" fill="black"/>
<path d="M20.784 205.24C19.6373 205.24 18.6693 204.987 17.88 204.48C17.0907 203.968 16.4933 203.261 16.088 202.36C15.6827 201.459 15.48 200.419 15.48 199.24C15.48 198.061 15.6827 197.021 16.088 196.12C16.4933 195.219 17.0907 194.515 17.88 194.008C18.6693 193.496 19.6373 193.24 20.784 193.24C22.1227 193.24 23.216 193.584 24.064 194.272C24.912 194.955 25.4933 195.872 25.808 197.024L24.608 197.336C24.3627 196.424 23.9227 195.701 23.288 195.168C22.6533 194.635 21.8187 194.368 20.784 194.368C19.8827 194.368 19.1333 194.573 18.536 194.984C17.9387 195.395 17.488 195.968 17.184 196.704C16.8853 197.435 16.7307 198.28 16.72 199.24C16.7147 200.2 16.8613 201.045 17.16 201.776C17.464 202.507 17.9173 203.08 18.52 203.496C19.128 203.907 19.8827 204.112 20.784 204.112C21.8187 204.112 22.6533 203.845 23.288 203.312C23.9227 202.773 24.3627 202.051 24.608 201.144L25.808 201.456C25.4933 202.608 24.912 203.528 24.064 204.216C23.216 204.899 22.1227 205.24 20.784 205.24ZM30.5411 205.24C29.6825 205.24 28.9491 205.045 28.3411 204.656C27.7331 204.267 27.2665 203.728 26.9411 203.04C26.6158 202.352 26.4531 201.563 26.4531 200.672C26.4531 199.765 26.6185 198.971 26.9491 198.288C27.2798 197.605 27.7491 197.075 28.3571 196.696C28.9705 196.312 29.6985 196.12 30.5411 196.12C31.4051 196.12 32.1411 196.315 32.7491 196.704C33.3625 197.088 33.8291 197.624 34.1491 198.312C34.4745 198.995 34.6371 199.781 34.6371 200.672C34.6371 201.579 34.4745 202.376 34.1491 203.064C33.8238 203.747 33.3545 204.28 32.7411 204.664C32.1278 205.048 31.3945 205.24 30.5411 205.24ZM30.5411 204.112C31.5011 204.112 32.2158 203.795 32.6851 203.16C33.1545 202.52 33.3891 201.691 33.3891 200.672C33.3891 199.627 33.1518 198.795 32.6771 198.176C32.2078 197.557 31.4958 197.248 30.5411 197.248C29.8958 197.248 29.3625 197.395 28.9411 197.688C28.5251 197.976 28.2131 198.379 28.0051 198.896C27.8025 199.408 27.7011 200 27.7011 200.672C27.7011 201.712 27.9411 202.547 28.4211 203.176C28.9011 203.8 29.6078 204.112 30.5411 204.112ZM39.6419 205.24C38.8472 205.24 38.1752 205.04 37.6259 204.64C37.0765 204.235 36.6605 203.688 36.3779 203C36.0952 202.307 35.9539 201.531 35.9539 200.672C35.9539 199.797 36.0952 199.019 36.3779 198.336C36.6659 197.648 37.0872 197.107 37.6419 196.712C38.1965 196.317 38.8792 196.12 39.6899 196.12C40.4792 196.12 41.1565 196.32 41.7219 196.72C42.2872 197.12 42.7192 197.664 43.0179 198.352C43.3219 199.04 43.4739 199.813 43.4739 200.672C43.4739 201.536 43.3219 202.312 43.0179 203C42.7139 203.688 42.2765 204.235 41.7059 204.64C41.1352 205.04 40.4472 205.24 39.6419 205.24ZM35.7539 208.84V196.36H36.8099V202.864H36.9379V208.84H35.7539ZM39.5219 204.144C40.1245 204.144 40.6259 203.992 41.0259 203.688C41.4259 203.384 41.7245 202.971 41.9219 202.448C42.1245 201.92 42.2259 201.328 42.2259 200.672C42.2259 200.021 42.1272 199.435 41.9299 198.912C41.7325 198.389 41.4312 197.976 41.0259 197.672C40.6259 197.368 40.1165 197.216 39.4979 197.216C38.8952 197.216 38.3939 197.363 37.9939 197.656C37.5992 197.949 37.3032 198.357 37.1059 198.88C36.9085 199.397 36.8099 199.995 36.8099 200.672C36.8099 201.339 36.9085 201.936 37.1059 202.464C37.3032 202.987 37.6019 203.397 38.0019 203.696C38.4019 203.995 38.9085 204.144 39.5219 204.144ZM48.0546 205.248C47.2493 205.243 46.5586 205.067 45.9826 204.72C45.4066 204.373 44.9586 203.856 44.6386 203.168C44.324 202.48 44.1533 201.621 44.1266 200.592C44.1106 200.139 44.1213 199.645 44.1586 199.112C44.196 198.573 44.2546 198.061 44.3346 197.576C44.4146 197.091 44.5106 196.696 44.6226 196.392C44.7613 195.997 44.9586 195.629 45.2146 195.288C45.476 194.941 45.7773 194.659 46.1186 194.44C46.4493 194.216 46.8226 194.043 47.2386 193.92C47.66 193.792 48.0973 193.693 48.5506 193.624C49.0093 193.555 49.4626 193.493 49.9106 193.44C50.364 193.387 50.7826 193.32 51.1666 193.24L51.2946 194.304C51.0013 194.363 50.6546 194.416 50.2546 194.464C49.8546 194.512 49.436 194.571 48.9986 194.64C48.5613 194.704 48.1426 194.792 47.7426 194.904C47.3426 195.016 47.0013 195.163 46.7186 195.344C46.2866 195.605 45.9533 196 45.7186 196.528C45.4893 197.056 45.348 197.661 45.2946 198.344C45.6253 197.827 46.0626 197.437 46.6066 197.176C47.156 196.915 47.7506 196.784 48.3906 196.784C49.1693 196.784 49.8386 196.963 50.3986 197.32C50.964 197.677 51.3986 198.173 51.7026 198.808C52.0066 199.443 52.1586 200.171 52.1586 200.992C52.1586 201.851 51.9906 202.6 51.6546 203.24C51.324 203.88 50.852 204.376 50.2386 204.728C49.6253 205.075 48.8973 205.248 48.0546 205.248ZM48.1426 204.12C49.0493 204.12 49.7373 203.837 50.2066 203.272C50.6813 202.707 50.9186 201.955 50.9186 201.016C50.9186 200.056 50.6733 199.299 50.1826 198.744C49.6973 198.189 49.012 197.912 48.1266 197.912C47.2413 197.912 46.5613 198.189 46.0866 198.744C45.612 199.299 45.3746 200.056 45.3746 201.016C45.3746 201.976 45.612 202.733 46.0866 203.288C46.5613 203.843 47.2466 204.12 48.1426 204.12ZM60.1427 196.36V205H58.9987V198.272L54.2627 205H53.2707V196.36H54.4147V203.032L59.1587 196.36H60.1427ZM64.0921 205V197.448H61.0281V196.36H68.3321V197.448H65.2681V205H64.0921ZM72.6693 205.24C71.8106 205.24 71.0772 205.045 70.4692 204.656C69.8612 204.267 69.3946 203.728 69.0692 203.04C68.7439 202.352 68.5812 201.563 68.5812 200.672C68.5812 199.765 68.7466 198.971 69.0772 198.288C69.4079 197.605 69.8772 197.075 70.4852 196.696C71.0986 196.312 71.8266 196.12 72.6693 196.12C73.5333 196.12 74.2693 196.315 74.8773 196.704C75.4906 197.088 75.9573 197.624 76.2773 198.312C76.6026 198.995 76.7653 199.781 76.7653 200.672C76.7653 201.579 76.6026 202.376 76.2773 203.064C75.9519 203.747 75.4826 204.28 74.8693 204.664C74.2559 205.048 73.5226 205.24 72.6693 205.24ZM72.6693 204.112C73.6293 204.112 74.3439 203.795 74.8133 203.16C75.2826 202.52 75.5173 201.691 75.5173 200.672C75.5173 199.627 75.2799 198.795 74.8053 198.176C74.3359 197.557 73.6239 197.248 72.6693 197.248C72.0239 197.248 71.4906 197.395 71.0693 197.688C70.6533 197.976 70.3413 198.379 70.1332 198.896C69.9306 199.408 69.8292 200 69.8292 200.672C69.8292 201.712 70.0692 202.547 70.5492 203.176C71.0292 203.8 71.7359 204.112 72.6693 204.112ZM77.09 205V203.968C77.41 204.027 77.6527 204.013 77.818 203.928C77.9887 203.837 78.114 203.688 78.194 203.48C78.274 203.267 78.3407 203.003 78.394 202.688C78.4793 202.165 78.5567 201.589 78.626 200.96C78.6953 200.331 78.7567 199.637 78.81 198.88C78.8687 198.117 78.9273 197.277 78.986 196.36H84.858V205H83.69V197.488H80.074C80.0367 198.053 79.994 198.616 79.946 199.176C79.898 199.736 79.8473 200.275 79.794 200.792C79.746 201.304 79.6927 201.776 79.634 202.208C79.5753 202.64 79.514 203.013 79.45 203.328C79.354 203.803 79.226 204.181 79.066 204.464C78.9113 204.747 78.6793 204.933 78.37 205.024C78.0607 205.115 77.634 205.107 77.09 205Z" fill="white"/>
<circle cx="207" cy="199" r="10" fill="url(#paint12_linear_626_2048)"/>
<circle cx="207" cy="199" r="10" fill="url(#paint13_linear_626_2048)"/>
<circle cx="167" cy="199" r="10" fill="url(#paint14_linear_626_2048)"/>
<circle cx="127" cy="199" r="10" fill="url(#paint15_linear_626_2048)"/>
<circle cx="247" cy="199" r="10" fill="#4E4E4E"/>
<path d="M244.136 201.91L241.034 198.776L240 199.821L244.136 204L253 195.045L251.966 194L244.136 201.91Z" fill="white"/>
<path d="M16.12 239V227.48H23.32V228.608H17.296V239H16.12ZM28.6284 239.24C27.4817 239.24 26.5137 238.987 25.7244 238.48C24.935 237.968 24.3377 237.261 23.9324 236.36C23.527 235.459 23.3244 234.419 23.3244 233.24C23.3244 232.061 23.527 231.021 23.9324 230.12C24.3377 229.219 24.935 228.515 25.7244 228.008C26.5137 227.496 27.4817 227.24 28.6284 227.24C29.7804 227.24 30.7484 227.496 31.5324 228.008C32.3217 228.515 32.919 229.219 33.3244 230.12C33.735 231.021 33.9404 232.061 33.9404 233.24C33.9404 234.419 33.735 235.459 33.3244 236.36C32.919 237.261 32.3217 237.968 31.5324 238.48C30.7484 238.987 29.7804 239.24 28.6284 239.24ZM28.6284 238.112C29.5297 238.112 30.2817 237.907 30.8844 237.496C31.487 237.085 31.9377 236.515 32.2364 235.784C32.5404 235.048 32.6924 234.2 32.6924 233.24C32.6924 232.28 32.5404 231.435 32.2364 230.704C31.9377 229.973 31.487 229.403 30.8844 228.992C30.2817 228.581 29.5297 228.373 28.6284 228.368C27.727 228.368 26.9777 228.573 26.3804 228.984C25.783 229.395 25.3324 229.968 25.0284 230.704C24.7297 231.435 24.5777 232.28 24.5724 233.24C24.567 234.2 24.7137 235.045 25.0124 235.776C25.3164 236.501 25.7697 237.072 26.3724 237.488C26.975 237.899 27.727 238.107 28.6284 238.112ZM39.5665 239.24C38.4198 239.24 37.4518 238.987 36.6625 238.48C35.8732 237.968 35.2758 237.261 34.8705 236.36C34.4652 235.459 34.2625 234.419 34.2625 233.24C34.2625 232.061 34.4652 231.021 34.8705 230.12C35.2758 229.219 35.8732 228.515 36.6625 228.008C37.4518 227.496 38.4198 227.24 39.5665 227.24C40.9052 227.24 41.9985 227.584 42.8465 228.272C43.6945 228.955 44.2758 229.872 44.5905 231.024L43.3905 231.336C43.1452 230.424 42.7052 229.701 42.0705 229.168C41.4358 228.635 40.6012 228.368 39.5665 228.368C38.6652 228.368 37.9158 228.573 37.3185 228.984C36.7212 229.395 36.2705 229.968 35.9665 230.704C35.6678 231.435 35.5132 232.28 35.5025 233.24C35.4972 234.2 35.6438 235.045 35.9425 235.776C36.2465 236.507 36.6998 237.08 37.3025 237.496C37.9105 237.907 38.6652 238.112 39.5665 238.112C40.6012 238.112 41.4358 237.845 42.0705 237.312C42.7052 236.773 43.1452 236.051 43.3905 235.144L44.5905 235.456C44.2758 236.608 43.6945 237.528 42.8465 238.216C41.9985 238.899 40.9052 239.24 39.5665 239.24Z" fill="white"/>
<circle cx="207" cy="233" r="10" fill="url(#paint16_linear_626_2048)"/>
<circle cx="207" cy="233" r="10" fill="url(#paint17_linear_626_2048)"/>
<circle cx="167" cy="233" r="10" fill="url(#paint18_linear_626_2048)"/>
<circle cx="127" cy="233" r="10" fill="url(#paint19_linear_626_2048)"/>
<circle cx="247" cy="233" r="10" fill="#4E4E4E"/>
<path d="M124.136 235.91L121.034 232.776L120 233.821L124.136 238L133 229.045L131.966 228L124.136 235.91Z" fill="black"/>
<path d="M20.096 273V271.472C19.504 271.573 18.9307 271.547 18.376 271.392C17.8267 271.232 17.3333 270.957 16.896 270.568C16.464 270.173 16.12 269.669 15.864 269.056C15.608 268.437 15.48 267.715 15.48 266.888C15.48 266.061 15.608 265.339 15.864 264.72C16.12 264.101 16.464 263.595 16.896 263.2C17.3333 262.8 17.8267 262.523 18.376 262.368C18.9307 262.208 19.504 262.179 20.096 262.28V261.48H21.264V262.28C21.856 262.179 22.4293 262.208 22.984 262.368C23.5387 262.523 24.032 262.8 24.464 263.2C24.9013 263.595 25.248 264.101 25.504 264.72C25.76 265.339 25.888 266.061 25.888 266.888C25.888 267.715 25.76 268.437 25.504 269.056C25.248 269.669 24.9013 270.173 24.464 270.568C24.032 270.957 23.5387 271.232 22.984 271.392C22.4293 271.547 21.856 271.573 21.264 271.472V273H20.096ZM20.096 270.352V263.376C19.5893 263.301 19.1253 263.339 18.704 263.488C18.288 263.632 17.9307 263.864 17.632 264.184C17.3333 264.504 17.1013 264.896 16.936 265.36C16.776 265.819 16.696 266.328 16.696 266.888C16.696 267.448 16.776 267.957 16.936 268.416C17.1013 268.869 17.3333 269.253 17.632 269.568C17.9307 269.883 18.288 270.109 18.704 270.248C19.1253 270.387 19.5893 270.421 20.096 270.352ZM21.264 270.352C21.776 270.421 22.24 270.387 22.656 270.248C23.072 270.104 23.4293 269.877 23.728 269.568C24.032 269.253 24.264 268.869 24.424 268.416C24.5893 267.963 24.672 267.461 24.672 266.912C24.672 266.357 24.5893 265.851 24.424 265.392C24.264 264.928 24.032 264.533 23.728 264.208C23.4293 263.883 23.072 263.645 22.656 263.496C22.24 263.341 21.776 263.301 21.264 263.376V270.352ZM30.735 273.24C29.9403 273.24 29.2683 273.04 28.719 272.64C28.1697 272.235 27.7537 271.688 27.471 271C27.1883 270.307 27.047 269.531 27.047 268.672C27.047 267.797 27.1883 267.019 27.471 266.336C27.759 265.648 28.1803 265.107 28.735 264.712C29.2897 264.317 29.9723 264.12 30.783 264.12C31.5723 264.12 32.2497 264.32 32.815 264.72C33.3803 265.12 33.8123 265.664 34.111 266.352C34.415 267.04 34.567 267.813 34.567 268.672C34.567 269.536 34.415 270.312 34.111 271C33.807 271.688 33.3697 272.235 32.799 272.64C32.2283 273.04 31.5403 273.24 30.735 273.24ZM26.847 276.84V264.36H27.903V270.864H28.031V276.84H26.847ZM30.615 272.144C31.2177 272.144 31.719 271.992 32.119 271.688C32.519 271.384 32.8177 270.971 33.015 270.448C33.2177 269.92 33.319 269.328 33.319 268.672C33.319 268.021 33.2203 267.435 33.023 266.912C32.8257 266.389 32.5243 265.976 32.119 265.672C31.719 265.368 31.2097 265.216 30.591 265.216C29.9883 265.216 29.487 265.363 29.087 265.656C28.6923 265.949 28.3963 266.357 28.199 266.88C28.0017 267.397 27.903 267.995 27.903 268.672C27.903 269.339 28.0017 269.936 28.199 270.464C28.3963 270.987 28.695 271.397 29.095 271.696C29.495 271.995 30.0017 272.144 30.615 272.144ZM36.6032 276.84L38.2752 272.304L38.2992 273.648L34.5152 264.36H35.7632L38.8672 272.128H38.3552L41.2192 264.36H42.4192L37.7792 276.84H36.6032ZM43.1608 273L43.1687 264.36H44.3528V268.52L48.2088 264.36H49.7768L45.7287 268.68L50.3048 273H48.5928L44.3528 268.84V273H43.1608ZM52.8102 273V265.448H49.7462V264.36H57.0502V265.448H53.9862V273H52.8102ZM60.0795 273.24C59.4288 273.24 58.8822 273.123 58.4395 272.888C58.0022 272.653 57.6742 272.341 57.4555 271.952C57.2368 271.563 57.1275 271.139 57.1275 270.68C57.1275 270.211 57.2208 269.811 57.4075 269.48C57.5995 269.144 57.8582 268.869 58.1835 268.656C58.5142 268.443 58.8955 268.28 59.3275 268.168C59.7648 268.061 60.2475 267.968 60.7755 267.888C61.3088 267.803 61.8288 267.731 62.3355 267.672C62.8475 267.608 63.2955 267.547 63.6795 267.488L63.2635 267.744C63.2795 266.891 63.1142 266.259 62.7675 265.848C62.4208 265.437 61.8182 265.232 60.9595 265.232C60.3675 265.232 59.8662 265.365 59.4555 265.632C59.0502 265.899 58.7648 266.32 58.5995 266.896L57.4555 266.56C57.6528 265.787 58.0502 265.187 58.6475 264.76C59.2448 264.333 60.0208 264.12 60.9755 264.12C61.7648 264.12 62.4342 264.269 62.9835 264.568C63.5382 264.861 63.9302 265.288 64.1595 265.848C64.2662 266.099 64.3355 266.379 64.3675 266.688C64.3995 266.997 64.4155 267.312 64.4155 267.632V273H63.3675V270.832L63.6715 270.96C63.3782 271.701 62.9222 272.267 62.3035 272.656C61.6848 273.045 60.9435 273.24 60.0795 273.24ZM60.2155 272.224C60.7648 272.224 61.2448 272.125 61.6555 271.928C62.0662 271.731 62.3968 271.461 62.6475 271.12C62.8982 270.773 63.0608 270.384 63.1355 269.952C63.1995 269.675 63.2342 269.371 63.2395 269.04C63.2448 268.704 63.2475 268.453 63.2475 268.288L63.6955 268.52C63.2955 268.573 62.8608 268.627 62.3915 268.68C61.9275 268.733 61.4688 268.795 61.0155 268.864C60.5675 268.933 60.1622 269.016 59.7995 269.112C59.5542 269.181 59.3168 269.28 59.0875 269.408C58.8582 269.531 58.6688 269.696 58.5195 269.904C58.3755 270.112 58.3035 270.371 58.3035 270.68C58.3035 270.931 58.3648 271.173 58.4875 271.408C58.6155 271.643 58.8182 271.837 59.0955 271.992C59.3782 272.147 59.7515 272.224 60.2155 272.224ZM65.8501 273V264.36H67.0261V268.112H71.8981V264.36H73.0741V273H71.8981V269.24H67.0261V273H65.8501ZM74.6793 273L74.6633 264.36H75.8473V267.616H77.3513C77.6019 267.616 77.8473 267.621 78.0873 267.632C78.3273 267.643 78.5433 267.664 78.7353 267.696C79.1619 267.781 79.5406 267.925 79.8713 268.128C80.2019 268.331 80.4633 268.611 80.6553 268.968C80.8473 269.32 80.9433 269.765 80.9433 270.304C80.9433 271.045 80.7513 271.629 80.3673 272.056C79.9833 272.483 79.5006 272.76 78.9193 272.888C78.7006 272.936 78.4633 272.968 78.2073 272.984C77.9513 272.995 77.7006 273 77.4553 273H74.6793ZM75.8473 271.992H77.4073C77.5833 271.992 77.7833 271.987 78.0073 271.976C78.2313 271.965 78.4286 271.936 78.5993 271.888C78.8873 271.808 79.1459 271.648 79.3753 271.408C79.6099 271.163 79.7273 270.795 79.7273 270.304C79.7273 269.819 79.6153 269.453 79.3913 269.208C79.1673 268.957 78.8686 268.792 78.4953 268.712C78.3246 268.675 78.1433 268.651 77.9513 268.64C77.7646 268.629 77.5833 268.624 77.4073 268.624H75.8473V271.992ZM81.9753 273V264.36H83.1513V273H81.9753Z" fill="white"/>
<circle cx="207" cy="267" r="10" fill="url(#paint20_linear_626_2048)"/>
<circle cx="207" cy="267" r="10" fill="url(#paint21_linear_626_2048)"/>
<circle cx="167" cy="267" r="10" fill="url(#paint22_linear_626_2048)"/>
<circle cx="127" cy="267" r="10" fill="url(#paint23_linear_626_2048)"/>
<circle cx="247" cy="267" r="10" fill="#4E4E4E"/>
<path d="M244.136 269.91L241.034 266.776L240 267.821L244.136 272L253 263.045L251.966 262L244.136 269.91Z" fill="white"/>
<g filter="url(#filter0_dddd_626_2048)">
<rect x="55" y="20" width="255" height="45" rx="10" fill="#323E5D"/>
<path d="M65.7432 48L69.2532 37.2H71.5107L75.0207 48H73.3932L70.1607 38.145H70.5657L67.3707 48H65.7432ZM67.5657 45.5625V44.0925H73.2057V45.5625H67.5657ZM75.7587 48V39.9H79.3212C79.5562 39.9 79.7912 39.915 80.0262 39.945C80.2612 39.97 80.4687 40.0075 80.6487 40.0575C81.0587 40.1725 81.4087 40.4025 81.6987 40.7475C81.9887 41.0875 82.1337 41.5425 82.1337 42.1125C82.1337 42.4375 82.0837 42.7125 81.9837 42.9375C81.8837 43.1575 81.7462 43.3475 81.5712 43.5075C81.4912 43.5775 81.4062 43.64 81.3162 43.695C81.2262 43.75 81.1362 43.7925 81.0462 43.8225C81.2312 43.8525 81.4137 43.9175 81.5937 44.0175C81.8687 44.1625 82.0937 44.3725 82.2687 44.6475C82.4487 44.9175 82.5387 45.28 82.5387 45.735C82.5387 46.28 82.4062 46.7375 82.1412 47.1075C81.8762 47.4725 81.5012 47.7225 81.0162 47.8575C80.8262 47.9125 80.6112 47.95 80.3712 47.97C80.1362 47.99 79.9012 48 79.6662 48H75.7587ZM77.3487 46.7625H79.5687C79.6737 46.7625 79.7937 46.7525 79.9287 46.7325C80.0637 46.7125 80.1837 46.685 80.2887 46.65C80.5137 46.58 80.6737 46.4525 80.7687 46.2675C80.8687 46.0825 80.9187 45.885 80.9187 45.675C80.9187 45.39 80.8437 45.1625 80.6937 44.9925C80.5437 44.8175 80.3537 44.705 80.1237 44.655C80.0237 44.62 79.9137 44.6 79.7937 44.595C79.6737 44.59 79.5712 44.5875 79.4862 44.5875H77.3487V46.7625ZM77.3487 43.3275H79.1037C79.2487 43.3275 79.3962 43.32 79.5462 43.305C79.6962 43.285 79.8262 43.2525 79.9362 43.2075C80.1312 43.1325 80.2762 43.0075 80.3712 42.8325C80.4662 42.6525 80.5137 42.4575 80.5137 42.2475C80.5137 42.0175 80.4612 41.8125 80.3562 41.6325C80.2512 41.4525 80.0937 41.3275 79.8837 41.2575C79.7387 41.2075 79.5712 41.18 79.3812 41.175C79.1962 41.165 79.0787 41.16 79.0287 41.16H77.3487V43.3275ZM85.5351 48V41.31H82.7676V39.9H89.8701V41.31H87.1026V48H85.5351ZM94.0652 48.225C93.2552 48.225 92.5527 48.0425 91.9577 47.6775C91.3627 47.3125 90.9027 46.81 90.5777 46.17C90.2577 45.525 90.0977 44.7825 90.0977 43.9425C90.0977 43.0975 90.2627 42.355 90.5927 41.715C90.9227 41.07 91.3852 40.57 91.9802 40.215C92.5752 39.855 93.2702 39.675 94.0652 39.675C94.8752 39.675 95.5777 39.8575 96.1727 40.2225C96.7677 40.5875 97.2277 41.09 97.5527 41.73C97.8777 42.37 98.0402 43.1075 98.0402 43.9425C98.0402 44.7875 97.8752 45.5325 97.5452 46.1775C97.2202 46.8175 96.7602 47.32 96.1652 47.685C95.5702 48.045 94.8702 48.225 94.0652 48.225ZM94.0652 46.7475C94.8402 46.7475 95.4177 46.4875 95.7977 45.9675C96.1827 45.4425 96.3752 44.7675 96.3752 43.9425C96.3752 43.0975 96.1802 42.4225 95.7902 41.9175C95.4052 41.4075 94.8302 41.1525 94.0652 41.1525C93.5402 41.1525 93.1077 41.2725 92.7677 41.5125C92.4277 41.7475 92.1752 42.075 92.0102 42.495C91.8452 42.91 91.7627 43.3925 91.7627 43.9425C91.7627 44.7925 91.9577 45.4725 92.3477 45.9825C92.7377 46.4925 93.3102 46.7475 94.0652 46.7475ZM99.0808 48V39.9H100.393L103.386 45.84L106.371 39.9H107.691V48H106.176V43.11L103.738 48H103.026L100.588 43.11V48H99.0808ZM111.484 48.225C110.884 48.225 110.381 48.115 109.976 47.895C109.571 47.67 109.264 47.375 109.054 47.01C108.849 46.64 108.746 46.235 108.746 45.795C108.746 45.385 108.819 45.025 108.964 44.715C109.109 44.405 109.324 44.1425 109.609 43.9275C109.894 43.7075 110.244 43.53 110.659 43.395C111.019 43.29 111.426 43.1975 111.881 43.1175C112.336 43.0375 112.814 42.9625 113.314 42.8925C113.819 42.8225 114.319 42.7525 114.814 42.6825L114.244 42.9975C114.254 42.3625 114.119 41.8925 113.839 41.5875C113.564 41.2775 113.089 41.1225 112.414 41.1225C111.989 41.1225 111.599 41.2225 111.244 41.4225C110.889 41.6175 110.641 41.9425 110.501 42.3975L109.039 41.9475C109.239 41.2525 109.619 40.7 110.179 40.29C110.744 39.88 111.494 39.675 112.429 39.675C113.154 39.675 113.784 39.8 114.319 40.05C114.859 40.295 115.254 40.685 115.504 41.22C115.634 41.485 115.714 41.765 115.744 42.06C115.774 42.355 115.789 42.6725 115.789 43.0125V48H114.401V46.1475L114.671 46.3875C114.336 47.0075 113.909 47.47 113.389 47.775C112.874 48.075 112.239 48.225 111.484 48.225ZM111.761 46.9425C112.206 46.9425 112.589 46.865 112.909 46.71C113.229 46.55 113.486 46.3475 113.681 46.1025C113.876 45.8575 114.004 45.6025 114.064 45.3375C114.149 45.0975 114.196 44.8275 114.206 44.5275C114.221 44.2275 114.229 43.9875 114.229 43.8075L114.739 43.995C114.244 44.07 113.794 44.1375 113.389 44.1975C112.984 44.2575 112.616 44.3175 112.286 44.3775C111.961 44.4325 111.671 44.5 111.416 44.58C111.201 44.655 111.009 44.745 110.839 44.85C110.674 44.955 110.541 45.0825 110.441 45.2325C110.346 45.3825 110.299 45.565 110.299 45.78C110.299 45.99 110.351 46.185 110.456 46.365C110.561 46.54 110.721 46.68 110.936 46.785C111.151 46.89 111.426 46.9425 111.761 46.9425ZM119.229 48V41.31H116.461V39.9H123.564V41.31H120.796V48H119.229ZM131.213 39.9V48H129.705V42.3675L125.655 48H124.38V39.9H125.888V45.42L129.945 39.9H131.213ZM137.501 48V45.18C137.226 45.32 136.904 45.435 136.534 45.525C136.164 45.61 135.774 45.6525 135.364 45.6525C134.534 45.6525 133.866 45.4675 133.361 45.0975C132.861 44.7225 132.536 44.1825 132.386 43.4775C132.346 43.2675 132.316 43.0525 132.296 42.8325C132.276 42.6075 132.264 42.4025 132.259 42.2175C132.259 42.0325 132.259 41.895 132.259 41.805V39.9H133.849V41.805C133.849 41.935 133.854 42.1075 133.864 42.3225C133.874 42.5325 133.901 42.7375 133.946 42.9375C134.041 43.3875 134.231 43.7225 134.516 43.9425C134.801 44.1575 135.204 44.265 135.724 44.265C136.099 44.265 136.436 44.2175 136.736 44.1225C137.041 44.0225 137.296 43.895 137.501 43.74V39.9H139.084V48H137.501ZM144.183 48.225C143.378 48.225 142.67 48.05 142.06 47.7C141.455 47.345 140.983 46.8525 140.643 46.2225C140.308 45.5875 140.14 44.8525 140.14 44.0175C140.14 43.1325 140.305 42.365 140.635 41.715C140.97 41.065 141.435 40.5625 142.03 40.2075C142.625 39.8525 143.318 39.675 144.108 39.675C144.933 39.675 145.635 39.8675 146.215 40.2525C146.795 40.6325 147.228 41.175 147.513 41.88C147.803 42.585 147.918 43.4225 147.858 44.3925H146.29V43.8225C146.28 42.8825 146.1 42.1875 145.75 41.7375C145.405 41.2875 144.878 41.0625 144.168 41.0625C143.383 41.0625 142.793 41.31 142.398 41.805C142.003 42.3 141.805 43.015 141.805 43.95C141.805 44.84 142.003 45.53 142.398 46.02C142.793 46.505 143.363 46.7475 144.108 46.7475C144.598 46.7475 145.02 46.6375 145.375 46.4175C145.735 46.1925 146.015 45.8725 146.215 45.4575L147.753 45.945C147.438 46.67 146.96 47.2325 146.32 47.6325C145.68 48.0275 144.968 48.225 144.183 48.225ZM141.295 44.3925V43.17H147.078V44.3925H141.295ZM152.405 48.225C151.575 48.225 150.87 48.04 150.29 47.67C149.71 47.3 149.265 46.7925 148.955 46.1475C148.65 45.5025 148.495 44.77 148.49 43.95C148.495 43.115 148.655 42.3775 148.97 41.7375C149.285 41.0925 149.735 40.5875 150.32 40.2225C150.905 39.8575 151.608 39.675 152.428 39.675C153.313 39.675 154.068 39.895 154.693 40.335C155.323 40.775 155.738 41.3775 155.938 42.1425L154.378 42.5925C154.223 42.1375 153.968 41.785 153.613 41.535C153.263 41.28 152.86 41.1525 152.405 41.1525C151.89 41.1525 151.468 41.275 151.138 41.52C150.808 41.76 150.563 42.09 150.403 42.51C150.243 42.93 150.16 43.41 150.155 43.95C150.16 44.785 150.35 45.46 150.725 45.975C151.105 46.49 151.665 46.7475 152.405 46.7475C152.91 46.7475 153.318 46.6325 153.628 46.4025C153.943 46.1675 154.183 45.8325 154.348 45.3975L155.938 45.7725C155.673 46.5625 155.235 47.17 154.625 47.595C154.015 48.015 153.275 48.225 152.405 48.225ZM156.858 48L156.866 39.9H158.456V43.8L161.636 39.9H163.631L160.271 43.95L163.976 48H161.846L158.456 44.1V48H156.858ZM170.957 39.9V48H169.45V42.3675L165.4 48H164.125V39.9H165.632V45.42L169.69 39.9H170.957ZM174.848 48V39.9H176.416V43.2075H180.368V39.9H181.936V48H180.368V44.685H176.416V48H174.848ZM185.728 48.225C185.128 48.225 184.625 48.115 184.22 47.895C183.815 47.67 183.508 47.375 183.298 47.01C183.093 46.64 182.99 46.235 182.99 45.795C182.99 45.385 183.063 45.025 183.208 44.715C183.353 44.405 183.568 44.1425 183.853 43.9275C184.138 43.7075 184.488 43.53 184.903 43.395C185.263 43.29 185.67 43.1975 186.125 43.1175C186.58 43.0375 187.058 42.9625 187.558 42.8925C188.063 42.8225 188.563 42.7525 189.058 42.6825L188.488 42.9975C188.498 42.3625 188.363 41.8925 188.083 41.5875C187.808 41.2775 187.333 41.1225 186.658 41.1225C186.233 41.1225 185.843 41.2225 185.488 41.4225C185.133 41.6175 184.885 41.9425 184.745 42.3975L183.283 41.9475C183.483 41.2525 183.863 40.7 184.423 40.29C184.988 39.88 185.738 39.675 186.673 39.675C187.398 39.675 188.028 39.8 188.563 40.05C189.103 40.295 189.498 40.685 189.748 41.22C189.878 41.485 189.958 41.765 189.988 42.06C190.018 42.355 190.033 42.6725 190.033 43.0125V48H188.645V46.1475L188.915 46.3875C188.58 47.0075 188.153 47.47 187.633 47.775C187.118 48.075 186.483 48.225 185.728 48.225ZM186.005 46.9425C186.45 46.9425 186.833 46.865 187.153 46.71C187.473 46.55 187.73 46.3475 187.925 46.1025C188.12 45.8575 188.248 45.6025 188.308 45.3375C188.393 45.0975 188.44 44.8275 188.45 44.5275C188.465 44.2275 188.473 43.9875 188.473 43.8075L188.983 43.995C188.488 44.07 188.038 44.1375 187.633 44.1975C187.228 44.2575 186.86 44.3175 186.53 44.3775C186.205 44.4325 185.915 44.5 185.66 44.58C185.445 44.655 185.253 44.745 185.083 44.85C184.918 44.955 184.785 45.0825 184.685 45.2325C184.59 45.3825 184.543 45.565 184.543 45.78C184.543 45.99 184.595 46.185 184.7 46.365C184.805 46.54 184.965 46.68 185.18 46.785C185.395 46.89 185.67 46.9425 186.005 46.9425ZM194.845 48.225C194.015 48.225 193.31 48.04 192.73 47.67C192.15 47.3 191.705 46.7925 191.395 46.1475C191.09 45.5025 190.935 44.77 190.93 43.95C190.935 43.115 191.095 42.3775 191.41 41.7375C191.725 41.0925 192.175 40.5875 192.76 40.2225C193.345 39.8575 194.048 39.675 194.868 39.675C195.753 39.675 196.508 39.895 197.133 40.335C197.763 40.775 198.178 41.3775 198.378 42.1425L196.818 42.5925C196.663 42.1375 196.408 41.785 196.053 41.535C195.703 41.28 195.3 41.1525 194.845 41.1525C194.33 41.1525 193.908 41.275 193.578 41.52C193.248 41.76 193.003 42.09 192.843 42.51C192.683 42.93 192.6 43.41 192.595 43.95C192.6 44.785 192.79 45.46 193.165 45.975C193.545 46.49 194.105 46.7475 194.845 46.7475C195.35 46.7475 195.758 46.6325 196.068 46.4025C196.383 46.1675 196.623 45.8325 196.788 45.3975L198.378 45.7725C198.113 46.5625 197.675 47.17 197.065 47.595C196.455 48.015 195.715 48.225 194.845 48.225ZM201.31 48V41.31H198.543V39.9H205.645V41.31H202.878V48H201.31ZM210.272 48.225C209.497 48.225 208.847 48.0375 208.322 47.6625C207.797 47.2825 207.4 46.77 207.13 46.125C206.86 45.48 206.725 44.7525 206.725 43.9425C206.725 43.1325 206.857 42.405 207.122 41.76C207.392 41.115 207.787 40.6075 208.307 40.2375C208.832 39.8625 209.477 39.675 210.242 39.675C211.002 39.675 211.657 39.8625 212.207 40.2375C212.762 40.6075 213.19 41.115 213.49 41.76C213.79 42.4 213.94 43.1275 213.94 43.9425C213.94 44.7525 213.79 45.4825 213.49 46.1325C213.195 46.7775 212.772 47.2875 212.222 47.6625C211.677 48.0375 211.027 48.225 210.272 48.225ZM206.462 51.6V39.9H207.857V45.7275H208.037V51.6H206.462ZM210.055 46.8075C210.555 46.8075 210.967 46.68 211.292 46.425C211.622 46.17 211.867 45.8275 212.027 45.3975C212.192 44.9625 212.275 44.4775 212.275 43.9425C212.275 43.4125 212.192 42.9325 212.027 42.5025C211.867 42.0725 211.62 41.73 211.285 41.475C210.95 41.22 210.522 41.0925 210.002 41.0925C209.512 41.0925 209.107 41.2125 208.787 41.4525C208.472 41.6925 208.237 42.0275 208.082 42.4575C207.932 42.8875 207.857 43.3825 207.857 43.9425C207.857 44.5025 207.932 44.9975 208.082 45.4275C208.232 45.8575 208.47 46.195 208.795 46.44C209.12 46.685 209.54 46.8075 210.055 46.8075ZM218.513 48.225C217.703 48.225 217.001 48.0425 216.406 47.6775C215.811 47.3125 215.351 46.81 215.026 46.17C214.706 45.525 214.546 44.7825 214.546 43.9425C214.546 43.0975 214.711 42.355 215.041 41.715C215.371 41.07 215.833 40.57 216.428 40.215C217.023 39.855 217.718 39.675 218.513 39.675C219.323 39.675 220.026 39.8575 220.621 40.2225C221.216 40.5875 221.676 41.09 222.001 41.73C222.326 42.37 222.488 43.1075 222.488 43.9425C222.488 44.7875 222.323 45.5325 221.993 46.1775C221.668 46.8175 221.208 47.32 220.613 47.685C220.018 48.045 219.318 48.225 218.513 48.225ZM218.513 46.7475C219.288 46.7475 219.866 46.4875 220.246 45.9675C220.631 45.4425 220.823 44.7675 220.823 43.9425C220.823 43.0975 220.628 42.4225 220.238 41.9175C219.853 41.4075 219.278 41.1525 218.513 41.1525C217.988 41.1525 217.556 41.2725 217.216 41.5125C216.876 41.7475 216.623 42.075 216.458 42.495C216.293 42.91 216.211 43.3925 216.211 43.9425C216.211 44.7925 216.406 45.4725 216.796 45.9825C217.186 46.4925 217.758 46.7475 218.513 46.7475ZM230.361 39.9V48H228.854V42.3675L224.804 48H223.529V39.9H225.036V45.42L229.094 39.9H230.361ZM233.95 48V41.31H231.182V39.9H238.285V41.31H235.517V48H233.95ZM239.101 48V39.9H240.676V42.7125H242.274C242.504 42.7125 242.749 42.7175 243.009 42.7275C243.274 42.7375 243.501 42.7625 243.691 42.8025C244.126 42.8925 244.501 43.0425 244.816 43.2525C245.136 43.4625 245.384 43.7425 245.559 44.0925C245.734 44.4375 245.821 44.8625 245.821 45.3675C245.821 46.0725 245.636 46.635 245.266 47.055C244.901 47.47 244.406 47.75 243.781 47.895C243.581 47.94 243.344 47.97 243.069 47.985C242.799 47.995 242.551 48 242.326 48H239.101ZM240.676 46.74H242.416C242.541 46.74 242.684 46.735 242.844 46.725C243.004 46.715 243.151 46.6925 243.286 46.6575C243.526 46.5875 243.741 46.445 243.931 46.23C244.121 46.015 244.216 45.7275 244.216 45.3675C244.216 44.9975 244.121 44.7025 243.931 44.4825C243.746 44.2625 243.511 44.12 243.226 44.055C243.091 44.02 242.954 43.9975 242.814 43.9875C242.674 43.9775 242.541 43.9725 242.416 43.9725H240.676V46.74ZM253.086 51.375V48.1425C252.296 48.2675 251.578 48.1825 250.933 47.8875C250.288 47.5925 249.776 47.1125 249.396 46.4475C249.016 45.7825 248.826 44.9525 248.826 43.9575C248.826 42.9625 249.016 42.13 249.396 41.46C249.776 40.79 250.288 40.3075 250.933 40.0125C251.578 39.7175 252.296 39.6325 253.086 39.7575V37.305H254.496V39.7575C255.286 39.6325 256.003 39.7175 256.648 40.0125C257.293 40.3075 257.806 40.79 258.186 41.46C258.566 42.13 258.756 42.9625 258.756 43.9575C258.756 44.9525 258.566 45.7825 258.186 46.4475C257.806 47.1125 257.293 47.5925 256.648 47.8875C256.003 48.1825 255.286 48.2675 254.496 48.1425V51.375H253.086ZM253.086 46.725V41.1825C252.681 41.1125 252.313 41.125 251.983 41.22C251.658 41.315 251.381 41.4825 251.151 41.7225C250.921 41.9575 250.743 42.265 250.618 42.645C250.493 43.02 250.431 43.4575 250.431 43.9575C250.431 44.4575 250.493 44.895 250.618 45.27C250.748 45.645 250.931 45.9525 251.166 46.1925C251.406 46.4275 251.688 46.5925 252.013 46.6875C252.338 46.7775 252.696 46.79 253.086 46.725ZM254.496 46.725C254.886 46.79 255.243 46.7775 255.568 46.6875C255.893 46.5975 256.173 46.435 256.408 46.2C256.648 45.965 256.831 45.66 256.956 45.285C257.086 44.905 257.151 44.4625 257.151 43.9575C257.151 43.4475 257.088 43.005 256.963 42.63C256.838 42.25 256.661 41.9425 256.431 41.7075C256.201 41.4675 255.921 41.3025 255.591 41.2125C255.266 41.1225 254.901 41.1125 254.496 41.1825V46.725ZM266.634 39.9V48H265.126V42.3675L261.076 48H259.801V39.9H261.309V45.42L265.366 39.9H266.634ZM267.379 48V46.6725C267.679 46.7275 267.907 46.72 268.062 46.65C268.222 46.575 268.339 46.44 268.414 46.245C268.494 46.05 268.562 45.7975 268.617 45.4875C268.702 45.0325 268.774 44.515 268.834 43.935C268.899 43.35 268.957 42.7175 269.007 42.0375C269.057 41.3575 269.102 40.645 269.142 39.9H274.962V48H273.387V41.3775H270.552C270.522 41.7725 270.487 42.1925 270.447 42.6375C270.412 43.0775 270.372 43.515 270.327 43.95C270.282 44.385 270.234 44.7925 270.184 45.1725C270.134 45.5525 270.082 45.8775 270.027 46.1475C269.927 46.6875 269.779 47.1175 269.584 47.4375C269.394 47.7525 269.124 47.955 268.774 48.045C268.424 48.14 267.959 48.125 267.379 48ZM276.458 48V39.9H278.033V42.7125H279.63C279.86 42.7125 280.105 42.7175 280.365 42.7275C280.63 42.7375 280.858 42.7625 281.048 42.8025C281.483 42.8925 281.858 43.0425 282.173 43.2525C282.493 43.4625 282.74 43.7425 282.915 44.0925C283.09 44.4375 283.178 44.8625 283.178 45.3675C283.178 46.0725 282.993 46.635 282.623 47.055C282.258 47.47 281.763 47.75 281.138 47.895C280.938 47.94 280.7 47.97 280.425 47.985C280.155 47.995 279.908 48 279.683 48H276.458ZM278.033 46.74H279.773C279.898 46.74 280.04 46.735 280.2 46.725C280.36 46.715 280.508 46.6925 280.643 46.6575C280.883 46.5875 281.098 46.445 281.288 46.23C281.478 46.015 281.573 45.7275 281.573 45.3675C281.573 44.9975 281.478 44.7025 281.288 44.4825C281.103 44.2625 280.868 44.12 280.583 44.055C280.448 44.02 280.31 43.9975 280.17 43.9875C280.03 43.9775 279.898 43.9725 279.773 43.9725H278.033V46.74ZM286.322 48V41.31H283.554V39.9H290.657V41.31H287.889V48H286.322ZM295.283 48.225C294.508 48.225 293.858 48.0375 293.333 47.6625C292.808 47.2825 292.411 46.77 292.141 46.125C291.871 45.48 291.736 44.7525 291.736 43.9425C291.736 43.1325 291.868 42.405 292.133 41.76C292.403 41.115 292.798 40.6075 293.318 40.2375C293.843 39.8625 294.488 39.675 295.253 39.675C296.013 39.675 296.668 39.8625 297.218 40.2375C297.773 40.6075 298.201 41.115 298.501 41.76C298.801 42.4 298.951 43.1275 298.951 43.9425C298.951 44.7525 298.801 45.4825 298.501 46.1325C298.206 46.7775 297.783 47.2875 297.233 47.6625C296.688 48.0375 296.038 48.225 295.283 48.225ZM291.473 51.6V39.9H292.868V45.7275H293.048V51.6H291.473ZM295.066 46.8075C295.566 46.8075 295.978 46.68 296.303 46.425C296.633 46.17 296.878 45.8275 297.038 45.3975C297.203 44.9625 297.286 44.4775 297.286 43.9425C297.286 43.4125 297.203 42.9325 297.038 42.5025C296.878 42.0725 296.631 41.73 296.296 41.475C295.961 41.22 295.533 41.0925 295.013 41.0925C294.523 41.0925 294.118 41.2125 293.798 41.4525C293.483 41.6925 293.248 42.0275 293.093 42.4575C292.943 42.8875 292.868 43.3825 292.868 43.9425C292.868 44.5025 292.943 44.9975 293.093 45.4275C293.243 45.8575 293.481 46.195 293.806 46.44C294.131 46.685 294.551 46.8075 295.066 46.8075Z" fill="white"/>
</g>
<defs>
<filter id="filter0_dddd_626_2048" x="35" y="16" width="295" height="119" filterUnits="userSpaceOnUse" color-interpolation-filters="sRGB">
<feFlood flood-opacity="0" result="BackgroundImageFix"/>
<feColorMatrix in="SourceAlpha" type="matrix" values="0 0 0 0 0 0 0 0 0 0 0 0 0 0 0 0 0 0 127 0" result="hardAlpha"/>
<feOffset dy="3"/>
<feGaussianBlur stdDeviation="3.5"/>
<feColorMatrix type="matrix" values="0 0 0 0 0 0 0 0 0 0 0 0 0 0 0 0 0 0 0.1 0"/>
<feBlend mode="normal" in2="BackgroundImageFix" result="effect1_dropShadow_626_2048"/>
<feColorMatrix in="SourceAlpha" type="matrix" values="0 0 0 0 0 0 0 0 0 0 0 0 0 0 0 0 0 0 127 0" result="hardAlpha"/>
<feOffset dy="13"/>
<feGaussianBlur stdDeviation="6.5"/>
<feColorMatrix type="matrix" values="0 0 0 0 0 0 0 0 0 0 0 0 0 0 0 0 0 0 0.09 0"/>
<feBlend mode="normal" in2="effect1_dropShadow_626_2048" result="effect2_dropShadow_626_2048"/>
<feColorMatrix in="SourceAlpha" type="matrix" values="0 0 0 0 0 0 0 0 0 0 0 0 0 0 0 0 0 0 127 0" result="hardAlpha"/>
<feOffset dy="28"/>
<feGaussianBlur stdDeviation="8.5"/>
<feColorMatrix type="matrix" values="0 0 0 0 0 0 0 0 0 0 0 0 0 0 0 0 0 0 0.05 0"/>
<feBlend mode="normal" in2="effect2_dropShadow_626_2048" result="effect3_dropShadow_626_2048"/>
<feColorMatrix in="SourceAlpha" type="matrix" values="0 0 0 0 0 0 0 0 0 0 0 0 0 0 0 0 0 0 127 0" result="hardAlpha"/>
<feOffset dy="50"/>
<feGaussianBlur stdDeviation="10"/>
<feColorMatrix type="matrix" values="0 0 0 0 0 0 0 0 0 0 0 0 0 0 0 0 0 0 0.01 0"/>
<feBlend mode="normal" in2="effect3_dropShadow_626_2048" result="effect4_dropShadow_626_2048"/>
<feBlend mode="normal" in="SourceGraphic" in2="effect4_dropShadow_626_2048" result="shape"/>
</filter>
<linearGradient id="paint0_linear_626_2048" x1="197" y1="87" x2="217" y2="87" gradientUnits="userSpaceOnUse">
<stop stop-color="#FF0000"/>
<stop offset="0.142857" stop-color="#F80624"/>
<stop offset="0.285714" stop-color="#F10B44"/>
<stop offset="0.428571" stop-color="#EA1061"/>
<stop offset="0.571429" stop-color="#E3147B"/>
<stop offset="0.714286" stop-color="#DC1892"/>
<stop offset="0.857143" stop-color="#D51CA6"/>
<stop offset="1" stop-color="#CE20B7"/>
</linearGradient>
<linearGradient id="paint1_linear_626_2048" x1="197" y1="87" x2="217" y2="87" gradientUnits="userSpaceOnUse">
<stop stop-color="#FF0000"/>
<stop offset="0.142857" stop-color="#F80624"/>
<stop offset="0.285714" stop-color="#F10B44"/>
<stop offset="0.428571" stop-color="#EA1061"/>
<stop offset="0.571429" stop-color="#E3147B"/>
<stop offset="0.714286" stop-color="#DC1892"/>
<stop offset="0.857143" stop-color="#D51CA6"/>
<stop offset="1" stop-color="#CE20B7"/>
</linearGradient>
<linearGradient id="paint2_linear_626_2048" x1="157" y1="87" x2="177" y2="87" gradientUnits="userSpaceOnUse">
<stop stop-color="#EEFF00"/>
<stop offset="0.142857" stop-color="#F8F706"/>
<stop offset="0.285714" stop-color="#F1E00B"/>
<stop offset="0.428571" stop-color="#EACB10"/>
<stop offset="0.571429" stop-color="#E3B714"/>
<stop offset="0.714286" stop-color="#DCA518"/>
<stop offset="0.857143" stop-color="#D5941C"/>
<stop offset="1" stop-color="#CE8520"/>
</linearGradient>
<linearGradient id="paint3_linear_626_2048" x1="117" y1="87" x2="137" y2="87" gradientUnits="userSpaceOnUse">
<stop stop-color="#00FF09"/>
<stop offset="0.142857" stop-color="#06F825"/>
<stop offset="0.285714" stop-color="#0BF13E"/>
<stop offset="0.428571" stop-color="#10EA54"/>
<stop offset="0.571429" stop-color="#14E368"/>
<stop offset="0.714286" stop-color="#18DC7A"/>
<stop offset="0.857143" stop-color="#1CD58A"/>
<stop offset="1" stop-color="#20CE97"/>
</linearGradient>
<linearGradient id="paint4_linear_626_2048" x1="197" y1="121" x2="217" y2="121" gradientUnits="userSpaceOnUse">
<stop stop-color="#FF0000"/>
<stop offset="0.142857" stop-color="#F80624"/>
<stop offset="0.285714" stop-color="#F10B44"/>
<stop offset="0.428571" stop-color="#EA1061"/>
<stop offset="0.571429" stop-color="#E3147B"/>
<stop offset="0.714286" stop-color="#DC1892"/>
<stop offset="0.857143" stop-color="#D51CA6"/>
<stop offset="1" stop-color="#CE20B7"/>
</linearGradient>
<linearGradient id="paint5_linear_626_2048" x1="197" y1="121" x2="217" y2="121" gradientUnits="userSpaceOnUse">
<stop stop-color="#FF0000"/>
<stop offset="0.142857" stop-color="#F80624"/>
<stop offset="0.285714" stop-color="#F10B44"/>
<stop offset="0.428571" stop-color="#EA1061"/>
<stop offset="0.571429" stop-color="#E3147B"/>
<stop offset="0.714286" stop-color="#DC1892"/>
<stop offset="0.857143" stop-color="#D51CA6"/>
<stop offset="1" stop-color="#CE20B7"/>
</linearGradient>
<linearGradient id="paint6_linear_626_2048" x1="157" y1="121" x2="177" y2="121" gradientUnits="userSpaceOnUse">
<stop stop-color="#EEFF00"/>
<stop offset="0.142857" stop-color="#F8F706"/>
<stop offset="0.285714" stop-color="#F1E00B"/>
<stop offset="0.428571" stop-color="#EACB10"/>
<stop offset="0.571429" stop-color="#E3B714"/>
<stop offset="0.714286" stop-color="#DCA518"/>
<stop offset="0.857143" stop-color="#D5941C"/>
<stop offset="1" stop-color="#CE8520"/>
</linearGradient>
<linearGradient id="paint7_linear_626_2048" x1="117" y1="121" x2="137" y2="121" gradientUnits="userSpaceOnUse">
<stop stop-color="#00FF09"/>
<stop offset="0.142857" stop-color="#06F825"/>
<stop offset="0.285714" stop-color="#0BF13E"/>
<stop offset="0.428571" stop-color="#10EA54"/>
<stop offset="0.571429" stop-color="#14E368"/>
<stop offset="0.714286" stop-color="#18DC7A"/>
<stop offset="0.857143" stop-color="#1CD58A"/>
<stop offset="1" stop-color="#20CE97"/>
</linearGradient>
<linearGradient id="paint8_linear_626_2048" x1="197" y1="155" x2="217" y2="155" gradientUnits="userSpaceOnUse">
<stop stop-color="#FF0000"/>
<stop offset="0.142857" stop-color="#F80624"/>
<stop offset="0.285714" stop-color="#F10B44"/>
<stop offset="0.428571" stop-color="#EA1061"/>
<stop offset="0.571429" stop-color="#E3147B"/>
<stop offset="0.714286" stop-color="#DC1892"/>
<stop offset="0.857143" stop-color="#D51CA6"/>
<stop offset="1" stop-color="#CE20B7"/>
</linearGradient>
<linearGradient id="paint9_linear_626_2048" x1="197" y1="155" x2="217" y2="155" gradientUnits="userSpaceOnUse">
<stop stop-color="#FF0000"/>
<stop offset="0.142857" stop-color="#F80624"/>
<stop offset="0.285714" stop-color="#F10B44"/>
<stop offset="0.428571" stop-color="#EA1061"/>
<stop offset="0.571429" stop-color="#E3147B"/>
<stop offset="0.714286" stop-color="#DC1892"/>
<stop offset="0.857143" stop-color="#D51CA6"/>
<stop offset="1" stop-color="#CE20B7"/>
</linearGradient>
<linearGradient id="paint10_linear_626_2048" x1="157" y1="155" x2="177" y2="155" gradientUnits="userSpaceOnUse">
<stop stop-color="#EEFF00"/>
<stop offset="0.142857" stop-color="#F8F706"/>
<stop offset="0.285714" stop-color="#F1E00B"/>
<stop offset="0.428571" stop-color="#EACB10"/>
<stop offset="0.571429" stop-color="#E3B714"/>
<stop offset="0.714286" stop-color="#DCA518"/>
<stop offset="0.857143" stop-color="#D5941C"/>
<stop offset="1" stop-color="#CE8520"/>
</linearGradient>
<linearGradient id="paint11_linear_626_2048" x1="117" y1="155" x2="137" y2="155" gradientUnits="userSpaceOnUse">
<stop stop-color="#00FF09"/>
<stop offset="0.142857" stop-color="#06F825"/>
<stop offset="0.285714" stop-color="#0BF13E"/>
<stop offset="0.428571" stop-color="#10EA54"/>
<stop offset="0.571429" stop-color="#14E368"/>
<stop offset="0.714286" stop-color="#18DC7A"/>
<stop offset="0.857143" stop-color="#1CD58A"/>
<stop offset="1" stop-color="#20CE97"/>
</linearGradient>
<linearGradient id="paint12_linear_626_2048" x1="197" y1="189" x2="217" y2="189" gradientUnits="userSpaceOnUse">
<stop stop-color="#FF0000"/>
<stop offset="0.142857" stop-color="#F80624"/>
<stop offset="0.285714" stop-color="#F10B44"/>
<stop offset="0.428571" stop-color="#EA1061"/>
<stop offset="0.571429" stop-color="#E3147B"/>
<stop offset="0.714286" stop-color="#DC1892"/>
<stop offset="0.857143" stop-color="#D51CA6"/>
<stop offset="1" stop-color="#CE20B7"/>
</linearGradient>
<linearGradient id="paint13_linear_626_2048" x1="197" y1="189" x2="217" y2="189" gradientUnits="userSpaceOnUse">
<stop stop-color="#FF0000"/>
<stop offset="0.142857" stop-color="#F80624"/>
<stop offset="0.285714" stop-color="#F10B44"/>
<stop offset="0.428571" stop-color="#EA1061"/>
<stop offset="0.571429" stop-color="#E3147B"/>
<stop offset="0.714286" stop-color="#DC1892"/>
<stop offset="0.857143" stop-color="#D51CA6"/>
<stop offset="1" stop-color="#CE20B7"/>
</linearGradient>
<linearGradient id="paint14_linear_626_2048" x1="157" y1="189" x2="177" y2="189" gradientUnits="userSpaceOnUse">
<stop stop-color="#EEFF00"/>
<stop offset="0.142857" stop-color="#F8F706"/>
<stop offset="0.285714" stop-color="#F1E00B"/>
<stop offset="0.428571" stop-color="#EACB10"/>
<stop offset="0.571429" stop-color="#E3B714"/>
<stop offset="0.714286" stop-color="#DCA518"/>
<stop offset="0.857143" stop-color="#D5941C"/>
<stop offset="1" stop-color="#CE8520"/>
</linearGradient>
<linearGradient id="paint15_linear_626_2048" x1="117" y1="189" x2="137" y2="189" gradientUnits="userSpaceOnUse">
<stop stop-color="#00FF09"/>
<stop offset="0.142857" stop-color="#06F825"/>
<stop offset="0.285714" stop-color="#0BF13E"/>
<stop offset="0.428571" stop-color="#10EA54"/>
<stop offset="0.571429" stop-color="#14E368"/>
<stop offset="0.714286" stop-color="#18DC7A"/>
<stop offset="0.857143" stop-color="#1CD58A"/>
<stop offset="1" stop-color="#20CE97"/>
</linearGradient>
<linearGradient id="paint16_linear_626_2048" x1="197" y1="223" x2="217" y2="223" gradientUnits="userSpaceOnUse">
<stop stop-color="#FF0000"/>
<stop offset="0.142857" stop-color="#F80624"/>
<stop offset="0.285714" stop-color="#F10B44"/>
<stop offset="0.428571" stop-color="#EA1061"/>
<stop offset="0.571429" stop-color="#E3147B"/>
<stop offset="0.714286" stop-color="#DC1892"/>
<stop offset="0.857143" stop-color="#D51CA6"/>
<stop offset="1" stop-color="#CE20B7"/>
</linearGradient>
<linearGradient id="paint17_linear_626_2048" x1="197" y1="223" x2="217" y2="223" gradientUnits="userSpaceOnUse">
<stop stop-color="#FF0000"/>
<stop offset="0.142857" stop-color="#F80624"/>
<stop offset="0.285714" stop-color="#F10B44"/>
<stop offset="0.428571" stop-color="#EA1061"/>
<stop offset="0.571429" stop-color="#E3147B"/>
<stop offset="0.714286" stop-color="#DC1892"/>
<stop offset="0.857143" stop-color="#D51CA6"/>
<stop offset="1" stop-color="#CE20B7"/>
</linearGradient>
<linearGradient id="paint18_linear_626_2048" x1="157" y1="223" x2="177" y2="223" gradientUnits="userSpaceOnUse">
<stop stop-color="#EEFF00"/>
<stop offset="0.142857" stop-color="#F8F706"/>
<stop offset="0.285714" stop-color="#F1E00B"/>
<stop offset="0.428571" stop-color="#EACB10"/>
<stop offset="0.571429" stop-color="#E3B714"/>
<stop offset="0.714286" stop-color="#DCA518"/>
<stop offset="0.857143" stop-color="#D5941C"/>
<stop offset="1" stop-color="#CE8520"/>
</linearGradient>
<linearGradient id="paint19_linear_626_2048" x1="117" y1="223" x2="137" y2="223" gradientUnits="userSpaceOnUse">
<stop stop-color="#00FF09"/>
<stop offset="0.142857" stop-color="#06F825"/>
<stop offset="0.285714" stop-color="#0BF13E"/>
<stop offset="0.428571" stop-color="#10EA54"/>
<stop offset="0.571429" stop-color="#14E368"/>
<stop offset="0.714286" stop-color="#18DC7A"/>
<stop offset="0.857143" stop-color="#1CD58A"/>
<stop offset="1" stop-color="#20CE97"/>
</linearGradient>
<linearGradient id="paint20_linear_626_2048" x1="197" y1="257" x2="217" y2="257" gradientUnits="userSpaceOnUse">
<stop stop-color="#FF0000"/>
<stop offset="0.142857" stop-color="#F80624"/>
<stop offset="0.285714" stop-color="#F10B44"/>
<stop offset="0.428571" stop-color="#EA1061"/>
<stop offset="0.571429" stop-color="#E3147B"/>
<stop offset="0.714286" stop-color="#DC1892"/>
<stop offset="0.857143" stop-color="#D51CA6"/>
<stop offset="1" stop-color="#CE20B7"/>
</linearGradient>
<linearGradient id="paint21_linear_626_2048" x1="197" y1="257" x2="217" y2="257" gradientUnits="userSpaceOnUse">
<stop stop-color="#FF0000"/>
<stop offset="0.142857" stop-color="#F80624"/>
<stop offset="0.285714" stop-color="#F10B44"/>
<stop offset="0.428571" stop-color="#EA1061"/>
<stop offset="0.571429" stop-color="#E3147B"/>
<stop offset="0.714286" stop-color="#DC1892"/>
<stop offset="0.857143" stop-color="#D51CA6"/>
<stop offset="1" stop-color="#CE20B7"/>
</linearGradient>
<linearGradient id="paint22_linear_626_2048" x1="157" y1="257" x2="177" y2="257" gradientUnits="userSpaceOnUse">
<stop stop-color="#EEFF00"/>
<stop offset="0.142857" stop-color="#F8F706"/>
<stop offset="0.285714" stop-color="#F1E00B"/>
<stop offset="0.428571" stop-color="#EACB10"/>
<stop offset="0.571429" stop-color="#E3B714"/>
<stop offset="0.714286" stop-color="#DCA518"/>
<stop offset="0.857143" stop-color="#D5941C"/>
<stop offset="1" stop-color="#CE8520"/>
</linearGradient>
<linearGradient id="paint23_linear_626_2048" x1="117" y1="257" x2="137" y2="257" gradientUnits="userSpaceOnUse">
<stop stop-color="#00FF09"/>
<stop offset="0.142857" stop-color="#06F825"/>
<stop offset="0.285714" stop-color="#0BF13E"/>
<stop offset="0.428571" stop-color="#10EA54"/>
<stop offset="0.571429" stop-color="#14E368"/>
<stop offset="0.714286" stop-color="#18DC7A"/>
<stop offset="0.857143" stop-color="#1CD58A"/>
<stop offset="1" stop-color="#20CE97"/>
</linearGradient>
</defs>
</svg>
