<svg width="30" height="30" viewBox="0 0 30 30" fill="none" xmlns="http://www.w3.org/2000/svg">
<rect width="30" height="30" rx="7" fill="url(#paint0_linear_342_1077)"/>
<path d="M5.43821 22V8.90909H13.6456V10.6094H7.41335V14.598H13.2173V16.2919H7.41335V20.2997H13.7223V22H5.43821ZM18.0417 16.1705V22H16.1305V12.1818H17.965V13.7798H18.0865C18.3123 13.2599 18.666 12.8423 19.1475 12.527C19.6333 12.2116 20.2449 12.054 20.9821 12.054C21.6511 12.054 22.237 12.1946 22.7399 12.4759C23.2427 12.7528 23.6326 13.1662 23.9096 13.7159C24.1866 14.2656 24.3251 14.9453 24.3251 15.755V22H22.4139V15.9851C22.4139 15.2734 22.2285 14.7173 21.8578 14.3168C21.487 13.9119 20.9778 13.7095 20.3301 13.7095C19.8869 13.7095 19.4927 13.8054 19.1475 13.9972C18.8066 14.1889 18.536 14.4702 18.3358 14.8409C18.1397 15.2074 18.0417 15.6506 18.0417 16.1705Z" fill="white"/>
<defs>
<linearGradient id="paint0_linear_342_1077" x1="15.25" y1="15.25" x2="15.25" y2="52.25" gradientUnits="userSpaceOnUse">
<stop stop-color="#6E83D9"/>
<stop offset="1" stop-color="#8B51B8"/>
</linearGradient>
</defs>
</svg>
