<svg width="30" height="30" viewBox="0 0 30 30" fill="none" xmlns="http://www.w3.org/2000/svg">
<rect width="30" height="30" rx="7" fill="white"/>
<path d="M11.25 3.75H15V11.25H11.25C10.2554 11.25 9.30161 10.8549 8.59835 10.1517C7.89509 9.44839 7.5 8.49456 7.5 7.5C7.5 6.50544 7.89509 5.55161 8.59835 4.84835C9.30161 4.14509 10.2554 3.75 11.25 3.75Z" fill="#F4511E"/>
<path d="M18.75 11.25H15V3.75H18.75C19.7446 3.75 20.6984 4.14509 21.4016 4.84835C22.1049 5.55161 22.5 6.50544 22.5 7.5C22.5 8.49456 22.1049 9.44839 21.4016 10.1517C20.6984 10.8549 19.7446 11.25 18.75 11.25Z" fill="#FF8A65"/>
<path d="M15 15C15 17.0711 16.6789 18.75 18.75 18.75C20.8211 18.75 22.5 17.0711 22.5 15C22.5 12.9289 20.8211 11.25 18.75 11.25C16.6789 11.25 15 12.9289 15 15Z" fill="#29B6F6"/>
<path d="M11.25 11.25H15V18.75H11.25C10.2554 18.75 9.30161 18.3549 8.59835 17.6516C7.89509 16.9484 7.5 15.9946 7.5 15C7.5 14.0054 7.89509 13.0516 8.59835 12.3483C9.30161 11.6451 10.2554 11.25 11.25 11.25Z" fill="#7C4DFF"/>
<path d="M11.25 18.75H15V22.5C15 23.4946 14.6049 24.4484 13.9017 25.1516C13.1984 25.8549 12.2446 26.25 11.25 26.25C10.2554 26.25 9.30161 25.8549 8.59835 25.1516C7.89509 24.4484 7.5 23.4946 7.5 22.5C7.5 21.5054 7.89509 20.5516 8.59835 19.8484C9.30161 19.1451 10.2554 18.75 11.25 18.75Z" fill="#00E676"/>
</svg>
