<svg width="30" height="30" viewBox="0 0 30 30" fill="none" xmlns="http://www.w3.org/2000/svg">
<rect width="30" height="30" rx="7" fill="white"/>
<path d="M3.75 5.20964C3.75 6.01516 4.41171 6.66927 5.22596 6.66927H17.4665C18.8613 6.66927 20.0103 7.09479 20.9138 7.94583C21.8158 8.79753 22.2669 9.89267 22.2669 11.2312C22.2669 12.4682 21.8155 13.4816 20.9128 14.2712C20.0107 15.0425 18.8619 15.4277 17.4665 15.4271H12.1471C11.3309 15.4271 10.6702 16.0802 10.6702 16.8867C10.6702 17.6932 11.3309 18.3464 12.1471 18.3464H18.0213L23.3129 26.74C23.6411 27.2467 24.1028 27.5 24.6978 27.5C25.3548 27.5 25.8165 27.2467 26.0826 26.74C26.3487 26.2122 26.2975 25.6548 25.9291 25.0676L21.2208 17.5864C22.4927 17.0183 23.4978 16.1871 24.2362 15.0926C24.9751 13.9777 25.3446 12.6906 25.3446 11.2312C25.3446 9.75083 25.0058 8.45316 24.3283 7.33823C23.6725 6.2233 22.7496 5.35148 21.5596 4.72276C20.3696 4.07425 19.0052 3.75 17.4665 3.75H5.22695C4.41171 3.75 3.75 4.40312 3.75 5.20964Z" fill="black"/>
</svg>
